STARTFONT 2.1
FONT -Baekmuk-Dotum-Medium-R-Normal--18-180-75-75-M-180-ksx1001.1997-0
SIZE 18 75 75
FONTBOUNDINGBOX 18 18 0 -4
STARTPROPERTIES 18
FOUNDRY "Baekmuk"
FAMILY_NAME "Dotum"
WEIGHT_NAME "Medium"
SLANT "R"
SETWIDTH_NAME "Normal"
ADD_STYLE_NAME ""
PIXEL_SIZE 18
POINT_SIZE 180
RESOLUTION_X 75
RESOLUTION_Y 75
SPACING "M"
AVERAGE_WIDTH 180
CHARSET_REGISTRY "ksx1001.1997"
CHARSET_ENCODING "0"
DEFAULT_CHAR 8481
FONT_ASCENT 14
FONT_DESCENT 3
COPYRIGHT "(c)Hwan Design Inc. and Mizi Research Inc."
ENDPROPERTIES
CHARS 8224
STARTCHAR 3000
ENCODING 8481
SWIDTH 1800 0
DWIDTH 18 0
BBX 0 0 0 0
BITMAP
ENDCHAR
STARTCHAR 3001
ENCODING 8482
SWIDTH 1800 0
DWIDTH 18 0
BBX 3 3 8 11
BITMAP
80
60
20
ENDCHAR
STARTCHAR 3002
ENCODING 8483
SWIDTH 1800 0
DWIDTH 18 0
BBX 4 4 7 10
BITMAP
70
90
90
60
ENDCHAR
STARTCHAR 00B7
ENCODING 8484
SWIDTH 1800 0
DWIDTH 18 0
BBX 3 2 7 4
BITMAP
E0
E0
ENDCHAR
STARTCHAR 2025
ENCODING 8485
SWIDTH 1800 0
DWIDTH 18 0
BBX 10 2 4 4
BITMAP
C0C0
C0C0
ENDCHAR
STARTCHAR 2026
ENCODING 8486
SWIDTH 1800 0
DWIDTH 18 0
BBX 14 2 2 4
BITMAP
C30C
C30C
ENDCHAR
STARTCHAR 00A8
ENCODING 8487
SWIDTH 1800 0
DWIDTH 18 0
BBX 8 2 5 12
BITMAP
C3
C3
ENDCHAR
STARTCHAR 3003
ENCODING 8488
SWIDTH 1800 0
DWIDTH 18 0
BBX 5 6 6 2
BITMAP
28
48
48
50
90
80
ENDCHAR
STARTCHAR 00AD
ENCODING 8489
SWIDTH 1800 0
DWIDTH 18 0
BBX 8 1 5 5
BITMAP
FF
ENDCHAR
STARTCHAR 2015
ENCODING 8490
SWIDTH 1800 0
DWIDTH 18 0
BBX 18 1 0 5
BITMAP
FFFFC0
ENDCHAR
STARTCHAR 2225
ENCODING 8491
SWIDTH 1800 0
DWIDTH 18 0
BBX 4 15 7 -2
BITMAP
90
90
90
90
90
90
90
90
90
90
90
90
90
90
90
ENDCHAR
STARTCHAR FF3C
ENCODING 8492
SWIDTH 1800 0
DWIDTH 18 0
BBX 15 14 2 -2
BITMAP
8000
4000
2000
1000
0800
0400
0200
0100
0080
0040
0020
0018
0004
0002
ENDCHAR
STARTCHAR 223C
ENCODING 8493
SWIDTH 1800 0
DWIDTH 18 0
BBX 11 3 4 4
BITMAP
7000
8C60
0780
ENDCHAR
STARTCHAR 2018
ENCODING 8494
SWIDTH 1800 0
DWIDTH 18 0
BBX 2 3 11 10
BITMAP
80
80
C0
ENDCHAR
STARTCHAR 2019
ENCODING 8495
SWIDTH 1800 0
DWIDTH 18 0
BBX 2 4 5 10
BITMAP
80
C0
80
80
ENDCHAR
STARTCHAR 201C
ENCODING 8496
SWIDTH 1800 0
DWIDTH 18 0
BBX 6 3 8 10
BITMAP
CC
44
44
ENDCHAR
STARTCHAR 201D
ENCODING 8497
SWIDTH 1800 0
DWIDTH 18 0
BBX 5 3 4 11
BITMAP
C8
48
88
ENDCHAR
STARTCHAR 3014
ENCODING 8498
SWIDTH 1800 0
DWIDTH 18 0
BBX 4 17 13 -3
BITMAP
30
C0
80
80
80
80
80
80
80
80
80
80
80
80
80
C0
30
ENDCHAR
STARTCHAR 3015
ENCODING 8499
SWIDTH 1800 0
DWIDTH 18 0
BBX 4 17 2 -3
BITMAP
C0
30
10
10
10
10
10
10
10
10
10
10
10
10
10
30
C0
ENDCHAR
STARTCHAR 3008
ENCODING 8500
SWIDTH 1800 0
DWIDTH 18 0
BBX 6 16 6 -3
BITMAP
04
08
08
10
20
40
80
80
80
40
20
30
10
08
04
04
ENDCHAR
STARTCHAR 3009
ENCODING 8501
SWIDTH 1800 0
DWIDTH 18 0
BBX 6 15 6 -2
BITMAP
80
80
40
20
10
08
08
04
04
08
10
20
40
80
80
ENDCHAR
STARTCHAR 300A
ENCODING 8502
SWIDTH 1800 0
DWIDTH 18 0
BBX 7 14 5 -2
BITMAP
0C
14
18
28
50
60
A0
A0
50
28
28
14
14
0A
ENDCHAR
STARTCHAR 300B
ENCODING 8503
SWIDTH 1800 0
DWIDTH 18 0
BBX 6 14 6 -2
BITMAP
A0
A0
50
30
28
14
14
14
14
28
30
50
A0
A0
ENDCHAR
STARTCHAR 300C
ENCODING 8504
SWIDTH 1800 0
DWIDTH 18 0
BBX 6 9 11 5
BITMAP
FC
80
80
80
80
80
80
80
80
ENDCHAR
STARTCHAR 300D
ENCODING 8505
SWIDTH 1800 0
DWIDTH 18 0
BBX 6 8 1 -3
BITMAP
04
04
04
04
04
04
04
FC
ENDCHAR
STARTCHAR 300E
ENCODING 8506
SWIDTH 1800 0
DWIDTH 18 0
BBX 8 8 9 6
BITMAP
FF
BF
A0
A0
A0
A0
A0
A0
ENDCHAR
STARTCHAR 300F
ENCODING 8507
SWIDTH 1800 0
DWIDTH 18 0
BBX 7 8 2 -3
BITMAP
06
06
06
06
06
06
FE
FE
ENDCHAR
STARTCHAR 3010
ENCODING 8508
SWIDTH 1800 0
DWIDTH 18 0
BBX 4 15 11 -2
BITMAP
F0
F0
E0
E0
C0
C0
C0
C0
C0
C0
C0
E0
E0
F0
F0
ENDCHAR
STARTCHAR 3011
ENCODING 8509
SWIDTH 1800 0
DWIDTH 18 0
BBX 4 15 3 -2
BITMAP
F0
F0
70
70
30
30
30
30
30
30
30
70
70
F0
F0
ENDCHAR
STARTCHAR 00B1
ENCODING 8510
SWIDTH 1800 0
DWIDTH 18 0
BBX 12 12 3 0
BITMAP
0400
0400
0400
0400
0400
FFE0
0400
0400
0400
0400
0400
FFF0
ENDCHAR
STARTCHAR 00D7
ENCODING 8511
SWIDTH 1800 0
DWIDTH 18 0
BBX 11 11 3 0
BITMAP
8020
4060
20C0
1180
0B00
0600
0F00
1100
2080
4040
8020
ENDCHAR
STARTCHAR 00F7
ENCODING 8512
SWIDTH 1800 0
DWIDTH 18 0
BBX 12 11 3 0
BITMAP
0600
0600
0000
0000
0000
FFF0
0000
0000
0000
0600
0600
ENDCHAR
STARTCHAR 2260
ENCODING 8513
SWIDTH 1800 0
DWIDTH 18 0
BBX 12 11 3 0
BITMAP
0800
0800
0400
FFF0
0400
0400
0400
FFF0
0200
0200
0100
ENDCHAR
STARTCHAR 2264
ENCODING 8514
SWIDTH 1800 0
DWIDTH 18 0
BBX 12 11 3 0
BITMAP
0010
00E0
0300
1C00
6000
2000
1C00
0380
0060
0000
FFF0
ENDCHAR
STARTCHAR 2265
ENCODING 8515
SWIDTH 1800 0
DWIDTH 18 0
BBX 12 11 3 0
BITMAP
8000
7000
0C00
0380
0060
0060
0380
0C00
7000
0000
FFF0
ENDCHAR
STARTCHAR 221E
ENCODING 8516
SWIDTH 1800 0
DWIDTH 18 0
BBX 14 7 2 2
BITMAP
3870
C588
8204
8204
8204
4508
38F0
ENDCHAR
STARTCHAR 2234
ENCODING 8517
SWIDTH 1800 0
DWIDTH 18 0
BBX 10 9 4 1
BITMAP
0C00
0C00
0000
0000
0000
0000
0000
C0C0
C0C0
ENDCHAR
STARTCHAR 00B0
ENCODING 8518
SWIDTH 1800 0
DWIDTH 18 0
BBX 4 4 7 10
BITMAP
60
90
90
60
ENDCHAR
STARTCHAR 2032
ENCODING 8519
SWIDTH 1800 0
DWIDTH 18 0
BBX 2 3 8 11
BITMAP
40
80
80
ENDCHAR
STARTCHAR 2033
ENCODING 8520
SWIDTH 1800 0
DWIDTH 18 0
BBX 6 4 6 10
BITMAP
64
48
90
10
ENDCHAR
STARTCHAR 2103
ENCODING 8521
SWIDTH 1800 0
DWIDTH 18 0
BBX 13 14 2 0
BITMAP
F000
93C0
9430
6808
1808
1000
1000
1000
1000
1000
1808
0808
0430
03E0
ENDCHAR
STARTCHAR 212B
ENCODING 8522
SWIDTH 1800 0
DWIDTH 18 0
BBX 12 14 3 0
BITMAP
0E00
0A00
0A00
0400
0E00
0A00
1900
1180
3080
20C0
7FC0
4060
C020
8030
ENDCHAR
STARTCHAR FFE0
ENCODING 8523
SWIDTH 1800 0
DWIDTH 18 0
BBX 16 15 1 -2
BITMAP
0001
07E2
0814
1008
1018
1020
30C0
3100
1200
1408
1818
1830
27E0
4000
8000
ENDCHAR
STARTCHAR FFE1
ENCODING 8524
SWIDTH 1800 0
DWIDTH 18 0
BBX 12 12 3 0
BITMAP
03C0
0460
0C20
0C00
0C00
7FC0
0C00
0400
2C00
D810
8FE0
91C0
ENDCHAR
STARTCHAR FFE5
ENCODING 8525
SWIDTH 1800 0
DWIDTH 18 0
BBX 11 13 3 0
BITMAP
4000
2040
2080
1180
FFE0
0900
0E00
0400
FFE0
0400
0400
0400
0400
ENDCHAR
STARTCHAR 2642
ENCODING 8526
SWIDTH 1800 0
DWIDTH 18 0
BBX 9 16 4 -3
BITMAP
0800
1C00
2A00
4A00
8900
8880
0800
0800
0800
0800
3600
4100
4100
6100
6100
3E00
ENDCHAR
STARTCHAR 2640
ENCODING 8527
SWIDTH 1800 0
DWIDTH 18 0
BBX 11 15 3 -2
BITMAP
1F00
3080
2080
2080
1080
0B00
0400
0400
FFE0
0400
0400
0400
0400
0400
0400
ENDCHAR
STARTCHAR 2220
ENCODING 8528
SWIDTH 1800 0
DWIDTH 18 0
BBX 11 11 4 1
BITMAP
0040
0080
0100
0200
0400
0800
1000
2000
4000
8000
FFE0
ENDCHAR
STARTCHAR 22A5
ENCODING 8529
SWIDTH 1800 0
DWIDTH 18 0
BBX 13 10 2 1
BITMAP
0200
0200
0200
0200
0200
0200
0200
0200
0200
FFF8
ENDCHAR
STARTCHAR 2312
ENCODING 8530
SWIDTH 1800 0
DWIDTH 18 0
BBX 10 3 4 11
BITMAP
1F00
2080
C040
ENDCHAR
STARTCHAR 2202
ENCODING 8531
SWIDTH 1800 0
DWIDTH 18 0
BBX 8 14 5 -2
BITMAP
0E
33
01
01
01
01
3D
43
42
C2
84
84
48
30
ENDCHAR
STARTCHAR 2207
ENCODING 8532
SWIDTH 1800 0
DWIDTH 18 0
BBX 14 11 2 0
BITMAP
FFFC
8008
4008
4010
2020
1020
1040
0880
0880
0500
0200
ENDCHAR
STARTCHAR 2261
ENCODING 8533
SWIDTH 1800 0
DWIDTH 18 0
BBX 12 7 3 2
BITMAP
FFF0
0000
0000
FFF0
0000
0000
FFF0
ENDCHAR
STARTCHAR 2252
ENCODING 8534
SWIDTH 1800 0
DWIDTH 18 0
BBX 12 11 3 0
BITMAP
6000
6000
0000
FFF0
0000
0000
0000
FFF0
0000
0060
0060
ENDCHAR
STARTCHAR 00A7
ENCODING 8535
SWIDTH 1800 0
DWIDTH 18 0
BBX 8 16 5 -3
BITMAP
3C
46
46
60
30
18
6C
C6
42
72
3C
0C
06
63
62
3E
ENDCHAR
STARTCHAR 203B
ENCODING 8536
SWIDTH 1800 0
DWIDTH 18 0
BBX 12 12 3 -1
BITMAP
8710
4720
2740
1080
E970
E670
E670
0900
1780
2740
4720
8010
ENDCHAR
STARTCHAR 2606
ENCODING 8537
SWIDTH 1800 0
DWIDTH 18 0
BBX 14 14 2 -2
BITMAP
0300
0300
0500
0480
FCFC
8008
6030
1040
1040
1020
1720
28A0
3050
0030
ENDCHAR
STARTCHAR 2605
ENCODING 8538
SWIDTH 1800 0
DWIDTH 18 0
BBX 14 14 2 -2
BITMAP
0300
0300
0300
0780
FFFC
7FF8
3FF0
1FE0
0FC0
1FC0
1CE0
1860
3020
0010
ENDCHAR
STARTCHAR 25CB
ENCODING 8539
SWIDTH 1800 0
DWIDTH 18 0
BBX 16 15 1 -2
BITMAP
07E0
1818
300C
6002
4002
8001
8001
8001
8001
8001
4002
6002
3004
1818
07E0
ENDCHAR
STARTCHAR 25CF
ENCODING 8540
SWIDTH 1800 0
DWIDTH 18 0
BBX 14 15 2 -2
BITMAP
0FC0
1FF0
3FF8
7FF8
FFFC
FFFC
FFFC
FFFC
FFFC
FFFC
FFFC
7FF8
3FF8
1FF0
0FC0
ENDCHAR
STARTCHAR 25CE
ENCODING 8541
SWIDTH 1800 0
DWIDTH 18 0
BBX 16 15 1 -2
BITMAP
07E0
1818
300C
63C6
4C32
8811
9009
9009
9009
9009
8812
4C32
23C4
1008
0C30
ENDCHAR
STARTCHAR 25C7
ENCODING 8542
SWIDTH 1800 0
DWIDTH 18 0
BBX 16 17 1 -3
BITMAP
0080
0180
0240
0420
0810
1008
2004
4002
8001
8002
4004
2008
1010
0820
0440
0280
0100
ENDCHAR
STARTCHAR 25C6
ENCODING 8543
SWIDTH 1800 0
DWIDTH 18 0
BBX 16 16 1 -2
BITMAP
0080
0180
03C0
07E0
0FF0
1FF8
3FFC
7FFE
FFFF
7FFE
3FFC
1FF8
0FF0
07E0
03C0
0180
ENDCHAR
STARTCHAR 25A1
ENCODING 8544
SWIDTH 1800 0
DWIDTH 18 0
BBX 14 15 2 -2
BITMAP
FFFC
8004
8004
8004
8004
8004
8004
8004
8004
8004
8004
8004
8004
8004
FFFC
ENDCHAR
STARTCHAR 25A0
ENCODING 8545
SWIDTH 1800 0
DWIDTH 18 0
BBX 14 14 2 -2
BITMAP
FFFC
FFFC
FFFC
FFFC
FFFC
FFFC
FFFC
FFFC
FFFC
FFFC
FFFC
FFFC
FFFC
FFFC
ENDCHAR
STARTCHAR 25B3
ENCODING 8546
SWIDTH 1800 0
DWIDTH 18 0
BBX 16 13 1 -1
BITMAP
0100
0280
0240
0440
0420
0820
1010
1008
2008
4004
4004
8002
FFFF
ENDCHAR
STARTCHAR 25B2
ENCODING 8547
SWIDTH 1800 0
DWIDTH 18 0
BBX 16 12 1 -1
BITMAP
0180
01C0
03C0
07E0
07E0
0FF0
1FF8
1FF8
3FFC
3FFC
7FFE
FFFF
ENDCHAR
STARTCHAR 25BD
ENCODING 8548
SWIDTH 1800 0
DWIDTH 18 0
BBX 16 13 1 -1
BITMAP
FFFF
8002
4004
4004
2008
1008
1010
0820
0820
0440
0280
0280
0100
ENDCHAR
STARTCHAR 25BC
ENCODING 8549
SWIDTH 1800 0
DWIDTH 18 0
BBX 16 12 1 0
BITMAP
FFFF
7FFE
3FFC
3FFC
1FF8
1FF8
0FF0
07E0
07E0
03C0
01C0
0180
ENDCHAR
STARTCHAR 2192
ENCODING 8550
SWIDTH 1800 0
DWIDTH 18 0
BBX 16 5 1 3
BITMAP
0008
0006
FFFF
0006
0008
ENDCHAR
STARTCHAR 2190
ENCODING 8551
SWIDTH 1800 0
DWIDTH 18 0
BBX 16 3 1 4
BITMAP
2000
FFFF
2000
ENDCHAR
STARTCHAR 2191
ENCODING 8552
SWIDTH 1800 0
DWIDTH 18 0
BBX 5 17 6 -3
BITMAP
20
20
70
A8
20
20
20
20
20
20
20
20
20
20
20
20
20
ENDCHAR
STARTCHAR 2193
ENCODING 8553
SWIDTH 1800 0
DWIDTH 18 0
BBX 5 17 7 -3
BITMAP
20
20
20
20
20
20
20
20
20
20
20
20
20
A8
70
20
20
ENDCHAR
STARTCHAR 2194
ENCODING 8554
SWIDTH 1800 0
DWIDTH 18 0
BBX 14 5 2 3
BITMAP
4010
4008
FFFC
4008
0010
ENDCHAR
STARTCHAR 3013
ENCODING 8555
SWIDTH 1800 0
DWIDTH 18 0
BBX 12 4 3 3
BITMAP
FFF0
0000
0000
FFF0
ENDCHAR
STARTCHAR 226A
ENCODING 8556
SWIDTH 1800 0
DWIDTH 18 0
BBX 14 13 2 -1
BITMAP
0040
0188
0230
0C40
1180
2200
CC00
4200
3100
08C0
0620
0118
00C4
ENDCHAR
STARTCHAR 226B
ENCODING 8557
SWIDTH 1800 0
DWIDTH 18 0
BBX 14 13 2 -1
BITMAP
8800
4600
3100
08C0
0420
0310
008C
0108
0230
0C40
1180
6200
8C00
ENDCHAR
STARTCHAR 221A
ENCODING 8558
SWIDTH 1800 0
DWIDTH 18 0
BBX 15 16 2 -2
BITMAP
00FE
0100
0100
0200
0200
0200
0400
0400
0800
0800
C800
5000
5000
2000
2000
2000
ENDCHAR
STARTCHAR 223D
ENCODING 8559
SWIDTH 1800 0
DWIDTH 18 0
BBX 15 7 2 2
BITMAP
3C38
40C4
8082
8102
8202
4204
3C38
ENDCHAR
STARTCHAR 221D
ENCODING 8560
SWIDTH 1800 0
DWIDTH 18 0
BBX 13 7 2 2
BITMAP
3C38
42C0
8180
8100
4180
4280
3C78
ENDCHAR
STARTCHAR 2235
ENCODING 8561
SWIDTH 1800 0
DWIDTH 18 0
BBX 10 9 4 1
BITMAP
C0C0
C0C0
0000
0000
0000
0000
0000
0C00
0C00
ENDCHAR
STARTCHAR 222B
ENCODING 8562
SWIDTH 1800 0
DWIDTH 18 0
BBX 4 16 7 -3
BITMAP
70
A0
80
80
40
40
40
60
20
20
20
20
10
20
60
E0
ENDCHAR
STARTCHAR 222C
ENCODING 8563
SWIDTH 1800 0
DWIDTH 18 0
BBX 8 16 5 -3
BITMAP
63
AC
84
84
84
C4
46
42
62
23
21
21
21
21
A6
C4
ENDCHAR
STARTCHAR 2208
ENCODING 8564
SWIDTH 1800 0
DWIDTH 18 0
BBX 13 10 2 0
BITMAP
1FF8
2000
4000
8000
7FF8
8000
4000
4000
2000
1FF8
ENDCHAR
STARTCHAR 220B
ENCODING 8565
SWIDTH 1800 0
DWIDTH 18 0
BBX 12 11 3 0
BITMAP
FFC0
0020
0010
0010
0010
FFF0
0010
0010
0010
0020
FFC0
ENDCHAR
STARTCHAR 2286
ENCODING 8566
SWIDTH 1800 0
DWIDTH 18 0
BBX 12 11 3 0
BITMAP
1FF0
6000
8000
8000
8000
8000
4000
3FF0
0000
0000
FFF0
ENDCHAR
STARTCHAR 2287
ENCODING 8567
SWIDTH 1800 0
DWIDTH 18 0
BBX 12 11 3 0
BITMAP
FFC0
0020
0010
0010
0010
0010
0020
FFC0
0000
0000
FFE0
ENDCHAR
STARTCHAR 2282
ENCODING 8568
SWIDTH 1800 0
DWIDTH 18 0
BBX 13 11 2 0
BITMAP
1FF8
3000
4000
4000
8000
8000
8000
4000
4000
2000
1FF8
ENDCHAR
STARTCHAR 2283
ENCODING 8569
SWIDTH 1800 0
DWIDTH 18 0
BBX 13 10 2 0
BITMAP
FFE0
0010
0008
0008
0008
0008
0008
0008
0010
FFE0
ENDCHAR
STARTCHAR 222A
ENCODING 8570
SWIDTH 1800 0
DWIDTH 18 0
BBX 10 13 4 -1
BITMAP
8040
8040
8040
8040
8040
8040
8040
8040
8040
8040
4080
6180
1E00
ENDCHAR
STARTCHAR 2229
ENCODING 8571
SWIDTH 1800 0
DWIDTH 18 0
BBX 10 13 4 -1
BITMAP
1E00
6180
4080
8040
8040
8040
8040
8040
8040
8040
8040
8040
8040
ENDCHAR
STARTCHAR 2227
ENCODING 8572
SWIDTH 1800 0
DWIDTH 18 0
BBX 12 10 3 0
BITMAP
0600
0A00
0900
1100
1080
2040
2040
4020
8020
8010
ENDCHAR
STARTCHAR 2228
ENCODING 8573
SWIDTH 1800 0
DWIDTH 18 0
BBX 12 11 3 0
BITMAP
8010
8020
4020
4040
2040
2080
1080
1100
0900
0A00
0600
ENDCHAR
STARTCHAR FFE2
ENCODING 8574
SWIDTH 1800 0
DWIDTH 18 0
BBX 12 6 3 2
BITMAP
FFF0
0010
0010
0010
0010
0010
ENDCHAR
STARTCHAR 21D2
ENCODING 8737
SWIDTH 1800 0
DWIDTH 18 0
BBX 16 8 1 2
BITMAP
0010
0008
FFFC
0002
0001
0002
FFFC
0008
ENDCHAR
STARTCHAR 21D4
ENCODING 8738
SWIDTH 1800 0
DWIDTH 18 0
BBX 15 9 1 1
BITMAP
0010
1808
1FFC
6002
8002
4004
3FF8
1010
0800
ENDCHAR
STARTCHAR 2200
ENCODING 8739
SWIDTH 1800 0
DWIDTH 18 0
BBX 12 13 3 -1
BITMAP
8010
8020
4020
4020
3FC0
2040
2080
1080
1100
1100
0900
0A00
0600
ENDCHAR
STARTCHAR 2203
ENCODING 8740
SWIDTH 1800 0
DWIDTH 18 0
BBX 9 13 5 -1
BITMAP
FF80
0080
0080
0080
0080
0080
FF80
0080
0080
0080
0080
0080
FF80
ENDCHAR
STARTCHAR 00B4
ENCODING 8741
SWIDTH 1800 0
DWIDTH 18 0
BBX 3 2 7 12
BITMAP
60
80
ENDCHAR
STARTCHAR FF5E
ENCODING 8742
SWIDTH 1800 0
DWIDTH 18 0
BBX 6 2 6 11
BITMAP
F0
3C
ENDCHAR
STARTCHAR 02C7
ENCODING 8743
SWIDTH 1800 0
DWIDTH 18 0
BBX 6 2 6 12
BITMAP
84
78
ENDCHAR
STARTCHAR 02D8
ENCODING 8744
SWIDTH 1800 0
DWIDTH 18 0
BBX 6 2 6 11
BITMAP
84
78
ENDCHAR
STARTCHAR 02DD
ENCODING 8745
SWIDTH 1800 0
DWIDTH 18 0
BBX 5 2 6 12
BITMAP
48
80
ENDCHAR
STARTCHAR 02DA
ENCODING 8746
SWIDTH 1800 0
DWIDTH 18 0
BBX 4 4 7 10
BITMAP
60
90
A0
40
ENDCHAR
STARTCHAR 02D9
ENCODING 8747
SWIDTH 1800 0
DWIDTH 18 0
BBX 2 2 8 12
BITMAP
C0
C0
ENDCHAR
STARTCHAR 00B8
ENCODING 8748
SWIDTH 1800 0
DWIDTH 18 0
BBX 2 3 9 -3
BITMAP
80
C0
80
ENDCHAR
STARTCHAR 02DB
ENCODING 8749
SWIDTH 1800 0
DWIDTH 18 0
BBX 3 3 7 -3
BITMAP
40
80
60
ENDCHAR
STARTCHAR 00A1
ENCODING 8750
SWIDTH 1800 0
DWIDTH 18 0
BBX 2 13 8 -1
BITMAP
C0
C0
00
00
00
80
80
80
80
C0
C0
C0
C0
ENDCHAR
STARTCHAR 00BF
ENCODING 8751
SWIDTH 1800 0
DWIDTH 18 0
BBX 6 13 6 -1
BITMAP
18
18
00
00
08
08
38
60
C0
80
80
84
7C
ENDCHAR
STARTCHAR 02D0
ENCODING 8752
SWIDTH 1800 0
DWIDTH 18 0
BBX 2 8 8 1
BITMAP
C0
C0
00
00
00
00
C0
C0
ENDCHAR
STARTCHAR 222E
ENCODING 8753
SWIDTH 1800 0
DWIDTH 18 0
BBX 7 15 5 -2
BITMAP
06
08
10
10
10
10
78
58
58
30
10
20
20
20
C0
ENDCHAR
STARTCHAR 2211
ENCODING 8754
SWIDTH 1800 0
DWIDTH 18 0
BBX 15 15 1 -2
BITMAP
FFFE
6006
3006
1C02
0E02
0302
0180
0080
0100
0200
0402
1802
2002
3FFE
7FFE
ENDCHAR
STARTCHAR 220F
ENCODING 8755
SWIDTH 1800 0
DWIDTH 18 0
BBX 14 15 2 -2
BITMAP
FFFC
3030
3030
3030
3030
3030
3030
3030
3030
3030
3030
3030
3030
3030
FCFC
ENDCHAR
STARTCHAR 00A4
ENCODING 8756
SWIDTH 1800 0
DWIDTH 18 0
BBX 12 12 3 -1
BITMAP
9F20
60C0
4040
8020
8020
8020
8020
8020
4040
20C0
5F20
8010
ENDCHAR
STARTCHAR 2109
ENCODING 8757
SWIDTH 1800 0
DWIDTH 18 0
BBX 14 12 2 0
BITMAP
E3FC
2200
A200
4200
0200
03F8
0200
0200
0200
0200
0200
0200
ENDCHAR
STARTCHAR 2030
ENCODING 8758
SWIDTH 1800 0
DWIDTH 18 0
BBX 16 17 1 -3
BITMAP
3800
6410
4420
4440
4480
4480
4500
2A00
15C0
066E
0A29
1229
2229
2229
4229
814A
0084
ENDCHAR
STARTCHAR 25C1
ENCODING 8759
SWIDTH 1800 0
DWIDTH 18 0
BBX 12 15 3 -2
BITMAP
0010
0030
00D0
0110
0610
1810
2010
C010
6010
1010
0C10
0210
0190
0050
0030
ENDCHAR
STARTCHAR 25C0
ENCODING 8760
SWIDTH 1800 0
DWIDTH 18 0
BBX 11 14 4 -2
BITMAP
0020
00E0
01E0
07E0
1FE0
3FE0
FFE0
FFE0
3FE0
1FE0
07E0
01E0
00E0
0020
ENDCHAR
STARTCHAR 25B7
ENCODING 8761
SWIDTH 1800 0
DWIDTH 18 0
BBX 11 14 3 -2
BITMAP
8000
E000
9000
8C00
8200
8180
8060
8040
8080
8300
8400
9800
E000
8000
ENDCHAR
STARTCHAR 25B6
ENCODING 8762
SWIDTH 1800 0
DWIDTH 18 0
BBX 11 14 3 -2
BITMAP
8000
E000
F000
FC00
FF00
FF80
FFE0
FFE0
FF80
FF00
FC00
F000
E000
8000
ENDCHAR
STARTCHAR 2664
ENCODING 8763
SWIDTH 1800 0
DWIDTH 18 0
BBX 12 15 3 -3
BITMAP
0600
0900
1980
10C0
2040
4020
C030
8010
8010
8010
8F30
76C0
0B00
0900
0F00
ENDCHAR
STARTCHAR 2660
ENCODING 8764
SWIDTH 1800 0
DWIDTH 18 0
BBX 12 15 3 -3
BITMAP
0600
0F00
1F80
1FC0
3FC0
7FE0
7FF0
FFF0
FFF0
FFF0
FDF0
F6F0
0600
0F00
0F00
ENDCHAR
STARTCHAR 2661
ENCODING 8765
SWIDTH 1800 0
DWIDTH 18 0
BBX 12 14 3 -2
BITMAP
79E0
CF30
8610
8610
8010
8010
C030
4020
6060
3040
1080
0980
0F00
0600
ENDCHAR
STARTCHAR 2665
ENCODING 8766
SWIDTH 1800 0
DWIDTH 18 0
BBX 14 16 2 -3
BITMAP
3870
7CF8
FFFC
FFFC
FFFC
FFFC
FFFC
7FF8
7FF8
3FF0
1FF0
1FE0
0FC0
0780
0380
0300
ENDCHAR
STARTCHAR 2667
ENCODING 8767
SWIDTH 1800 0
DWIDTH 18 0
BBX 15 16 2 -2
BITMAP
0380
07C0
0C60
0820
0820
0840
0498
7EFC
C4C6
8002
8002
8282
CEE4
3298
0680
0780
ENDCHAR
STARTCHAR 2663
ENCODING 8768
SWIDTH 1800 0
DWIDTH 18 0
BBX 16 16 1 -3
BITMAP
03C0
07E0
07E0
0FE0
07E0
07E0
3BDC
7FFE
FFFF
FFFF
FF7E
7DBE
399C
0180
03C0
03C0
ENDCHAR
STARTCHAR 2299
ENCODING 8769
SWIDTH 1800 0
DWIDTH 18 0
BBX 16 15 1 -2
BITMAP
0FE0
1018
2004
47E2
8FF2
8FF9
9FF9
9FF9
9FF9
9FF9
4FF2
67E6
300C
1818
07E0
ENDCHAR
STARTCHAR 25C8
ENCODING 8770
SWIDTH 1800 0
DWIDTH 18 0
BBX 16 17 1 -3
BITMAP
0080
0180
0240
05A0
0BD0
17E8
2FF4
5FFA
BFFD
5FFA
2FF4
17E8
0BD0
05A0
0240
0180
0080
ENDCHAR
STARTCHAR 25A3
ENCODING 8771
SWIDTH 1800 0
DWIDTH 18 0
BBX 14 15 2 -2
BITMAP
FFFC
8004
8004
8004
9FE4
9FE4
9FE4
9FE4
9FE4
9FE4
9FE4
8004
8004
8004
FFFC
ENDCHAR
STARTCHAR 25D0
ENCODING 8772
SWIDTH 1800 0
DWIDTH 18 0
BBX 15 15 2 -2
BITMAP
07C0
1E30
3E08
7E04
7E04
FE02
FE02
FE02
FE02
FE02
7E04
7E0C
3E18
1E30
07C0
ENDCHAR
STARTCHAR 25D1
ENCODING 8773
SWIDTH 1800 0
DWIDTH 18 0
BBX 15 15 1 -2
BITMAP
07C0
18F0
20F8
40FC
40FC
80FE
80FE
80FE
80FE
80FE
40FC
40FC
20F8
10F0
0EC0
ENDCHAR
STARTCHAR 2592
ENCODING 8774
SWIDTH 1800 0
DWIDTH 18 0
BBX 14 15 2 -2
BITMAP
FFFC
A52C
8004
D294
A52C
D294
A52C
8004
D294
A52C
D294
8004
A52C
D294
FFFC
ENDCHAR
STARTCHAR 25A4
ENCODING 8775
SWIDTH 1800 0
DWIDTH 18 0
BBX 14 15 2 -2
BITMAP
FFFC
8004
8004
8004
FFFC
8004
8004
FFFC
8004
8004
8004
FFFC
8004
8004
FFFC
ENDCHAR
STARTCHAR 25A5
ENCODING 8776
SWIDTH 1800 0
DWIDTH 18 0
BBX 14 15 2 -2
BITMAP
FFFC
9224
9224
9224
9224
9224
9224
9224
9224
9224
9224
9224
9224
9224
FFFC
ENDCHAR
STARTCHAR 25A8
ENCODING 8777
SWIDTH 1800 0
DWIDTH 18 0
BBX 15 15 1 -2
BITMAP
7FFE
4106
420A
4412
4822
5042
6082
4102
420E
4412
4822
5042
6082
8102
7FFE
ENDCHAR
STARTCHAR 25A7
ENCODING 8778
SWIDTH 1800 0
DWIDTH 18 0
BBX 14 15 2 -2
BITMAP
FFFC
C204
A104
9084
8844
8424
8214
C10C
A084
9044
8824
8414
820C
8104
FFFC
ENDCHAR
STARTCHAR 25A6
ENCODING 8779
SWIDTH 1800 0
DWIDTH 18 0
BBX 14 15 2 -2
BITMAP
FFFC
9224
9224
9224
FFFC
9224
9224
FFFC
9224
9224
9224
FFFC
9224
9224
FFFC
ENDCHAR
STARTCHAR 25A9
ENCODING 8780
SWIDTH 1800 0
DWIDTH 18 0
BBX 14 15 2 -2
BITMAP
FFFC
C304
AC9C
9064
9064
E894
850C
8204
C51C
A8A4
9044
A864
C494
830C
FFFC
ENDCHAR
STARTCHAR 2668
ENCODING 8781
SWIDTH 1800 0
DWIDTH 18 0
BBX 14 14 2 -2
BITMAP
0940
0B40
0A40
1A40
0B40
0B60
0960
0D70
496C
8944
8A84
C21C
7FF8
1FC0
ENDCHAR
STARTCHAR 260F
ENCODING 8782
SWIDTH 1800 0
DWIDTH 18 0
BBX 17 13 0 -1
BITMAP
03F000
1C0E00
6DF900
4E3480
8DF480
761B80
0C0C00
140C00
140A00
240A00
221100
41E100
3E1E00
ENDCHAR
STARTCHAR 260E
ENCODING 8783
SWIDTH 1800 0
DWIDTH 18 0
BBX 16 12 1 0
BITMAP
07E0
3FFC
F7EE
F42F
F7EF
8C30
1818
3818
381C
381C
7C3E
7FFE
ENDCHAR
STARTCHAR 261C
ENCODING 8784
SWIDTH 1800 0
DWIDTH 18 0
BBX 18 7 0 2
BITMAP
3FFC00
C0E3C0
7F7140
0BB140
046940
03A140
01FE80
ENDCHAR
STARTCHAR 261E
ENCODING 8785
SWIDTH 1800 0
DWIDTH 18 0
BBX 18 7 0 2
BITMAP
07FF00
F8E0C0
A1D780
A3B400
A14800
A1F000
5FE000
ENDCHAR
STARTCHAR 00B6
ENCODING 8786
SWIDTH 1800 0
DWIDTH 18 0
BBX 10 16 4 -3
BITMAP
0E40
7240
4240
8240
C240
4240
7E40
0E40
0240
0240
0240
0240
0240
0240
0240
0240
ENDCHAR
STARTCHAR 2020
ENCODING 8787
SWIDTH 1800 0
DWIDTH 18 0
BBX 9 17 5 -3
BITMAP
0800
0800
0800
0800
0800
FF80
0800
0800
0800
0800
0800
0800
0800
0800
0800
0800
0800
ENDCHAR
STARTCHAR 2021
ENCODING 8788
SWIDTH 1800 0
DWIDTH 18 0
BBX 9 17 4 -3
BITMAP
0800
0800
0800
FF80
0800
0800
FF80
0800
0800
0800
0800
0800
0800
0800
0800
0800
0800
ENDCHAR
STARTCHAR 2195
ENCODING 8789
SWIDTH 1800 0
DWIDTH 18 0
BBX 6 15 5 -2
BITMAP
10
38
54
10
10
10
10
10
10
10
10
90
54
38
10
ENDCHAR
STARTCHAR 2197
ENCODING 8790
SWIDTH 1800 0
DWIDTH 18 0
BBX 10 10 4 1
BITMAP
03C0
0040
01C0
0200
0400
0800
1000
2000
4000
8000
ENDCHAR
STARTCHAR 2199
ENCODING 8791
SWIDTH 1800 0
DWIDTH 18 0
BBX 9 10 4 0
BITMAP
0080
0100
0200
0400
0800
1000
2000
C000
8000
F000
ENDCHAR
STARTCHAR 2196
ENCODING 8792
SWIDTH 1800 0
DWIDTH 18 0
BBX 10 11 4 0
BITMAP
E000
8000
C000
2000
1000
0800
0400
0200
0100
0080
0040
ENDCHAR
STARTCHAR 2198
ENCODING 8793
SWIDTH 1800 0
DWIDTH 18 0
BBX 10 10 4 0
BITMAP
8000
4000
2000
1000
0800
0400
0200
0140
00C0
03C0
ENDCHAR
STARTCHAR 266D
ENCODING 8794
SWIDTH 1800 0
DWIDTH 18 0
BBX 6 12 6 -1
BITMAP
80
80
80
80
F8
8C
8C
8C
98
98
B0
C0
ENDCHAR
STARTCHAR 2669
ENCODING 8795
SWIDTH 1800 0
DWIDTH 18 0
BBX 4 15 7 -2
BITMAP
10
10
10
10
10
10
10
10
10
10
10
10
70
E0
C0
ENDCHAR
STARTCHAR 266A
ENCODING 8796
SWIDTH 1800 0
DWIDTH 18 0
BBX 9 15 5 -2
BITMAP
1000
1800
1C00
1600
1300
1180
1080
1080
1080
1100
1000
1000
7000
E000
C000
ENDCHAR
STARTCHAR 266C
ENCODING 8797
SWIDTH 1800 0
DWIDTH 18 0
BBX 12 13 3 -1
BITMAP
1FF0
1010
1010
1FF0
1010
1010
1010
1010
1010
1010
70F0
E0E0
C0C0
ENDCHAR
STARTCHAR 327F
ENCODING 8798
SWIDTH 1800 0
DWIDTH 18 0
BBX 14 15 2 -2
BITMAP
0FC0
3030
6018
484C
8884
8900
8A00
EF3C
0904
0884
88C4
4848
6018
3870
0FC0
ENDCHAR
STARTCHAR 321C
ENCODING 8799
SWIDTH 1800 0
DWIDTH 18 0
BBX 18 14 0 -2
BITMAP
27FA00
40C100
40C080
812080
861880
800040
800040
8FFE40
804080
804080
404080
404100
204200
104000
ENDCHAR
STARTCHAR 2116
ENCODING 8800
SWIDTH 1800 0
DWIDTH 18 0
BBX 18 13 0 0
BITMAP
810000
C10000
C10000
A10000
911E00
912100
894080
894080
854080
854080
834080
812100
811E40
ENDCHAR
STARTCHAR 33C7
ENCODING 8801
SWIDTH 1800 0
DWIDTH 18 0
BBX 16 15 1 -1
BITMAP
3800
4400
8200
8200
8200
8038
8044
8082
8082
8082
8282
8282
4484
3845
0038
ENDCHAR
STARTCHAR 2122
ENCODING 8802
SWIDTH 1800 0
DWIDTH 18 0
BBX 16 13 1 0
BITMAP
FE81
10C3
10C3
10C3
10C5
10A5
10A5
10A5
10A5
1099
1099
1099
1099
ENDCHAR
STARTCHAR 33C2
ENCODING 8803
SWIDTH 1800 0
DWIDTH 18 0
BBX 18 9 0 0
BITMAP
787F00
884900
884900
084900
784900
884900
884900
884900
754940
ENDCHAR
STARTCHAR 33D8
ENCODING 8804
SWIDTH 1800 0
DWIDTH 18 0
BBX 16 12 1 -3
BITMAP
78FE
CC92
8492
8492
8492
8492
8492
C892
B293
8000
8000
8000
ENDCHAR
STARTCHAR 2121
ENCODING 8805
SWIDTH 1800 0
DWIDTH 18 0
BBX 14 14 2 0
BITMAP
0004
FE04
1004
1004
1004
11C4
1224
1224
1414
17F4
1404
1414
1224
11C0
ENDCHAR
STARTCHAR FF01
ENCODING 8993
SWIDTH 1800 0
DWIDTH 18 0
BBX 1 12 8 0
BITMAP
80
80
80
80
80
80
80
80
80
00
00
80
ENDCHAR
STARTCHAR FF02
ENCODING 8994
SWIDTH 1800 0
DWIDTH 18 0
BBX 6 4 6 10
BITMAP
6C
48
90
10
ENDCHAR
STARTCHAR FF03
ENCODING 8995
SWIDTH 1800 0
DWIDTH 18 0
BBX 12 13 3 0
BITMAP
0240
0440
0440
0480
7FF0
0880
0900
1100
FFE0
1200
2200
2200
2400
ENDCHAR
STARTCHAR FF04
ENCODING 8996
SWIDTH 1800 0
DWIDTH 18 0
BBX 9 15 4 -1
BITMAP
0800
1C00
6B00
4900
4800
4800
2800
1E00
0B00
0980
C880
4880
6900
1E00
0800
ENDCHAR
STARTCHAR FF05
ENCODING 8997
SWIDTH 1800 0
DWIDTH 18 0
BBX 14 13 2 0
BITMAP
0020
7840
8440
8480
8500
7900
0200
0278
0484
0484
0884
08CC
1078
ENDCHAR
STARTCHAR FF06
ENCODING 8998
SWIDTH 1800 0
DWIDTH 18 0
BBX 10 13 4 0
BITMAP
1C00
2200
2200
2200
2400
1800
6800
CC80
8680
8280
8100
C380
7CC0
ENDCHAR
STARTCHAR FF07
ENCODING 8999
SWIDTH 1800 0
DWIDTH 18 0
BBX 2 3 8 11
BITMAP
C0
C0
80
ENDCHAR
STARTCHAR FF08
ENCODING 9000
SWIDTH 1800 0
DWIDTH 18 0
BBX 4 15 7 -3
BITMAP
20
40
40
40
C0
80
80
80
80
C0
40
40
40
20
10
ENDCHAR
STARTCHAR FF09
ENCODING 9001
SWIDTH 1800 0
DWIDTH 18 0
BBX 4 15 7 -3
BITMAP
40
40
20
20
30
10
10
10
10
10
20
20
40
40
80
ENDCHAR
STARTCHAR FF0A
ENCODING 9002
SWIDTH 1800 0
DWIDTH 18 0
BBX 7 7 6 2
BITMAP
10
10
D6
38
38
28
44
ENDCHAR
STARTCHAR FF0B
ENCODING 9003
SWIDTH 1800 0
DWIDTH 18 0
BBX 13 12 2 -1
BITMAP
0200
0200
0200
0200
0200
FFF8
0200
0200
0200
0200
0200
0200
ENDCHAR
STARTCHAR FF0C
ENCODING 9004
SWIDTH 1800 0
DWIDTH 18 0
BBX 1 4 3 -3
BITMAP
80
80
80
80
ENDCHAR
STARTCHAR FF0D
ENCODING 9005
SWIDTH 1800 0
DWIDTH 18 0
BBX 12 1 3 5
BITMAP
FFF0
ENDCHAR
STARTCHAR FF0E
ENCODING 9006
SWIDTH 1800 0
DWIDTH 18 0
BBX 1 2 4 0
BITMAP
80
80
ENDCHAR
STARTCHAR FF0F
ENCODING 9007
SWIDTH 1800 0
DWIDTH 18 0
BBX 16 15 1 -2
BITMAP
0001
0002
0004
0008
0010
0020
00C0
0180
0300
0400
0800
1000
2000
4000
8000
ENDCHAR
STARTCHAR FF10
ENCODING 9008
SWIDTH 1800 0
DWIDTH 18 0
BBX 8 13 5 0
BITMAP
3C
66
42
81
81
81
81
81
81
81
42
62
3C
ENDCHAR
STARTCHAR FF11
ENCODING 9009
SWIDTH 1800 0
DWIDTH 18 0
BBX 4 13 7 0
BITMAP
10
10
30
F0
10
10
10
10
10
10
10
10
10
ENDCHAR
STARTCHAR FF12
ENCODING 9010
SWIDTH 1800 0
DWIDTH 18 0
BBX 8 13 5 0
BITMAP
3C
62
41
C1
01
03
06
1C
30
60
40
80
FF
ENDCHAR
STARTCHAR FF13
ENCODING 9011
SWIDTH 1800 0
DWIDTH 18 0
BBX 8 13 5 0
BITMAP
3C
66
43
C1
03
02
1C
02
01
81
81
C3
7E
ENDCHAR
STARTCHAR FF14
ENCODING 9012
SWIDTH 1800 0
DWIDTH 18 0
BBX 8 13 5 0
BITMAP
04
0C
1C
14
34
24
44
C4
84
FF
04
04
04
ENDCHAR
STARTCHAR FF15
ENCODING 9013
SWIDTH 1800 0
DWIDTH 18 0
BBX 8 12 5 0
BITMAP
7E
40
40
40
7C
C2
01
01
01
81
42
3C
ENDCHAR
STARTCHAR FF16
ENCODING 9014
SWIDTH 1800 0
DWIDTH 18 0
BBX 8 13 5 0
BITMAP
3C
62
43
80
80
BC
C2
81
81
81
81
42
3C
ENDCHAR
STARTCHAR FF17
ENCODING 9015
SWIDTH 1800 0
DWIDTH 18 0
BBX 8 12 5 0
BITMAP
FF
02
04
04
08
08
10
10
10
20
20
20
ENDCHAR
STARTCHAR FF18
ENCODING 9016
SWIDTH 1800 0
DWIDTH 18 0
BBX 8 13 5 0
BITMAP
3C
77
41
41
41
22
7E
43
81
81
81
43
3C
ENDCHAR
STARTCHAR FF19
ENCODING 9017
SWIDTH 1800 0
DWIDTH 18 0
BBX 8 13 5 0
BITMAP
3C
66
81
81
81
81
43
7D
01
01
82
46
3C
ENDCHAR
STARTCHAR FF1A
ENCODING 9018
SWIDTH 1800 0
DWIDTH 18 0
BBX 1 9 8 0
BITMAP
80
80
00
00
00
00
00
80
80
ENDCHAR
STARTCHAR FF1B
ENCODING 9019
SWIDTH 1800 0
DWIDTH 18 0
BBX 1 11 8 -2
BITMAP
80
80
00
00
00
00
00
80
80
80
80
ENDCHAR
STARTCHAR FF1C
ENCODING 9020
SWIDTH 1800 0
DWIDTH 18 0
BBX 11 12 4 -1
BITMAP
0060
0080
0300
0C00
3000
C000
C000
3000
0C00
0200
0180
0060
ENDCHAR
STARTCHAR FF1D
ENCODING 9021
SWIDTH 1800 0
DWIDTH 18 0
BBX 14 5 2 3
BITMAP
FFFC
0000
0000
0000
FFFC
ENDCHAR
STARTCHAR FF1E
ENCODING 9022
SWIDTH 1800 0
DWIDTH 18 0
BBX 11 12 3 -1
BITMAP
C000
2000
1800
0600
0180
0060
0060
0180
0200
0C00
3000
C000
ENDCHAR
STARTCHAR FF1F
ENCODING 9023
SWIDTH 1800 0
DWIDTH 18 0
BBX 8 13 5 0
BITMAP
3C
62
C1
81
03
02
04
08
08
10
00
00
10
ENDCHAR
STARTCHAR FF20
ENCODING 9024
SWIDTH 1800 0
DWIDTH 18 0
BBX 14 13 2 -1
BITMAP
0FC0
3030
6018
4F0C
98C4
9044
9044
9044
98C8
4F50
6020
3030
0FC0
ENDCHAR
STARTCHAR FF21
ENCODING 9025
SWIDTH 1800 0
DWIDTH 18 0
BBX 10 13 4 0
BITMAP
0C00
0C00
0E00
1200
1200
3100
2100
2100
7F80
4080
4080
8040
8040
ENDCHAR
STARTCHAR FF22
ENCODING 9026
SWIDTH 1800 0
DWIDTH 18 0
BBX 10 13 4 0
BITMAP
FF00
8180
8180
8180
8180
8100
FF80
80C0
8040
8040
8040
8080
FF00
ENDCHAR
STARTCHAR FF23
ENCODING 9027
SWIDTH 1800 0
DWIDTH 18 0
BBX 11 13 4 0
BITMAP
1F00
2080
4040
C060
8000
8000
8000
8000
8000
C060
4040
2080
1F00
ENDCHAR
STARTCHAR FF24
ENCODING 9028
SWIDTH 1800 0
DWIDTH 18 0
BBX 10 13 4 0
BITMAP
FC00
8700
8180
80C0
8040
8040
8040
8040
8040
80C0
8080
8180
FE00
ENDCHAR
STARTCHAR FF25
ENCODING 9029
SWIDTH 1800 0
DWIDTH 18 0
BBX 8 13 5 0
BITMAP
FF
80
80
80
80
80
FE
80
80
80
80
80
FF
ENDCHAR
STARTCHAR FF26
ENCODING 9030
SWIDTH 1800 0
DWIDTH 18 0
BBX 8 12 5 0
BITMAP
FF
80
80
80
80
FE
80
80
80
80
80
80
ENDCHAR
STARTCHAR FF27
ENCODING 9031
SWIDTH 1800 0
DWIDTH 18 0
BBX 11 13 3 0
BITMAP
1F00
30C0
4040
C060
8000
8000
83E0
8020
8020
4020
6060
31A0
1F20
ENDCHAR
STARTCHAR FF28
ENCODING 9032
SWIDTH 1800 0
DWIDTH 18 0
BBX 10 12 4 0
BITMAP
8040
8040
8040
8040
8040
FFC0
8040
8040
8040
8040
8040
8040
ENDCHAR
STARTCHAR FF29
ENCODING 9033
SWIDTH 1800 0
DWIDTH 18 0
BBX 1 12 8 0
BITMAP
80
80
80
80
80
80
80
80
80
80
80
80
ENDCHAR
STARTCHAR FF2A
ENCODING 9034
SWIDTH 1800 0
DWIDTH 18 0
BBX 7 13 5 0
BITMAP
02
02
02
02
02
02
02
02
02
C2
42
46
3C
ENDCHAR
STARTCHAR FF2B
ENCODING 9035
SWIDTH 1800 0
DWIDTH 18 0
BBX 9 13 4 0
BITMAP
8100
8200
8600
8C00
9800
B000
E800
CC00
8400
8200
8300
8180
8080
ENDCHAR
STARTCHAR FF2C
ENCODING 9036
SWIDTH 1800 0
DWIDTH 18 0
BBX 8 13 5 0
BITMAP
80
80
80
80
80
80
80
80
80
80
80
80
FF
ENDCHAR
STARTCHAR FF2D
ENCODING 9037
SWIDTH 1800 0
DWIDTH 18 0
BBX 12 13 3 0
BITMAP
C030
C030
E030
A050
A050
90D0
9090
9090
8910
8910
8D10
8610
8610
ENDCHAR
STARTCHAR FF2E
ENCODING 9038
SWIDTH 1800 0
DWIDTH 18 0
BBX 10 13 4 0
BITMAP
C040
E040
A040
B040
9040
8840
8C40
8440
8240
8340
8140
80C0
80C0
ENDCHAR
STARTCHAR FF2F
ENCODING 9039
SWIDTH 1800 0
DWIDTH 18 0
BBX 12 13 3 0
BITMAP
0F80
3040
2020
4020
4010
4010
C010
4010
4010
4030
6020
3040
1F80
ENDCHAR
STARTCHAR FF30
ENCODING 9040
SWIDTH 1800 0
DWIDTH 18 0
BBX 9 12 5 0
BITMAP
FF00
8100
8180
8180
8100
8700
F800
8000
8000
8000
8000
8000
ENDCHAR
STARTCHAR FF31
ENCODING 9041
SWIDTH 1800 0
DWIDTH 18 0
BBX 12 14 3 -1
BITMAP
1F80
30C0
4060
4020
8010
8010
8010
8010
8010
4030
4120
20C0
1FE0
0030
ENDCHAR
STARTCHAR FF32
ENCODING 9042
SWIDTH 1800 0
DWIDTH 18 0
BBX 9 13 4 0
BITMAP
FF00
8180
8080
8080
8080
8100
FE00
8100
8100
8180
8180
8180
8080
ENDCHAR
STARTCHAR FF33
ENCODING 9043
SWIDTH 1800 0
DWIDTH 18 0
BBX 9 13 4 0
BITMAP
1E00
2100
4080
4080
4000
3000
0E00
0100
0080
8080
4080
6100
3E00
ENDCHAR
STARTCHAR FF34
ENCODING 9044
SWIDTH 1800 0
DWIDTH 18 0
BBX 9 12 4 0
BITMAP
FF80
0800
0800
0800
0800
0800
0800
0800
0800
0800
0800
0800
ENDCHAR
STARTCHAR FF35
ENCODING 9045
SWIDTH 1800 0
DWIDTH 18 0
BBX 10 13 4 0
BITMAP
8040
8040
8040
8040
8040
8040
8040
8040
8040
8040
C0C0
6180
3F00
ENDCHAR
STARTCHAR FF36
ENCODING 9046
SWIDTH 1800 0
DWIDTH 18 0
BBX 10 13 4 0
BITMAP
8040
4080
4080
4080
6100
2100
2100
3200
1200
1200
1C00
0C00
0C00
ENDCHAR
STARTCHAR FF37
ENCODING 9047
SWIDTH 1800 0
DWIDTH 18 0
BBX 14 13 2 0
BITMAP
8304
8304
8304
8584
4488
4488
4488
48C8
2850
2850
2850
3030
1020
ENDCHAR
STARTCHAR FF38
ENCODING 9048
SWIDTH 1800 0
DWIDTH 18 0
BBX 10 13 4 0
BITMAP
4080
4080
2100
1200
1200
0C00
0C00
0C00
1200
3300
2100
4080
C0C0
ENDCHAR
STARTCHAR FF39
ENCODING 9049
SWIDTH 1800 0
DWIDTH 18 0
BBX 9 13 4 0
BITMAP
8080
4180
4100
2200
3200
1400
0800
0800
0800
0800
0800
0800
0800
ENDCHAR
STARTCHAR FF3A
ENCODING 9050
SWIDTH 1800 0
DWIDTH 18 0
BBX 10 13 4 0
BITMAP
7FC0
0080
0100
0300
0200
0400
0C00
1800
1000
2000
6000
4000
FFC0
ENDCHAR
STARTCHAR FF3B
ENCODING 9051
SWIDTH 1800 0
DWIDTH 18 0
BBX 4 17 7 -3
BITMAP
E0
80
80
80
80
80
80
80
80
80
80
80
80
80
80
80
F0
ENDCHAR
STARTCHAR FFE6
ENCODING 9052
SWIDTH 1800 0
DWIDTH 18 0
BBX 18 13 0 0
BITMAP
20C180
20C100
20C100
214100
FFFFC0
112200
112200
FFFFC0
1A1400
0A1400
0A1400
0C1400
040800
ENDCHAR
STARTCHAR FF3D
ENCODING 9053
SWIDTH 1800 0
DWIDTH 18 0
BBX 3 17 7 -3
BITMAP
E0
20
20
20
20
20
20
20
20
20
20
20
20
20
20
20
E0
ENDCHAR
STARTCHAR FF3E
ENCODING 9054
SWIDTH 1800 0
DWIDTH 18 0
BBX 6 3 6 11
BITMAP
30
48
84
ENDCHAR
STARTCHAR FF3F
ENCODING 9055
SWIDTH 1800 0
DWIDTH 18 0
BBX 18 1 0 -3
BITMAP
FFFFC0
ENDCHAR
STARTCHAR FF40
ENCODING 9056
SWIDTH 1800 0
DWIDTH 18 0
BBX 3 4 7 10
BITMAP
C0
40
40
20
ENDCHAR
STARTCHAR FF41
ENCODING 9057
SWIDTH 1800 0
DWIDTH 18 0
BBX 8 9 5 0
BITMAP
3C
46
82
02
7E
82
82
86
7B
ENDCHAR
STARTCHAR FF42
ENCODING 9058
SWIDTH 1800 0
DWIDTH 18 0
BBX 8 12 5 0
BITMAP
80
80
80
9C
E2
81
81
81
81
81
C2
BC
ENDCHAR
STARTCHAR FF43
ENCODING 9059
SWIDTH 1800 0
DWIDTH 18 0
BBX 8 9 5 0
BITMAP
3C
42
C1
80
80
80
C1
42
3C
ENDCHAR
STARTCHAR FF44
ENCODING 9060
SWIDTH 1800 0
DWIDTH 18 0
BBX 8 12 5 0
BITMAP
01
01
01
39
47
81
81
81
81
81
43
3D
ENDCHAR
STARTCHAR FF45
ENCODING 9061
SWIDTH 1800 0
DWIDTH 18 0
BBX 8 9 5 0
BITMAP
3C
42
C1
81
FF
80
81
42
3C
ENDCHAR
STARTCHAR FF46
ENCODING 9062
SWIDTH 1800 0
DWIDTH 18 0
BBX 4 13 7 0
BITMAP
30
40
40
40
F0
40
40
40
40
40
40
40
40
ENDCHAR
STARTCHAR FF47
ENCODING 9063
SWIDTH 1800 0
DWIDTH 18 0
BBX 8 12 5 -3
BITMAP
3D
43
81
81
81
81
81
43
3D
01
C2
7C
ENDCHAR
STARTCHAR FF48
ENCODING 9064
SWIDTH 1800 0
DWIDTH 18 0
BBX 6 12 6 0
BITMAP
80
80
80
B8
C4
84
84
84
84
84
84
84
ENDCHAR
STARTCHAR FF49
ENCODING 9065
SWIDTH 1800 0
DWIDTH 18 0
BBX 1 13 8 0
BITMAP
80
80
00
00
80
80
80
80
80
80
80
80
80
ENDCHAR
STARTCHAR FF4A
ENCODING 9066
SWIDTH 1800 0
DWIDTH 18 0
BBX 3 16 7 -3
BITMAP
20
20
00
00
20
20
20
20
20
20
20
20
20
20
20
E0
ENDCHAR
STARTCHAR FF4B
ENCODING 9067
SWIDTH 1800 0
DWIDTH 18 0
BBX 7 13 5 0
BITMAP
80
80
80
80
8C
98
B0
F0
D0
88
8C
84
82
ENDCHAR
STARTCHAR FF4C
ENCODING 9068
SWIDTH 1800 0
DWIDTH 18 0
BBX 1 13 8 0
BITMAP
80
80
80
80
80
80
80
80
80
80
80
80
80
ENDCHAR
STARTCHAR FF4D
ENCODING 9069
SWIDTH 1800 0
DWIDTH 18 0
BBX 12 9 3 0
BITMAP
BDE0
C610
8410
8410
8410
8410
8410
8410
8410
ENDCHAR
STARTCHAR FF4E
ENCODING 9070
SWIDTH 1800 0
DWIDTH 18 0
BBX 7 9 6 0
BITMAP
BC
C2
82
82
82
82
82
82
82
ENDCHAR
STARTCHAR FF4F
ENCODING 9071
SWIDTH 1800 0
DWIDTH 18 0
BBX 8 9 5 0
BITMAP
3C
42
81
81
81
81
81
42
3C
ENDCHAR
STARTCHAR FF50
ENCODING 9072
SWIDTH 1800 0
DWIDTH 18 0
BBX 8 12 5 -3
BITMAP
BC
C2
81
81
81
81
81
C2
BC
80
80
80
ENDCHAR
STARTCHAR FF51
ENCODING 9073
SWIDTH 1800 0
DWIDTH 18 0
BBX 8 12 5 -3
BITMAP
7D
C3
81
81
81
81
81
43
3D
01
01
01
ENDCHAR
STARTCHAR FF52
ENCODING 9074
SWIDTH 1800 0
DWIDTH 18 0
BBX 4 9 7 0
BITMAP
B0
C0
80
80
80
80
80
80
80
ENDCHAR
STARTCHAR FF53
ENCODING 9075
SWIDTH 1800 0
DWIDTH 18 0
BBX 6 9 6 0
BITMAP
78
84
84
80
78
0C
84
84
FC
ENDCHAR
STARTCHAR FF54
ENCODING 9076
SWIDTH 1800 0
DWIDTH 18 0
BBX 4 12 7 0
BITMAP
40
40
40
F0
40
40
40
40
40
40
40
70
ENDCHAR
STARTCHAR FF55
ENCODING 9077
SWIDTH 1800 0
DWIDTH 18 0
BBX 7 9 5 0
BITMAP
82
82
82
82
82
82
82
86
7A
ENDCHAR
STARTCHAR FF56
ENCODING 9078
SWIDTH 1800 0
DWIDTH 18 0
BBX 8 9 5 0
BITMAP
81
42
42
42
24
24
24
18
18
ENDCHAR
STARTCHAR FF57
ENCODING 9079
SWIDTH 1800 0
DWIDTH 18 0
BBX 12 9 3 0
BITMAP
8610
8610
4620
4920
4920
2940
2940
30C0
1080
ENDCHAR
STARTCHAR FF58
ENCODING 9080
SWIDTH 1800 0
DWIDTH 18 0
BBX 8 9 5 0
BITMAP
42
46
24
18
18
18
24
42
83
ENDCHAR
STARTCHAR FF59
ENCODING 9081
SWIDTH 1800 0
DWIDTH 18 0
BBX 8 12 5 -3
BITMAP
81
42
42
42
24
24
14
18
18
10
10
60
ENDCHAR
STARTCHAR FF5A
ENCODING 9082
SWIDTH 1800 0
DWIDTH 18 0
BBX 8 9 5 0
BITMAP
7E
02
04
08
10
10
20
40
FF
ENDCHAR
STARTCHAR FF5B
ENCODING 9083
SWIDTH 1800 0
DWIDTH 18 0
BBX 3 16 7 -3
BITMAP
20
20
60
60
60
60
40
40
C0
40
60
60
60
60
20
20
ENDCHAR
STARTCHAR FF5C
ENCODING 9084
SWIDTH 1800 0
DWIDTH 18 0
BBX 1 17 9 -3
BITMAP
80
80
80
80
80
80
80
80
80
80
80
80
80
80
80
80
80
ENDCHAR
STARTCHAR FF5D
ENCODING 9085
SWIDTH 1800 0
DWIDTH 18 0
BBX 4 17 7 -3
BITMAP
80
40
40
40
40
40
40
40
30
60
40
40
40
40
40
40
80
ENDCHAR
STARTCHAR FFE3
ENCODING 9086
SWIDTH 1800 0
DWIDTH 18 0
BBX 8 1 5 13
BITMAP
FF
ENDCHAR
STARTCHAR 3131
ENCODING 9249
SWIDTH 1800 0
DWIDTH 18 0
BBX 11 9 4 1
BITMAP
FFE0
0020
0020
0020
0020
0020
0020
0020
0020
ENDCHAR
STARTCHAR 3132
ENCODING 9250
SWIDTH 1800 0
DWIDTH 18 0
BBX 13 9 2 0
BITMAP
FDF8
0408
0408
0408
0408
0408
0408
0408
0008
ENDCHAR
STARTCHAR 3133
ENCODING 9251
SWIDTH 1800 0
DWIDTH 18 0
BBX 14 9 2 1
BITMAP
FC20
0420
0420
0420
0450
0450
0448
048C
0504
ENDCHAR
STARTCHAR 3134
ENCODING 9252
SWIDTH 1800 0
DWIDTH 18 0
BBX 11 8 3 2
BITMAP
8000
8000
8000
8000
8000
8000
8000
FFE0
ENDCHAR
STARTCHAR 3135
ENCODING 9253
SWIDTH 1800 0
DWIDTH 18 0
BBX 13 9 2 1
BITMAP
81F8
8040
8060
8060
8060
8090
8090
8908
F200
ENDCHAR
STARTCHAR 3136
ENCODING 9254
SWIDTH 1800 0
DWIDTH 18 0
BBX 14 10 2 0
BITMAP
80F0
8000
83FC
8000
80F0
8108
8108
8108
FD98
00F0
ENDCHAR
STARTCHAR 3137
ENCODING 9255
SWIDTH 1800 0
DWIDTH 18 0
BBX 11 7 3 3
BITMAP
FFE0
8000
8000
8000
8000
8000
FFE0
ENDCHAR
STARTCHAR 3138
ENCODING 9256
SWIDTH 1800 0
DWIDTH 18 0
BBX 13 9 2 1
BITMAP
F9F8
8100
8100
8100
8100
8100
8100
FD00
01F8
ENDCHAR
STARTCHAR 3139
ENCODING 9257
SWIDTH 1800 0
DWIDTH 18 0
BBX 12 9 3 1
BITMAP
FFE0
0020
0020
0020
7FE0
4000
4000
4000
7FF0
ENDCHAR
STARTCHAR 313A
ENCODING 9258
SWIDTH 1800 0
DWIDTH 18 0
BBX 14 9 2 1
BITMAP
FCFC
0404
0404
0404
7C04
4004
4004
4304
7E04
ENDCHAR
STARTCHAR 313B
ENCODING 9259
SWIDTH 1800 0
DWIDTH 18 0
BBX 13 10 2 0
BITMAP
FCF8
0488
0488
0488
7C88
4088
4088
4088
4EF8
7080
ENDCHAR
STARTCHAR 313C
ENCODING 9260
SWIDTH 1800 0
DWIDTH 18 0
BBX 13 9 2 1
BITMAP
7C88
0488
0488
04F8
FC88
8088
8088
8088
FCF8
ENDCHAR
STARTCHAR 313D
ENCODING 9261
SWIDTH 1800 0
DWIDTH 18 0
BBX 14 9 2 1
BITMAP
FC20
0420
0420
0420
FC50
8050
8048
8088
FD04
ENDCHAR
STARTCHAR 313E
ENCODING 9262
SWIDTH 1800 0
DWIDTH 18 0
BBX 14 10 2 0
BITMAP
FCFC
0480
0480
0480
FCF8
8080
8080
8080
9CFC
6000
ENDCHAR
STARTCHAR 313F
ENCODING 9263
SWIDTH 1800 0
DWIDTH 18 0
BBX 14 10 2 0
BITMAP
F9FC
0800
0810
0890
F890
8090
8090
8090
BBFC
C000
ENDCHAR
STARTCHAR 3140
ENCODING 9264
SWIDTH 1800 0
DWIDTH 18 0
BBX 14 10 2 0
BITMAP
F8F0
0800
0BFC
0800
F8F0
8198
8108
8108
BD08
40F0
ENDCHAR
STARTCHAR 3141
ENCODING 9265
SWIDTH 1800 0
DWIDTH 18 0
BBX 10 9 4 1
BITMAP
FFC0
8040
8040
8040
8040
8040
8040
FFC0
8040
ENDCHAR
STARTCHAR 3142
ENCODING 9266
SWIDTH 1800 0
DWIDTH 18 0
BBX 10 9 4 1
BITMAP
8040
8040
8040
FFC0
8040
8040
8040
FFC0
8040
ENDCHAR
STARTCHAR 3143
ENCODING 9267
SWIDTH 1800 0
DWIDTH 18 0
BBX 13 9 2 1
BITMAP
8488
8488
8488
FCF8
8488
8488
8488
8488
FCF8
ENDCHAR
STARTCHAR 3144
ENCODING 9268
SWIDTH 1800 0
DWIDTH 18 0
BBX 14 9 2 1
BITMAP
8420
8420
8420
FC20
8450
8450
8448
848C
FD04
ENDCHAR
STARTCHAR 3145
ENCODING 9269
SWIDTH 1800 0
DWIDTH 18 0
BBX 14 10 2 0
BITMAP
0200
0300
0300
0300
0300
0480
0840
1020
6010
C00C
ENDCHAR
STARTCHAR 3146
ENCODING 9270
SWIDTH 1800 0
DWIDTH 18 0
BBX 12 9 3 1
BITMAP
1080
1080
1080
1080
30C0
2940
4120
8230
0410
ENDCHAR
STARTCHAR 3147
ENCODING 9271
SWIDTH 1800 0
DWIDTH 18 0
BBX 10 9 4 1
BITMAP
3F00
6180
8040
8040
8040
8040
8040
6180
3F00
ENDCHAR
STARTCHAR 3148
ENCODING 9272
SWIDTH 1800 0
DWIDTH 18 0
BBX 12 9 3 1
BITMAP
FFE0
0400
0600
0600
0900
1080
30C0
6060
8010
ENDCHAR
STARTCHAR 3149
ENCODING 9273
SWIDTH 1800 0
DWIDTH 18 0
BBX 12 9 3 1
BITMAP
FBE0
2080
3080
3080
3140
4940
4620
8630
0400
ENDCHAR
STARTCHAR 314A
ENCODING 9274
SWIDTH 1800 0
DWIDTH 18 0
BBX 12 10 3 1
BITMAP
1F80
0000
0000
FFF0
0600
0600
0900
1880
2060
C010
ENDCHAR
STARTCHAR 314B
ENCODING 9275
SWIDTH 1800 0
DWIDTH 18 0
BBX 12 9 3 1
BITMAP
7FF0
0010
0010
0010
FF90
0010
0010
0020
0020
ENDCHAR
STARTCHAR 314C
ENCODING 9276
SWIDTH 1800 0
DWIDTH 18 0
BBX 11 9 4 1
BITMAP
FFE0
8000
8000
8000
FFE0
8000
8000
8000
FFE0
ENDCHAR
STARTCHAR 314D
ENCODING 9277
SWIDTH 1800 0
DWIDTH 18 0
BBX 12 9 3 1
BITMAP
FFF0
0000
0000
2040
2040
1080
1080
1080
FFF0
ENDCHAR
STARTCHAR 314E
ENCODING 9278
SWIDTH 1800 0
DWIDTH 18 0
BBX 12 11 3 0
BITMAP
1F80
0000
0000
FFF0
0000
1F80
30C0
2040
2040
30C0
1F80
ENDCHAR
STARTCHAR 314F
ENCODING 9279
SWIDTH 1800 0
DWIDTH 18 0
BBX 5 15 6 -2
BITMAP
80
80
80
80
80
80
80
F8
80
80
80
80
80
80
80
ENDCHAR
STARTCHAR 3150
ENCODING 9280
SWIDTH 1800 0
DWIDTH 18 0
BBX 6 16 6 -3
BITMAP
84
84
84
84
84
84
84
FC
84
84
84
84
84
84
84
04
ENDCHAR
STARTCHAR 3151
ENCODING 9281
SWIDTH 1800 0
DWIDTH 18 0
BBX 5 15 6 -2
BITMAP
80
80
80
80
80
F8
80
80
80
80
F8
80
80
80
80
ENDCHAR
STARTCHAR 3152
ENCODING 9282
SWIDTH 1800 0
DWIDTH 18 0
BBX 6 16 6 -3
BITMAP
84
84
84
84
FC
84
84
84
FC
84
84
84
84
84
04
04
ENDCHAR
STARTCHAR 3153
ENCODING 9283
SWIDTH 1800 0
DWIDTH 18 0
BBX 6 15 6 -2
BITMAP
04
04
04
04
04
04
FC
04
04
04
04
04
04
04
04
ENDCHAR
STARTCHAR 3154
ENCODING 9284
SWIDTH 1800 0
DWIDTH 18 0
BBX 8 15 5 -2
BITMAP
09
09
09
09
09
09
F9
09
09
09
09
09
09
09
01
ENDCHAR
STARTCHAR 3155
ENCODING 9285
SWIDTH 1800 0
DWIDTH 18 0
BBX 7 15 5 -2
BITMAP
02
02
02
02
FE
02
02
02
02
FE
02
02
02
02
02
ENDCHAR
STARTCHAR 3156
ENCODING 9286
SWIDTH 1800 0
DWIDTH 18 0
BBX 8 15 5 -2
BITMAP
09
09
09
09
F9
09
09
09
09
F9
09
09
09
09
01
ENDCHAR
STARTCHAR 3157
ENCODING 9287
SWIDTH 1800 0
DWIDTH 18 0
BBX 15 8 1 2
BITMAP
0100
0100
0100
0100
0100
0100
0100
FFFE
ENDCHAR
STARTCHAR 3158
ENCODING 9288
SWIDTH 1800 0
DWIDTH 18 0
BBX 15 15 1 -2
BITMAP
0010
0010
0010
0410
0410
0410
0410
041E
0410
04F0
FF10
0010
0010
0010
0010
ENDCHAR
STARTCHAR 3159
ENCODING 9289
SWIDTH 1800 0
DWIDTH 18 0
BBX 13 16 3 -2
BITMAP
0008
0088
0088
0088
1088
1088
1088
1088
10F8
1088
1F88
E088
0088
0088
0088
0008
ENDCHAR
STARTCHAR 315A
ENCODING 9290
SWIDTH 1800 0
DWIDTH 18 0
BBX 12 16 3 -2
BITMAP
0010
0010
0010
0010
0410
0410
0410
0410
0410
0410
04F0
FB10
0010
0010
0010
0010
ENDCHAR
STARTCHAR 315B
ENCODING 9291
SWIDTH 1800 0
DWIDTH 18 0
BBX 16 8 1 2
BITMAP
0C10
0410
0430
0430
0430
0430
0420
FFFF
ENDCHAR
STARTCHAR 315C
ENCODING 9292
SWIDTH 1800 0
DWIDTH 18 0
BBX 15 11 2 -2
BITMAP
FFFE
0100
0100
0100
0100
0100
0100
0100
0100
0100
0100
ENDCHAR
STARTCHAR 315D
ENCODING 9293
SWIDTH 1800 0
DWIDTH 18 0
BBX 14 15 2 -2
BITMAP
0004
0004
0004
0004
FFC4
0404
0404
047C
0404
0404
0404
0404
0404
0404
0004
ENDCHAR
STARTCHAR 315E
ENCODING 9294
SWIDTH 1800 0
DWIDTH 18 0
BBX 13 16 3 -2
BITMAP
0008
0048
0048
0048
0048
7E48
9048
1048
13C8
1048
1048
1048
1048
1048
0048
0008
ENDCHAR
STARTCHAR 315F
ENCODING 9295
SWIDTH 1800 0
DWIDTH 18 0
BBX 13 15 2 -2
BITMAP
0008
0008
0008
0008
0018
FFE8
0208
0208
0208
0208
0208
0208
0208
0008
0008
ENDCHAR
STARTCHAR 3160
ENCODING 9296
SWIDTH 1800 0
DWIDTH 18 0
BBX 14 11 2 -2
BITMAP
FFFC
0840
0840
0840
0840
0840
0840
0840
0840
0840
0840
ENDCHAR
STARTCHAR 3161
ENCODING 9297
SWIDTH 1800 0
DWIDTH 18 0
BBX 14 1 2 5
BITMAP
FFFC
ENDCHAR
STARTCHAR 3162
ENCODING 9298
SWIDTH 1800 0
DWIDTH 18 0
BBX 13 15 2 -2
BITMAP
0008
0008
0008
0008
0008
0008
0008
0008
01F8
FE08
0008
0008
0008
0008
0008
ENDCHAR
STARTCHAR 3163
ENCODING 9299
SWIDTH 1800 0
DWIDTH 18 0
BBX 1 16 8 -3
BITMAP
80
80
80
80
80
80
80
80
80
80
80
80
80
80
80
80
ENDCHAR
STARTCHAR 3164
ENCODING 9300
SWIDTH 1800 0
DWIDTH 18 0
BBX 0 0 0 0
BITMAP
ENDCHAR
STARTCHAR 3165
ENCODING 9301
SWIDTH 1800 0
DWIDTH 18 0
BBX 14 9 2 1
BITMAP
8100
8100
8100
8100
8100
8100
8100
9D00
E1FC
ENDCHAR
STARTCHAR 3166
ENCODING 9302
SWIDTH 1800 0
DWIDTH 18 0
BBX 14 9 2 1
BITMAP
81F8
8100
8100
8100
8100
8100
8100
9D00
61FC
ENDCHAR
STARTCHAR 3167
ENCODING 9303
SWIDTH 1800 0
DWIDTH 18 0
BBX 14 9 2 1
BITMAP
8020
8020
8020
8020
8050
8050
8048
8088
F904
ENDCHAR
STARTCHAR 3168
ENCODING 9304
SWIDTH 1800 0
DWIDTH 18 0
BBX 14 9 2 1
BITMAP
8000
8040
8060
80A0
8090
8110
8108
FD08
03FC
ENDCHAR
STARTCHAR 3169
ENCODING 9305
SWIDTH 1800 0
DWIDTH 18 0
BBX 14 10 2 0
BITMAP
FF10
1110
1110
1110
F130
8130
8128
8144
B944
4000
ENDCHAR
STARTCHAR 316A
ENCODING 9306
SWIDTH 1800 0
DWIDTH 18 0
BBX 14 9 2 1
BITMAP
7CFC
0480
0480
0480
FC80
8080
8080
8080
FCFC
ENDCHAR
STARTCHAR 316B
ENCODING 9307
SWIDTH 1800 0
DWIDTH 18 0
BBX 15 9 1 1
BITMAP
F248
1248
1248
13C8
7248
4254
4254
4256
7BE2
ENDCHAR
STARTCHAR 316C
ENCODING 9308
SWIDTH 1800 0
DWIDTH 18 0
BBX 14 9 2 1
BITMAP
FC20
0420
0450
0450
FC50
8088
8088
8088
FFFC
ENDCHAR
STARTCHAR 316D
ENCODING 9309
SWIDTH 1800 0
DWIDTH 18 0
BBX 15 9 1 1
BITMAP
FDFE
0400
0400
0478
7C84
4084
4084
40CC
7E78
ENDCHAR
STARTCHAR 316E
ENCODING 9310
SWIDTH 1800 0
DWIDTH 18 0
BBX 14 9 2 1
BITMAP
0004
FC84
8484
84FC
8484
8484
8484
FC84
84FC
ENDCHAR
STARTCHAR 316F
ENCODING 9311
SWIDTH 1800 0
DWIDTH 18 0
BBX 14 9 2 1
BITMAP
0020
F840
8860
8860
8860
8890
8898
FB0C
8800
ENDCHAR
STARTCHAR 3170
ENCODING 9312
SWIDTH 1800 0
DWIDTH 18 0
BBX 14 9 2 1
BITMAP
0020
FC20
8460
8450
8490
8488
8488
FD08
85FC
ENDCHAR
STARTCHAR 3171
ENCODING 9313
SWIDTH 1800 0
DWIDTH 18 0
BBX 8 13 5 -1
BITMAP
FF
81
81
81
81
FF
00
7E
C3
81
81
81
7E
ENDCHAR
STARTCHAR 3172
ENCODING 9314
SWIDTH 1800 0
DWIDTH 18 0
BBX 14 9 2 1
BITMAP
02FC
8204
8204
FE04
8204
8204
8204
8204
FE04
ENDCHAR
STARTCHAR 3173
ENCODING 9315
SWIDTH 1800 0
DWIDTH 18 0
BBX 14 9 2 1
BITMAP
0800
88FC
8880
F880
8880
8880
8880
8880
F8FC
ENDCHAR
STARTCHAR 3174
ENCODING 9316
SWIDTH 1800 0
DWIDTH 18 0
BBX 14 9 2 1
BITMAP
093C
8904
8904
F984
8984
8984
8A44
8A44
FC24
ENDCHAR
STARTCHAR 3175
ENCODING 9317
SWIDTH 1800 0
DWIDTH 18 0
BBX 14 9 2 1
BITMAP
923C
9220
9220
F220
9220
9520
9520
99A0
F8BC
ENDCHAR
STARTCHAR 3176
ENCODING 9318
SWIDTH 1800 0
DWIDTH 18 0
BBX 14 9 2 1
BITMAP
89FC
8820
8820
F860
8850
8850
8898
8908
FA04
ENDCHAR
STARTCHAR 3177
ENCODING 9319
SWIDTH 1800 0
DWIDTH 18 0
BBX 14 9 2 1
BITMAP
84FC
8480
8480
FC80
84FC
8480
8480
8480
FCFC
ENDCHAR
STARTCHAR 3178
ENCODING 9320
SWIDTH 1800 0
DWIDTH 18 0
BBX 8 15 5 -2
BITMAP
80
81
81
FF
81
81
FF
00
3C
66
81
81
81
82
64
ENDCHAR
STARTCHAR 3179
ENCODING 9321
SWIDTH 1800 0
DWIDTH 18 0
BBX 12 15 3 -2
BITMAP
8910
8910
F9F0
8910
8910
8910
F9F0
0000
0F00
1080
2040
2040
2040
10C0
0F00
ENDCHAR
STARTCHAR 317A
ENCODING 9322
SWIDTH 1800 0
DWIDTH 18 0
BBX 14 9 2 1
BITMAP
08FC
0804
0804
0804
1404
1404
2204
4104
8084
ENDCHAR
STARTCHAR 317B
ENCODING 9323
SWIDTH 1800 0
DWIDTH 18 0
BBX 14 9 2 1
BITMAP
1080
1080
1080
1080
3080
2880
4480
C680
82FC
ENDCHAR
STARTCHAR 317C
ENCODING 9324
SWIDTH 1800 0
DWIDTH 18 0
BBX 15 9 2 1
BITMAP
10FC
1080
1080
3080
3080
2880
4880
C480
82FE
ENDCHAR
STARTCHAR 317D
ENCODING 9325
SWIDTH 1800 0
DWIDTH 18 0
BBX 14 9 2 1
BITMAP
1084
1084
1084
10FC
3084
2884
2884
4484
82FC
ENDCHAR
STARTCHAR 317E
ENCODING 9326
SWIDTH 1800 0
DWIDTH 18 0
BBX 15 9 1 1
BITMAP
107E
1010
1018
1018
2818
2824
6464
44C2
8200
ENDCHAR
STARTCHAR 317F
ENCODING 9327
SWIDTH 1800 0
DWIDTH 18 0
BBX 12 10 3 1
BITMAP
0600
0600
0900
0900
1080
1080
2040
2040
4020
FFF0
ENDCHAR
STARTCHAR 3180
ENCODING 9328
SWIDTH 1800 0
DWIDTH 18 0
BBX 14 10 2 0
BITMAP
7830
C4CC
8484
8484
8704
8504
8484
8484
48C8
3030
ENDCHAR
STARTCHAR 3181
ENCODING 9329
SWIDTH 1800 0
DWIDTH 18 0
BBX 8 10 5 1
BITMAP
10
10
3C
42
81
81
81
81
42
3C
ENDCHAR
STARTCHAR 3182
ENCODING 9330
SWIDTH 1800 0
DWIDTH 18 0
BBX 14 10 2 1
BITMAP
2000
2020
5820
8820
8420
8450
8450
8488
C88C
7104
ENDCHAR
STARTCHAR 3183
ENCODING 9331
SWIDTH 1800 0
DWIDTH 18 0
BBX 14 10 2 1
BITMAP
2000
3000
5820
8460
8450
8490
8488
8508
4908
71FC
ENDCHAR
STARTCHAR 3184
ENCODING 9332
SWIDTH 1800 0
DWIDTH 18 0
BBX 12 14 3 -2
BITMAP
7FE0
0000
1080
1080
1080
FFF0
0000
0700
1880
2040
2040
2040
30C0
1F80
ENDCHAR
STARTCHAR 3185
ENCODING 9333
SWIDTH 1800 0
DWIDTH 18 0
BBX 16 11 1 0
BITMAP
3C00
003C
0000
FFFF
0000
3C3C
4246
4242
4242
4246
3C3C
ENDCHAR
STARTCHAR 3186
ENCODING 9334
SWIDTH 1800 0
DWIDTH 18 0
BBX 16 11 1 -1
BITMAP
FFFF
0000
0000
03C0
0420
0810
0810
0810
0810
0420
03C0
ENDCHAR
STARTCHAR 3187
ENCODING 9335
SWIDTH 1800 0
DWIDTH 18 0
BBX 16 15 1 -2
BITMAP
0008
0008
0008
1108
1108
110F
1108
1108
1108
1108
1FFF
F008
0008
0008
0008
ENDCHAR
STARTCHAR 3188
ENCODING 9336
SWIDTH 1800 0
DWIDTH 18 0
BBX 12 15 3 -2
BITMAP
0050
0050
0050
0050
2470
2450
2450
2450
2470
3FD0
C050
0050
0050
0050
0010
ENDCHAR
STARTCHAR 3189
ENCODING 9337
SWIDTH 1800 0
DWIDTH 18 0
BBX 12 15 3 -2
BITMAP
0010
0010
0010
1110
1110
1110
1110
1110
1110
1110
FFF0
8010
0010
0010
0010
ENDCHAR
STARTCHAR 318A
ENCODING 9338
SWIDTH 1800 0
DWIDTH 18 0
BBX 12 15 3 -2
BITMAP
0010
0010
0010
0010
FF90
1210
1270
1210
1210
1270
1210
1210
1210
0010
0010
ENDCHAR
STARTCHAR 318B
ENCODING 9339
SWIDTH 1800 0
DWIDTH 18 0
BBX 14 15 2 -2
BITMAP
0024
0024
0024
0024
03A4
FE24
12E4
1224
1224
12E4
1224
1224
0024
0024
0004
ENDCHAR
STARTCHAR 318C
ENCODING 9340
SWIDTH 1800 0
DWIDTH 18 0
BBX 12 15 3 -2
BITMAP
0010
0010
0010
0010
0010
FFF0
1110
1110
1110
1110
1110
1110
1110
0010
0010
ENDCHAR
STARTCHAR 318D
ENCODING 9341
SWIDTH 1800 0
DWIDTH 18 0
BBX 3 3 8 4
BITMAP
E0
E0
E0
ENDCHAR
STARTCHAR 318E
ENCODING 9342
SWIDTH 1800 0
DWIDTH 18 0
BBX 9 15 4 -2
BITMAP
0080
0080
0080
0080
0080
0080
E080
E080
E080
0080
0080
0080
0080
0080
0080
ENDCHAR
STARTCHAR 2170
ENCODING 9505
SWIDTH 1800 0
DWIDTH 18 0
BBX 2 13 8 0
BITMAP
C0
C0
00
00
00
80
80
80
80
80
80
80
80
ENDCHAR
STARTCHAR 2171
ENCODING 9506
SWIDTH 1800 0
DWIDTH 18 0
BBX 8 13 5 0
BITMAP
C3
C3
00
00
00
42
42
42
42
42
42
42
42
ENDCHAR
STARTCHAR 2172
ENCODING 9507
SWIDTH 1800 0
DWIDTH 18 0
BBX 10 13 4 0
BITMAP
CCC0
CCC0
0000
0000
0000
8840
8840
8840
8840
8840
8840
8840
8840
ENDCHAR
STARTCHAR 2173
ENCODING 9508
SWIDTH 1800 0
DWIDTH 18 0
BBX 10 13 4 0
BITMAP
C000
C000
0000
0000
0000
9840
8880
8880
8480
8500
8300
8300
8200
ENDCHAR
STARTCHAR 2174
ENCODING 9509
SWIDTH 1800 0
DWIDTH 18 0
BBX 6 8 6 1
BITMAP
84
84
84
48
48
48
30
30
ENDCHAR
STARTCHAR 2175
ENCODING 9510
SWIDTH 1800 0
DWIDTH 18 0
BBX 10 13 4 0
BITMAP
00C0
00C0
0000
0000
0000
8440
8840
4840
4840
5040
3040
3040
2040
ENDCHAR
STARTCHAR 2176
ENCODING 9511
SWIDTH 1800 0
DWIDTH 18 0
BBX 12 13 3 0
BITMAP
01B0
01B0
0000
0000
0000
8890
8890
8890
5090
5090
5090
2090
2090
ENDCHAR
STARTCHAR 2177
ENCODING 9512
SWIDTH 1800 0
DWIDTH 18 0
BBX 14 13 2 0
BITMAP
016C
016C
0000
0000
0000
8924
8924
4924
5124
5124
3124
2124
2124
ENDCHAR
STARTCHAR 2178
ENCODING 9513
SWIDTH 1800 0
DWIDTH 18 0
BBX 10 13 4 0
BITMAP
C000
C000
0000
0000
0000
8840
8C80
8580
8300
8300
8500
8480
88C0
ENDCHAR
STARTCHAR 2179
ENCODING 9514
SWIDTH 1800 0
DWIDTH 18 0
BBX 6 8 6 0
BITMAP
84
48
68
30
30
48
48
84
ENDCHAR
STARTCHAR 2160
ENCODING 9520
SWIDTH 1800 0
DWIDTH 18 0
BBX 1 13 8 0
BITMAP
80
80
80
80
80
80
80
80
80
80
80
80
80
ENDCHAR
STARTCHAR 2161
ENCODING 9521
SWIDTH 1800 0
DWIDTH 18 0
BBX 8 13 5 0
BITMAP
81
81
81
81
81
81
81
81
81
81
81
81
81
ENDCHAR
STARTCHAR 2162
ENCODING 9522
SWIDTH 1800 0
DWIDTH 18 0
BBX 10 13 4 0
BITMAP
8440
8440
8440
8440
8440
8440
8440
8440
8440
8440
8440
8440
8440
ENDCHAR
STARTCHAR 2163
ENCODING 9523
SWIDTH 1800 0
DWIDTH 18 0
BBX 10 13 4 0
BITMAP
9040
9040
9040
88C0
8880
8880
8880
8500
8500
8500
8300
8200
8200
ENDCHAR
STARTCHAR 2164
ENCODING 9524
SWIDTH 1800 0
DWIDTH 18 0
BBX 8 12 5 1
BITMAP
81
42
42
42
42
24
24
24
14
18
18
18
ENDCHAR
STARTCHAR 2165
ENCODING 9525
SWIDTH 1800 0
DWIDTH 18 0
BBX 10 13 4 0
BITMAP
8200
8240
8240
4440
4440
4440
2440
2840
2840
2840
1840
1040
1040
ENDCHAR
STARTCHAR 2166
ENCODING 9526
SWIDTH 1800 0
DWIDTH 18 0
BBX 13 13 3 0
BITMAP
8200
8488
8488
8488
4488
4888
4888
4888
2888
3088
3088
1088
1088
ENDCHAR
STARTCHAR 2167
ENCODING 9527
SWIDTH 1800 0
DWIDTH 18 0
BBX 14 13 2 0
BITMAP
8400
8524
8D24
4924
4924
4924
4924
5124
5124
3124
3124
2124
2124
ENDCHAR
STARTCHAR 2168
ENCODING 9528
SWIDTH 1800 0
DWIDTH 18 0
BBX 10 13 4 0
BITMAP
9040
88C0
8880
8480
8500
8700
8200
8300
8500
8580
8880
8880
9840
ENDCHAR
STARTCHAR 2169
ENCODING 9529
SWIDTH 1800 0
DWIDTH 18 0
BBX 6 13 6 0
BITMAP
84
84
C8
48
70
30
30
30
78
48
C8
84
84
ENDCHAR
STARTCHAR 0391
ENCODING 9537
SWIDTH 1800 0
DWIDTH 18 0
BBX 11 13 4 0
BITMAP
00C0
01C0
0340
0240
0440
0C40
0840
1040
3060
3FE0
4020
8020
8020
ENDCHAR
STARTCHAR 0392
ENCODING 9538
SWIDTH 1800 0
DWIDTH 18 0
BBX 11 13 4 0
BITMAP
1FC0
1040
1060
2040
2040
2080
7F00
4180
4080
C080
8080
8100
FE00
ENDCHAR
STARTCHAR 0393
ENCODING 9539
SWIDTH 1800 0
DWIDTH 18 0
BBX 10 13 4 0
BITMAP
1FC0
1000
1000
1000
2000
2000
2000
6000
4000
4000
C000
8000
8000
ENDCHAR
STARTCHAR 0394
ENCODING 9540
SWIDTH 1800 0
DWIDTH 18 0
BBX 11 13 4 0
BITMAP
00C0
01C0
02C0
04C0
04C0
08C0
1060
2060
2060
4060
8060
8060
FFE0
ENDCHAR
STARTCHAR 0395
ENCODING 9541
SWIDTH 1800 0
DWIDTH 18 0
BBX 11 13 4 0
BITMAP
1FE0
1000
1000
2000
2000
2000
7F00
4000
4000
C000
8000
8000
FE00
ENDCHAR
STARTCHAR 0396
ENCODING 9542
SWIDTH 1800 0
DWIDTH 18 0
BBX 12 13 3 0
BITMAP
1FF0
0030
0060
00C0
0180
0300
0600
0C00
1800
3000
6000
4000
FFC0
ENDCHAR
STARTCHAR 0397
ENCODING 9543
SWIDTH 1800 0
DWIDTH 18 0
BBX 12 13 3 0
BITMAP
1010
1010
1010
2030
2020
2020
7FE0
4040
4040
C040
8080
8080
8080
ENDCHAR
STARTCHAR 0398
ENCODING 9544
SWIDTH 1800 0
DWIDTH 18 0
BBX 10 13 4 0
BITMAP
0F00
3080
2040
4040
4040
8040
BF40
8040
8040
8080
8180
C300
7E00
ENDCHAR
STARTCHAR 0399
ENCODING 9545
SWIDTH 1800 0
DWIDTH 18 0
BBX 4 13 7 0
BITMAP
10
10
10
20
20
20
60
40
40
40
80
80
80
ENDCHAR
STARTCHAR 039A
ENCODING 9546
SWIDTH 1800 0
DWIDTH 18 0
BBX 12 13 3 0
BITMAP
0830
1040
1080
1300
3400
2800
3800
6800
4400
4200
4100
8180
80C0
ENDCHAR
STARTCHAR 039B
ENCODING 9547
SWIDTH 1800 0
DWIDTH 18 0
BBX 11 13 4 0
BITMAP
0180
0380
0280
04C0
0440
0840
1840
1040
2040
6060
4020
8020
8020
ENDCHAR
STARTCHAR 039C
ENCODING 9548
SWIDTH 1800 0
DWIDTH 18 0
BBX 17 13 0 0
BITMAP
0E0180
0E0380
1E0680
160500
160D00
360900
221300
223200
232200
434200
43C400
438400
830400
ENDCHAR
STARTCHAR 039D
ENCODING 9549
SWIDTH 1800 0
DWIDTH 18 0
BBX 14 13 2 0
BITMAP
0C04
0C08
1408
1208
1218
2210
2310
2130
6120
4120
40A0
40C0
80C0
ENDCHAR
STARTCHAR 039E
ENCODING 9550
SWIDTH 1800 0
DWIDTH 18 0
BBX 12 13 3 0
BITMAP
0FF0
0000
0000
0000
0000
0000
1FC0
0000
0000
0000
0000
0000
FF00
ENDCHAR
STARTCHAR 039F
ENCODING 9551
SWIDTH 1800 0
DWIDTH 18 0
BBX 10 13 4 0
BITMAP
0F00
1080
2040
4040
C040
8040
8040
8040
80C0
8080
8080
C100
7E00
ENDCHAR
STARTCHAR 03A0
ENCODING 9552
SWIDTH 1800 0
DWIDTH 18 0
BBX 12 13 3 0
BITMAP
1FF0
1010
1010
2020
2020
2020
6060
4040
4040
C040
8080
8080
8080
ENDCHAR
STARTCHAR 03A1
ENCODING 9553
SWIDTH 1800 0
DWIDTH 18 0
BBX 12 13 3 0
BITMAP
0FC0
0820
1030
1010
1030
3020
2060
3FC0
2000
4000
4000
4000
C000
ENDCHAR
STARTCHAR 03A3
ENCODING 9554
SWIDTH 1800 0
DWIDTH 18 0
BBX 12 13 3 0
BITMAP
0FF0
0800
0C00
0400
0200
0200
0200
0400
0800
1000
2000
4000
FF80
ENDCHAR
STARTCHAR 03A4
ENCODING 9555
SWIDTH 1800 0
DWIDTH 18 0
BBX 10 13 4 0
BITMAP
FFC0
0C00
0800
0800
0800
1000
1000
1000
2000
2000
2000
6000
4000
ENDCHAR
STARTCHAR 03A5
ENCODING 9556
SWIDTH 1800 0
DWIDTH 18 0
BBX 10 13 4 0
BITMAP
8040
8080
4100
4300
4200
2400
2800
3000
1000
2000
2000
2000
4000
ENDCHAR
STARTCHAR 03A6
ENCODING 9557
SWIDTH 1800 0
DWIDTH 18 0
BBX 12 13 3 0
BITMAP
0100
0FC0
3960
6210
C210
8210
8610
8410
8420
8C60
48C0
3F00
0800
ENDCHAR
STARTCHAR 03A7
ENCODING 9558
SWIDTH 1800 0
DWIDTH 18 0
BBX 12 13 3 0
BITMAP
3010
1020
1840
0880
0D00
0700
0600
0E00
0B00
1100
2180
4080
80C0
ENDCHAR
STARTCHAR 03A8
ENCODING 9559
SWIDTH 1800 0
DWIDTH 18 0
BBX 13 13 2 0
BITMAP
6108
4108
4218
4210
8210
8410
8420
4460
3F80
0800
0800
0800
1000
ENDCHAR
STARTCHAR 03A9
ENCODING 9560
SWIDTH 1800 0
DWIDTH 18 0
BBX 12 13 3 0
BITMAP
03C0
0C30
1010
3010
2010
2010
2010
2030
2020
30C0
1B00
1A00
F3C0
ENDCHAR
STARTCHAR 03B1
ENCODING 9569
SWIDTH 1800 0
DWIDTH 18 0
BBX 10 9 4 0
BITMAP
0EC0
3180
2080
4180
4100
C100
C300
4600
7A00
ENDCHAR
STARTCHAR 03B2
ENCODING 9570
SWIDTH 1800 0
DWIDTH 18 0
BBX 11 16 3 -3
BITMAP
03C0
0660
0420
0820
0840
1B80
1080
1040
1040
3040
2040
3080
4F00
4000
4000
8000
ENDCHAR
STARTCHAR 03B3
ENCODING 9571
SWIDTH 1800 0
DWIDTH 18 0
BBX 8 12 5 -3
BITMAP
81
82
84
44
48
50
50
60
60
40
40
40
ENDCHAR
STARTCHAR 03B4
ENCODING 9572
SWIDTH 1800 0
DWIDTH 18 0
BBX 10 13 4 0
BITMAP
0FC0
0C00
0400
0200
1F00
2100
4100
C100
8100
8100
8200
8600
7800
ENDCHAR
STARTCHAR 03B5
ENCODING 9573
SWIDTH 1800 0
DWIDTH 18 0
BBX 7 9 5 0
BITMAP
1E
30
20
20
3C
40
80
C0
7C
ENDCHAR
STARTCHAR 03B6
ENCODING 9574
SWIDTH 1800 0
DWIDTH 18 0
BBX 8 16 5 -3
BITMAP
1F
01
02
04
08
10
20
40
80
80
80
80
70
08
18
70
ENDCHAR
STARTCHAR 03B7
ENCODING 9575
SWIDTH 1800 0
DWIDTH 18 0
BBX 9 9 5 0
BITMAP
2600
3900
6180
4100
4100
C100
8200
8200
8200
ENDCHAR
STARTCHAR 03B8
ENCODING 9576
SWIDTH 1800 0
DWIDTH 18 0
BBX 8 14 5 -1
BITMAP
0E
11
21
61
41
41
FF
81
82
82
84
84
58
20
ENDCHAR
STARTCHAR 03B9
ENCODING 9577
SWIDTH 1800 0
DWIDTH 18 0
BBX 4 9 7 0
BITMAP
10
20
20
20
60
40
40
40
80
ENDCHAR
STARTCHAR 03BA
ENCODING 9578
SWIDTH 1800 0
DWIDTH 18 0
BBX 9 9 4 0
BITMAP
1080
1300
2600
2800
3000
4800
4400
4600
C300
ENDCHAR
STARTCHAR 03BB
ENCODING 9579
SWIDTH 1800 0
DWIDTH 18 0
BBX 8 13 5 0
BITMAP
04
04
04
06
06
06
0A
12
12
22
23
41
81
ENDCHAR
STARTCHAR 03BC
ENCODING 9580
SWIDTH 1800 0
DWIDTH 18 0
BBX 10 12 4 -3
BITMAP
1040
1040
10C0
2080
2080
2180
6100
5300
5D00
C000
8000
8000
ENDCHAR
STARTCHAR 03BD
ENCODING 9581
SWIDTH 1800 0
DWIDTH 18 0
BBX 8 9 5 0
BITMAP
81
82
86
84
C8
48
50
70
60
ENDCHAR
STARTCHAR 03BE
ENCODING 9582
SWIDTH 1800 0
DWIDTH 18 0
BBX 10 16 4 -3
BITMAP
0FC0
0200
0C00
0800
1800
0E00
1C00
6000
4000
C000
C000
C000
7800
0C00
0C00
3800
ENDCHAR
STARTCHAR 03BF
ENCODING 9583
SWIDTH 1800 0
DWIDTH 18 0
BBX 8 9 5 0
BITMAP
1E
23
41
C1
81
83
82
86
FC
ENDCHAR
STARTCHAR 03C0
ENCODING 9584
SWIDTH 1800 0
DWIDTH 18 0
BBX 10 9 4 0
BITMAP
1FC0
1080
2080
2080
2100
4100
4100
4200
C200
ENDCHAR
STARTCHAR 03C1
ENCODING 9585
SWIDTH 1800 0
DWIDTH 18 0
BBX 10 12 4 -3
BITMAP
0F80
08C0
1040
1040
2040
2080
2080
7100
4E00
4000
4000
8000
ENDCHAR
STARTCHAR 03C3
ENCODING 9586
SWIDTH 1800 0
DWIDTH 18 0
BBX 10 9 4 0
BITMAP
1FC0
3100
6100
4100
C100
8100
8300
C200
7C00
ENDCHAR
STARTCHAR 03C4
ENCODING 9587
SWIDTH 1800 0
DWIDTH 18 0
BBX 8 9 5 0
BITMAP
FF
10
10
10
30
20
20
60
40
ENDCHAR
STARTCHAR 03C5
ENCODING 9588
SWIDTH 1800 0
DWIDTH 18 0
BBX 8 9 5 0
BITMAP
41
41
43
C2
82
82
84
8C
78
ENDCHAR
STARTCHAR 03C6
ENCODING 9589
SWIDTH 1800 0
DWIDTH 18 0
BBX 10 12 4 -3
BITMAP
13C0
6640
4440
8440
8C40
88C0
8880
8900
7E00
1000
1000
2000
ENDCHAR
STARTCHAR 03C7
ENCODING 9590
SWIDTH 1800 0
DWIDTH 18 0
BBX 8 9 5 0
BITMAP
21
22
14
1C
18
18
24
44
82
ENDCHAR
STARTCHAR 03C8
ENCODING 9591
SWIDTH 1800 0
DWIDTH 18 0
BBX 11 12 3 -3
BITMAP
6220
4220
4420
4460
8440
8C40
88C0
C980
7E00
1000
1000
1000
ENDCHAR
STARTCHAR 03C9
ENCODING 9592
SWIDTH 1800 0
DWIDTH 18 0
BBX 10 9 4 0
BITMAP
2040
6040
4440
8440
8840
8840
8880
9980
6700
ENDCHAR
STARTCHAR 2500
ENCODING 9761
SWIDTH 1800 0
DWIDTH 18 0
BBX 18 1 0 5
BITMAP
FFFFC0
ENDCHAR
STARTCHAR 2502
ENCODING 9762
SWIDTH 1800 0
DWIDTH 18 0
BBX 1 18 8 -4
BITMAP
80
80
80
80
80
80
80
80
80
80
80
80
80
80
80
80
80
80
ENDCHAR
STARTCHAR 250C
ENCODING 9763
SWIDTH 1800 0
DWIDTH 18 0
BBX 10 10 4 -4
BITMAP
FFC0
8000
8000
8000
8000
8000
8000
8000
8000
8000
ENDCHAR
STARTCHAR 2510
ENCODING 9764
SWIDTH 1800 0
DWIDTH 18 0
BBX 10 10 4 -4
BITMAP
FFC0
0040
0040
0040
0040
0040
0040
0040
0040
0040
ENDCHAR
STARTCHAR 2518
ENCODING 9765
SWIDTH 1800 0
DWIDTH 18 0
BBX 10 9 4 5
BITMAP
0040
0040
0040
0040
0040
0040
0040
0040
FFC0
ENDCHAR
STARTCHAR 2514
ENCODING 9766
SWIDTH 1800 0
DWIDTH 18 0
BBX 10 9 4 5
BITMAP
8000
8000
8000
8000
8000
8000
8000
8000
FFC0
ENDCHAR
STARTCHAR 251C
ENCODING 9767
SWIDTH 1800 0
DWIDTH 18 0
BBX 10 18 4 -4
BITMAP
8000
8000
8000
8000
8000
8000
8000
8000
FFC0
8000
8000
8000
8000
8000
8000
8000
8000
8000
ENDCHAR
STARTCHAR 252C
ENCODING 9768
SWIDTH 1800 0
DWIDTH 18 0
BBX 19 10 -1 -4
BITMAP
FFFFE0
004000
004000
004000
004000
004000
004000
004000
004000
004000
ENDCHAR
STARTCHAR 2524
ENCODING 9769
SWIDTH 1800 0
DWIDTH 18 0
BBX 10 18 4 -4
BITMAP
0040
0040
0040
0040
0040
0040
0040
0040
FFC0
0040
0040
0040
0040
0040
0040
0040
0040
0040
ENDCHAR
STARTCHAR 2534
ENCODING 9770
SWIDTH 1800 0
DWIDTH 18 0
BBX 19 9 -1 5
BITMAP
004000
004000
004000
004000
004000
004000
004000
004000
FFFFE0
ENDCHAR
STARTCHAR 253C
ENCODING 9771
SWIDTH 1800 0
DWIDTH 18 0
BBX 19 18 -1 -4
BITMAP
004000
004000
004000
004000
004000
004000
004000
004000
FFFFE0
004000
004000
004000
004000
004000
004000
004000
004000
004000
ENDCHAR
STARTCHAR 2501
ENCODING 9772
SWIDTH 1800 0
DWIDTH 18 0
BBX 18 1 0 5
BITMAP
FFFFC0
ENDCHAR
STARTCHAR 2503
ENCODING 9773
SWIDTH 1800 0
DWIDTH 18 0
BBX 1 18 8 -4
BITMAP
80
80
80
80
80
80
80
80
80
80
80
80
80
80
80
80
80
80
ENDCHAR
STARTCHAR 250F
ENCODING 9774
SWIDTH 1800 0
DWIDTH 18 0
BBX 9 10 4 -4
BITMAP
FF80
8000
8000
8000
8000
8000
8000
8000
8000
8000
ENDCHAR
STARTCHAR 2513
ENCODING 9775
SWIDTH 1800 0
DWIDTH 18 0
BBX 9 10 5 -4
BITMAP
FF80
0080
0080
0080
0080
0080
0080
0080
0080
0080
ENDCHAR
STARTCHAR 251B
ENCODING 9776
SWIDTH 1800 0
DWIDTH 18 0
BBX 9 9 5 5
BITMAP
0080
0080
0080
0080
0080
0080
0080
0080
FF80
ENDCHAR
STARTCHAR 2517
ENCODING 9777
SWIDTH 1800 0
DWIDTH 18 0
BBX 9 9 4 5
BITMAP
8000
8000
8000
8000
8000
8000
8000
8000
FF80
ENDCHAR
STARTCHAR 2523
ENCODING 9778
SWIDTH 1800 0
DWIDTH 18 0
BBX 9 18 4 -4
BITMAP
8000
8000
8000
8000
8000
8000
8000
8000
FF80
8000
8000
8000
8000
8000
8000
8000
8000
8000
ENDCHAR
STARTCHAR 2533
ENCODING 9779
SWIDTH 1800 0
DWIDTH 18 0
BBX 17 10 0 -4
BITMAP
FFFF80
008000
008000
008000
008000
008000
008000
008000
008000
008000
ENDCHAR
STARTCHAR 252B
ENCODING 9780
SWIDTH 1800 0
DWIDTH 18 0
BBX 9 18 5 -4
BITMAP
0080
0080
0080
0080
0080
0080
0080
0080
FF80
0080
0080
0080
0080
0080
0080
0080
0080
0080
ENDCHAR
STARTCHAR 253B
ENCODING 9781
SWIDTH 1800 0
DWIDTH 18 0
BBX 17 9 1 5
BITMAP
008000
008000
008000
008000
008000
008000
008000
008000
FFFF80
ENDCHAR
STARTCHAR 254B
ENCODING 9782
SWIDTH 1800 0
DWIDTH 18 0
BBX 17 18 1 -4
BITMAP
008000
008000
008000
008000
008000
008000
008000
008000
FFFF80
008000
008000
008000
008000
008000
008000
008000
008000
008000
ENDCHAR
STARTCHAR 2520
ENCODING 9783
SWIDTH 1800 0
DWIDTH 18 0
BBX 9 18 4 -4
BITMAP
8000
8000
8000
8000
8000
8000
8000
8000
FF80
8000
8000
8000
8000
8000
8000
8000
8000
8000
ENDCHAR
STARTCHAR 252F
ENCODING 9784
SWIDTH 1800 0
DWIDTH 18 0
BBX 19 10 -1 -4
BITMAP
FFFFE0
004000
004000
004000
004000
004000
004000
004000
004000
004000
ENDCHAR
STARTCHAR 2528
ENCODING 9785
SWIDTH 1800 0
DWIDTH 18 0
BBX 9 18 5 -4
BITMAP
0080
0080
0080
0080
0080
0080
0080
0080
FF80
0080
0080
0080
0080
0080
0080
0080
0080
0080
ENDCHAR
STARTCHAR 2537
ENCODING 9786
SWIDTH 1800 0
DWIDTH 18 0
BBX 19 9 -1 5
BITMAP
004000
004000
004000
004000
004000
004000
004000
004000
FFFFE0
ENDCHAR
STARTCHAR 253F
ENCODING 9787
SWIDTH 1800 0
DWIDTH 18 0
BBX 19 18 -1 -4
BITMAP
004000
004000
004000
004000
004000
004000
004000
004000
FFFFE0
004000
004000
004000
004000
004000
004000
004000
004000
004000
ENDCHAR
STARTCHAR 251D
ENCODING 9788
SWIDTH 1800 0
DWIDTH 18 0
BBX 10 18 4 -4
BITMAP
8000
8000
8000
8000
8000
8000
8000
8000
FFC0
8000
8000
8000
8000
8000
8000
8000
8000
8000
ENDCHAR
STARTCHAR 2530
ENCODING 9789
SWIDTH 1800 0
DWIDTH 18 0
BBX 17 10 0 -4
BITMAP
FFFF80
008000
008000
008000
008000
008000
008000
008000
008000
008000
ENDCHAR
STARTCHAR 2525
ENCODING 9790
SWIDTH 1800 0
DWIDTH 18 0
BBX 10 18 4 -4
BITMAP
0040
0040
0040
0040
0040
0040
0040
0040
FFC0
0040
0040
0040
0040
0040
0040
0040
0040
0040
ENDCHAR
STARTCHAR 2538
ENCODING 9791
SWIDTH 1800 0
DWIDTH 18 0
BBX 17 9 0 5
BITMAP
008000
008000
008000
008000
008000
008000
008000
008000
FFFF80
ENDCHAR
STARTCHAR 2542
ENCODING 9792
SWIDTH 1800 0
DWIDTH 18 0
BBX 17 18 0 -4
BITMAP
008000
008000
008000
008000
008000
008000
008000
008000
FFFF80
008000
008000
008000
008000
008000
008000
008000
008000
008000
ENDCHAR
STARTCHAR 2512
ENCODING 9793
SWIDTH 1800 0
DWIDTH 18 0
BBX 9 10 5 -4
BITMAP
FF80
0080
0080
0080
0080
0080
0080
0080
0080
0080
ENDCHAR
STARTCHAR 2511
ENCODING 9794
SWIDTH 1800 0
DWIDTH 18 0
BBX 10 10 4 -4
BITMAP
FFC0
0040
0040
0040
0040
0040
0040
0040
0040
0040
ENDCHAR
STARTCHAR 251A
ENCODING 9795
SWIDTH 1800 0
DWIDTH 18 0
BBX 9 9 5 5
BITMAP
0080
0080
0080
0080
0080
0080
0080
0080
FF80
ENDCHAR
STARTCHAR 2519
ENCODING 9796
SWIDTH 1800 0
DWIDTH 18 0
BBX 10 9 4 5
BITMAP
0040
0040
0040
0040
0040
0040
0040
0040
FFC0
ENDCHAR
STARTCHAR 2516
ENCODING 9797
SWIDTH 1800 0
DWIDTH 18 0
BBX 9 9 4 5
BITMAP
8000
8000
8000
8000
8000
8000
8000
8000
FF80
ENDCHAR
STARTCHAR 2515
ENCODING 9798
SWIDTH 1800 0
DWIDTH 18 0
BBX 10 9 4 5
BITMAP
8000
8000
8000
8000
8000
8000
8000
8000
FFC0
ENDCHAR
STARTCHAR 250E
ENCODING 9799
SWIDTH 1800 0
DWIDTH 18 0
BBX 9 10 4 -4
BITMAP
FF80
8000
8000
8000
8000
8000
8000
8000
8000
8000
ENDCHAR
STARTCHAR 250D
ENCODING 9800
SWIDTH 1800 0
DWIDTH 18 0
BBX 10 10 4 -4
BITMAP
FFC0
8000
8000
8000
8000
8000
8000
8000
8000
8000
ENDCHAR
STARTCHAR 251E
ENCODING 9801
SWIDTH 1800 0
DWIDTH 18 0
BBX 9 18 4 -4
BITMAP
8000
8000
8000
8000
8000
8000
8000
8000
FF80
8000
8000
8000
8000
8000
8000
8000
8000
8000
ENDCHAR
STARTCHAR 251F
ENCODING 9802
SWIDTH 1800 0
DWIDTH 18 0
BBX 9 18 4 -4
BITMAP
8000
8000
8000
8000
8000
8000
8000
8000
FF80
8000
8000
8000
8000
8000
8000
8000
8000
8000
ENDCHAR
STARTCHAR 2521
ENCODING 9803
SWIDTH 1800 0
DWIDTH 18 0
BBX 9 18 4 -4
BITMAP
8000
8000
8000
8000
8000
8000
8000
8000
FF80
8000
8000
8000
8000
8000
8000
8000
8000
8000
ENDCHAR
STARTCHAR 2522
ENCODING 9804
SWIDTH 1800 0
DWIDTH 18 0
BBX 9 18 4 -4
BITMAP
8000
8000
8000
8000
8000
8000
8000
8000
FF80
8000
8000
8000
8000
8000
8000
8000
8000
8000
ENDCHAR
STARTCHAR 2526
ENCODING 9805
SWIDTH 1800 0
DWIDTH 18 0
BBX 9 18 5 -4
BITMAP
0080
0080
0080
0080
0080
0080
0080
0080
FF80
0080
0080
0080
0080
0080
0080
0080
0080
0080
ENDCHAR
STARTCHAR 2527
ENCODING 9806
SWIDTH 1800 0
DWIDTH 18 0
BBX 9 18 5 -4
BITMAP
0080
0080
0080
0080
0080
0080
0080
0080
FF80
0080
0080
0080
0080
0080
0080
0080
0080
0080
ENDCHAR
STARTCHAR 2529
ENCODING 9807
SWIDTH 1800 0
DWIDTH 18 0
BBX 9 18 5 -4
BITMAP
0080
0080
0080
0080
0080
0080
0080
0080
FF80
0080
0080
0080
0080
0080
0080
0080
0080
0080
ENDCHAR
STARTCHAR 252A
ENCODING 9808
SWIDTH 1800 0
DWIDTH 18 0
BBX 9 18 5 -4
BITMAP
0080
0080
0080
0080
0080
0080
0080
0080
FF80
0080
0080
0080
0080
0080
0080
0080
0080
0080
ENDCHAR
STARTCHAR 252D
ENCODING 9809
SWIDTH 1800 0
DWIDTH 18 0
BBX 19 10 -1 -4
BITMAP
FFFFE0
004000
004000
004000
004000
004000
004000
004000
004000
004000
ENDCHAR
STARTCHAR 252E
ENCODING 9810
SWIDTH 1800 0
DWIDTH 18 0
BBX 19 10 -1 -4
BITMAP
FFFFE0
004000
004000
004000
004000
004000
004000
004000
004000
004000
ENDCHAR
STARTCHAR 2531
ENCODING 9811
SWIDTH 1800 0
DWIDTH 18 0
BBX 17 10 0 -4
BITMAP
FFFF80
008000
008000
008000
008000
008000
008000
008000
008000
008000
ENDCHAR
STARTCHAR 2532
ENCODING 9812
SWIDTH 1800 0
DWIDTH 18 0
BBX 17 10 0 -4
BITMAP
FFFF80
008000
008000
008000
008000
008000
008000
008000
008000
008000
ENDCHAR
STARTCHAR 2535
ENCODING 9813
SWIDTH 1800 0
DWIDTH 18 0
BBX 19 9 -1 5
BITMAP
004000
004000
004000
004000
004000
004000
004000
004000
FFFFE0
ENDCHAR
STARTCHAR 2536
ENCODING 9814
SWIDTH 1800 0
DWIDTH 18 0
BBX 19 9 -1 5
BITMAP
004000
004000
004000
004000
004000
004000
004000
004000
FFFFE0
ENDCHAR
STARTCHAR 2539
ENCODING 9815
SWIDTH 1800 0
DWIDTH 18 0
BBX 17 9 0 5
BITMAP
008000
008000
008000
008000
008000
008000
008000
008000
FFFF80
ENDCHAR
STARTCHAR 253A
ENCODING 9816
SWIDTH 1800 0
DWIDTH 18 0
BBX 17 9 0 5
BITMAP
008000
008000
008000
008000
008000
008000
008000
008000
FFFF80
ENDCHAR
STARTCHAR 253D
ENCODING 9817
SWIDTH 1800 0
DWIDTH 18 0
BBX 19 18 -1 -4
BITMAP
004000
004000
004000
004000
004000
004000
004000
004000
FFFFE0
004000
004000
004000
004000
004000
004000
004000
004000
004000
ENDCHAR
STARTCHAR 253E
ENCODING 9818
SWIDTH 1800 0
DWIDTH 18 0
BBX 19 18 -1 -4
BITMAP
004000
004000
004000
004000
004000
004000
004000
004000
FFFFE0
004000
004000
004000
004000
004000
004000
004000
004000
004000
ENDCHAR
STARTCHAR 2540
ENCODING 9819
SWIDTH 1800 0
DWIDTH 18 0
BBX 17 18 0 -4
BITMAP
008000
008000
008000
008000
008000
008000
008000
008000
FFFF80
008000
008000
008000
008000
008000
008000
008000
008000
008000
ENDCHAR
STARTCHAR 2541
ENCODING 9820
SWIDTH 1800 0
DWIDTH 18 0
BBX 17 18 0 -4
BITMAP
008000
008000
008000
008000
008000
008000
008000
008000
FFFF80
008000
008000
008000
008000
008000
008000
008000
008000
008000
ENDCHAR
STARTCHAR 2543
ENCODING 9821
SWIDTH 1800 0
DWIDTH 18 0
BBX 17 18 0 -4
BITMAP
008000
008000
008000
008000
008000
008000
008000
008000
FFFF80
008000
008000
008000
008000
008000
008000
008000
008000
008000
ENDCHAR
STARTCHAR 2544
ENCODING 9822
SWIDTH 1800 0
DWIDTH 18 0
BBX 17 18 0 -4
BITMAP
008000
008000
008000
008000
008000
008000
008000
008000
FFFF80
008000
008000
008000
008000
008000
008000
008000
008000
008000
ENDCHAR
STARTCHAR 2545
ENCODING 9823
SWIDTH 1800 0
DWIDTH 18 0
BBX 17 18 0 -4
BITMAP
008000
008000
008000
008000
008000
008000
008000
008000
FFFF80
008000
008000
008000
008000
008000
008000
008000
008000
008000
ENDCHAR
STARTCHAR 2546
ENCODING 9824
SWIDTH 1800 0
DWIDTH 18 0
BBX 17 18 0 -4
BITMAP
008000
008000
008000
008000
008000
008000
008000
008000
FFFF80
008000
008000
008000
008000
008000
008000
008000
008000
008000
ENDCHAR
STARTCHAR 2547
ENCODING 9825
SWIDTH 1800 0
DWIDTH 18 0
BBX 17 18 1 -4
BITMAP
008000
008000
008000
008000
008000
008000
008000
008000
FFFF80
010000
010000
010000
010000
010000
010000
010000
010000
010000
ENDCHAR
STARTCHAR 2548
ENCODING 9826
SWIDTH 1800 0
DWIDTH 18 0
BBX 17 18 1 -4
BITMAP
010000
010000
010000
010000
010000
010000
010000
010000
FFFF80
008000
008000
008000
008000
008000
008000
008000
008000
008000
ENDCHAR
STARTCHAR 2549
ENCODING 9827
SWIDTH 1800 0
DWIDTH 18 0
BBX 17 18 0 -4
BITMAP
008000
008000
008000
008000
008000
008000
008000
008000
FFFF80
008000
008000
008000
008000
008000
008000
008000
008000
008000
ENDCHAR
STARTCHAR 254A
ENCODING 9828
SWIDTH 1800 0
DWIDTH 18 0
BBX 17 18 0 -4
BITMAP
008000
008000
008000
008000
008000
008000
008000
008000
FFFF80
008000
008000
008000
008000
008000
008000
008000
008000
008000
ENDCHAR
STARTCHAR 3395
ENCODING 10017
SWIDTH 1800 0
DWIDTH 18 0
BBX 17 15 1 -2
BITMAP
000600
000900
001100
001100
109100
109200
209200
211200
211400
411800
431080
663100
990F00
800000
800000
ENDCHAR
STARTCHAR 3396
ENCODING 10018
SWIDTH 1800 0
DWIDTH 18 0
BBX 16 13 1 0
BITMAP
000C
0012
0022
0022
F722
8924
8924
8924
8928
8930
8921
8952
891E
ENDCHAR
STARTCHAR 3397
ENCODING 10019
SWIDTH 1800 0
DWIDTH 18 0
BBX 16 13 1 0
BITMAP
010C
0112
0132
0922
3F22
4324
4124
8124
8128
8130
4321
4352
3D1E
ENDCHAR
STARTCHAR 2113
ENCODING 10020
SWIDTH 1800 0
DWIDTH 18 0
BBX 7 13 6 0
BITMAP
18
2C
44
44
44
48
48
48
50
70
62
A4
3C
ENDCHAR
STARTCHAR 3398
ENCODING 10021
SWIDTH 1800 0
DWIDTH 18 0
BBX 14 13 2 0
BITMAP
0030
8048
8048
8088
8488
8890
9090
A090
D0A0
88C0
88C4
8548
8278
ENDCHAR
STARTCHAR 33C4
ENCODING 10022
SWIDTH 1800 0
DWIDTH 18 0
BBX 16 10 1 -1
BITMAP
3C3E
4261
8241
8040
8040
8040
8241
4222
6C1C
1000
ENDCHAR
STARTCHAR 33A3
ENCODING 10023
SWIDTH 1800 0
DWIDTH 18 0
BBX 17 13 0 0
BITMAP
000080
000080
000080
000180
A45200
DA6D00
924900
924900
924900
924900
924900
924900
924900
ENDCHAR
STARTCHAR 33A4
ENCODING 10024
SWIDTH 1800 0
DWIDTH 18 0
BBX 17 13 0 0
BITMAP
000080
000080
000080
000180
3C5B00
426D00
804900
804900
804900
804900
824900
424900
3C4900
ENDCHAR
STARTCHAR 33A5
ENCODING 10025
SWIDTH 1800 0
DWIDTH 18 0
BBX 14 13 2 0
BITMAP
001C
0004
0004
0008
BDE0
C610
8210
8210
8210
8210
8210
8210
8210
ENDCHAR
STARTCHAR 33A6
ENCODING 10026
SWIDTH 1800 0
DWIDTH 18 0
BBX 16 13 1 0
BITMAP
0001
8001
8001
8003
856E
89B2
9122
A122
D122
8922
8922
8522
8322
ENDCHAR
STARTCHAR 3399
ENCODING 10027
SWIDTH 1800 0
DWIDTH 18 0
BBX 14 13 2 0
BITMAP
1800
2000
2000
2000
FBD8
2264
2244
2244
2244
2244
2244
2244
2244
ENDCHAR
STARTCHAR 339A
ENCODING 10028
SWIDTH 1800 0
DWIDTH 18 0
BBX 16 9 1 0
BITMAP
B8F7
C489
8489
8489
8489
8489
8489
8489
8489
ENDCHAR
STARTCHAR 339B
ENCODING 10029
SWIDTH 1800 0
DWIDTH 18 0
BBX 17 11 1 -2
BITMAP
117B80
114C80
224880
224880
224880
424880
444880
444880
BC4880
800000
800000
ENDCHAR
STARTCHAR 339C
ENCODING 10030
SWIDTH 1800 0
DWIDTH 18 0
BBX 16 9 1 0
BITMAP
FE7F
9249
9249
9249
9249
9249
9249
9249
9249
ENDCHAR
STARTCHAR 339D
ENCODING 10031
SWIDTH 1800 0
DWIDTH 18 0
BBX 16 9 1 0
BITMAP
3C57
4269
8249
8049
8049
8049
8249
4249
3C49
ENDCHAR
STARTCHAR 339E
ENCODING 10032
SWIDTH 1800 0
DWIDTH 18 0
BBX 16 12 1 0
BITMAP
8000
8000
8000
80F7
8C99
9891
A091
D091
8891
8891
8491
8291
ENDCHAR
STARTCHAR 339F
ENCODING 10033
SWIDTH 1800 0
DWIDTH 18 0
BBX 17 13 0 0
BITMAP
000080
000080
000100
000100
FE7F00
924900
924900
924900
924900
924900
924900
924900
924900
ENDCHAR
STARTCHAR 33A0
ENCODING 10034
SWIDTH 1800 0
DWIDTH 18 0
BBX 18 14 0 0
BITMAP
000080
000040
000080
000100
000080
3C5B00
426C80
404880
804880
804880
804880
814880
424880
3C4880
ENDCHAR
STARTCHAR 33A1
ENCODING 10035
SWIDTH 1800 0
DWIDTH 18 0
BBX 14 14 2 0
BITMAP
0008
0014
0008
0010
0008
BDE0
C610
8210
8210
8210
8210
8210
8210
8210
ENDCHAR
STARTCHAR 33A2
ENCODING 10036
SWIDTH 1800 0
DWIDTH 18 0
BBX 16 14 1 0
BITMAP
0001
0001
8002
8000
8002
85EE
8912
9112
A112
D112
8912
8912
8512
8312
ENDCHAR
STARTCHAR 33CA
ENCODING 10037
SWIDTH 1800 0
DWIDTH 18 0
BBX 14 13 2 0
BITMAP
8000
8000
8000
8000
F8F8
8488
8508
8438
84E8
8488
8508
8488
8474
ENDCHAR
STARTCHAR 338D
ENCODING 10038
SWIDTH 1800 0
DWIDTH 18 0
BBX 16 12 1 -3
BITMAP
113F
2242
2242
2242
4244
4438
4440
4C3C
B443
8081
8081
007E
ENDCHAR
STARTCHAR 338E
ENCODING 10039
SWIDTH 1800 0
DWIDTH 18 0
BBX 16 13 1 -4
BITMAP
B619
DA66
9242
92C2
9242
923C
92C0
9260
929E
0181
0181
00FF
001C
ENDCHAR
STARTCHAR 338F
ENCODING 10040
SWIDTH 1800 0
DWIDTH 18 0
BBX 15 16 1 -3
BITMAP
8000
8000
8000
8000
847E
8844
9084
B084
D084
8878
8480
8470
828E
0102
0182
00FC
ENDCHAR
STARTCHAR 33CF
ENCODING 10041
SWIDTH 1800 0
DWIDTH 18 0
BBX 12 14 3 -1
BITMAP
8000
8040
8040
8040
84F0
8840
9040
B040
D040
8840
8440
8440
8250
0020
ENDCHAR
STARTCHAR 3388
ENCODING 10042
SWIDTH 1800 0
DWIDTH 18 0
BBX 16 14 1 -1
BITMAP
0001
0001
0001
0001
3071
4C89
8509
8009
8079
8089
8509
8509
4CF9
3060
ENDCHAR
STARTCHAR 3389
ENCODING 10043
SWIDTH 1800 0
DWIDTH 18 0
BBX 16 13 1 0
BITMAP
8001
8001
8001
8001
9319
9525
A885
A80D
E815
A825
9845
9845
8F3F
ENDCHAR
STARTCHAR 33C8
ENCODING 10044
SWIDTH 1800 0
DWIDTH 18 0
BBX 16 13 1 0
BITMAP
027C
0242
0242
0242
7A42
C642
827E
8243
8241
8241
8241
8642
7A7C
ENDCHAR
STARTCHAR 33A7
ENCODING 10045
SWIDTH 1800 0
DWIDTH 18 0
BBX 17 16 0 -3
BITMAP
FBC000
844000
884080
884100
884200
884400
805800
002000
004700
008880
010800
020C00
040380
080080
300880
000700
ENDCHAR
STARTCHAR 33A8
ENCODING 10046
SWIDTH 1800 0
DWIDTH 18 0
BBX 17 17 0 -3
BITMAP
3B8000
CC4000
844000
844080
844100
844200
844580
001880
002100
004E00
009100
011000
020800
040600
080100
301100
000E00
ENDCHAR
STARTCHAR 33B0
ENCODING 10047
SWIDTH 1800 0
DWIDTH 18 0
BBX 16 12 1 -3
BITMAP
BC3C
C242
C240
8160
811C
8202
C241
C242
BC36
8008
8000
8000
ENDCHAR
STARTCHAR 33B1
ENCODING 10048
SWIDTH 1800 0
DWIDTH 18 0
BBX 14 9 2 0
BITMAP
B8F8
C904
8500
84C0
8438
8404
8504
8484
8478
ENDCHAR
STARTCHAR 33B2
ENCODING 10049
SWIDTH 1800 0
DWIDTH 18 0
BBX 18 12 0 -3
BITMAP
084F80
105080
109040
108800
208700
208080
211040
631040
5D0F80
400000
800000
800000
ENDCHAR
STARTCHAR 33B3
ENCODING 10050
SWIDTH 1800 0
DWIDTH 18 0
BBX 16 9 1 0
BITMAP
F73E
9940
9140
9130
910E
9101
9141
9141
913E
ENDCHAR
STARTCHAR 33B4
ENCODING 10051
SWIDTH 1800 0
DWIDTH 18 0
BBX 16 16 1 -3
BITMAP
0101
0082
0082
0082
BC84
C244
8244
8244
8228
8228
8228
C210
BC10
8000
8000
8000
ENDCHAR
STARTCHAR 33B5
ENCODING 10052
SWIDTH 1800 0
DWIDTH 18 0
BBX 15 13 1 0
BITMAP
0102
0102
0082
0084
B884
C484
8448
8448
8448
8450
8430
8430
8430
ENDCHAR
STARTCHAR 33B6
ENCODING 10053
SWIDTH 1800 0
DWIDTH 18 0
BBX 18 16 0 -3
BITMAP
002040
001080
001080
001080
085080
104900
104900
108900
108900
208600
218600
330600
4C0600
400000
400000
800000
ENDCHAR
STARTCHAR 33B7
ENCODING 10054
SWIDTH 1800 0
DWIDTH 18 0
BBX 16 13 1 0
BITMAP
0081
0081
0082
0042
FE42
9242
9244
9224
9224
9228
9218
9218
9210
ENDCHAR
STARTCHAR 33B8
ENCODING 10055
SWIDTH 1800 0
DWIDTH 18 0
BBX 16 13 1 0
BITMAP
0101
8082
8082
8082
8484
8844
9044
A048
D048
8828
8828
8430
8210
ENDCHAR
STARTCHAR 33B9
ENCODING 10056
SWIDTH 1800 0
DWIDTH 18 0
BBX 17 13 0 0
BITMAP
80A000
C1A080
C1A080
C19080
A29100
A29100
A29100
A48900
948A00
948A00
948A00
888600
888400
ENDCHAR
STARTCHAR 3380
ENCODING 10057
SWIDTH 1800 0
DWIDTH 18 0
BBX 15 16 1 -3
BITMAP
0010
0010
0028
0028
BC28
C224
C244
8144
817C
8142
C282
C282
BC80
8000
8000
8000
ENDCHAR
STARTCHAR 3381
ENCODING 10058
SWIDTH 1800 0
DWIDTH 18 0
BBX 15 13 1 0
BITMAP
0010
0018
0028
0028
BC28
C424
8444
8444
847C
8442
8482
8482
8080
ENDCHAR
STARTCHAR 3382
ENCODING 10059
SWIDTH 1800 0
DWIDTH 18 0
BBX 16 16 1 -3
BITMAP
0018
0018
0018
0028
00A4
1124
1124
1124
227E
2242
2242
6642
5A01
4000
8000
8000
ENDCHAR
STARTCHAR 3383
ENCODING 10060
SWIDTH 1800 0
DWIDTH 18 0
BBX 16 12 1 0
BITMAP
0008
0018
0014
FE14
9224
9224
9222
923E
9242
9242
9241
9241
ENDCHAR
STARTCHAR 3384
ENCODING 10061
SWIDTH 1800 0
DWIDTH 18 0
BBX 15 13 1 0
BITMAP
0010
8018
8028
8028
8428
8824
9044
A044
D07C
8842
8842
8482
8282
ENDCHAR
STARTCHAR 33BA
ENCODING 10062
SWIDTH 1800 0
DWIDTH 18 0
BBX 16 16 1 -3
BITMAP
0111
0111
0111
0129
FD2A
C4AA
82AA
82AA
82AA
82C6
8246
8444
F844
8000
8000
8000
ENDCHAR
STARTCHAR 33BB
ENCODING 10063
SWIDTH 1800 0
DWIDTH 18 0
BBX 16 13 1 0
BITMAP
0111
0111
0132
0132
B932
C52A
852A
84CA
84CA
84CC
84C4
8444
8444
ENDCHAR
STARTCHAR 33BC
ENCODING 10064
SWIDTH 1800 0
DWIDTH 18 0
BBX 18 16 0 -3
BITMAP
000440
004480
004C80
004C80
114C80
114C80
115280
213280
223300
223300
223100
263100
5A0100
400000
400000
800000
ENDCHAR
STARTCHAR 33BD
ENCODING 10065
SWIDTH 1800 0
DWIDTH 18 0
BBX 16 13 1 0
BITMAP
0110
0111
0119
0119
AEA9
D2A9
92AA
92AA
92A6
9266
9266
9246
9242
ENDCHAR
STARTCHAR 33BE
ENCODING 10066
SWIDTH 1800 0
DWIDTH 18 0
BBX 16 13 1 0
BITMAP
0111
8111
8111
8131
852A
88AA
90AA
A0AA
D0CA
88CA
8844
8444
8244
ENDCHAR
STARTCHAR 33BF
ENCODING 10067
SWIDTH 1800 0
DWIDTH 18 0
BBX 16 13 1 0
BITMAP
8510
8511
8511
CD19
CCA9
CCA9
D4AA
D4AA
D4AA
B4A6
B446
B446
9444
ENDCHAR
STARTCHAR 3390
ENCODING 10068
SWIDTH 1800 0
DWIDTH 18 0
BBX 16 13 1 0
BITMAP
8200
8200
8200
8200
827F
8202
FE02
8204
8208
8210
8220
8240
827F
ENDCHAR
STARTCHAR 3391
ENCODING 10069
SWIDTH 1800 0
DWIDTH 18 0
BBX 17 13 0 0
BITMAP
822000
822000
822000
822000
8A2F80
922080
A3E100
A22100
E22200
A22400
922400
922800
8A2F80
ENDCHAR
STARTCHAR 3392
ENCODING 10070
SWIDTH 1800 0
DWIDTH 18 0
BBX 17 13 0 0
BITMAP
829000
C69000
C69000
C69000
C69780
CA9080
CAF100
AA9100
AA9100
AA9200
AA9200
B29400
929780
ENDCHAR
STARTCHAR 3393
ENCODING 10071
SWIDTH 1800 0
DWIDTH 18 0
BBX 18 14 0 -1
BITMAP
011000
391000
491000
851000
811780
811080
81F100
9D1100
851200
851200
851400
851400
4D17C0
300000
ENDCHAR
STARTCHAR 3394
ENCODING 10072
SWIDTH 1800 0
DWIDTH 18 0
BBX 18 13 0 0
BITMAP
022000
FA2000
222000
222000
222F80
222080
23E100
222100
222200
222200
222400
222400
222FC0
ENDCHAR
STARTCHAR 2126
ENCODING 10073
SWIDTH 1800 0
DWIDTH 18 0
BBX 12 13 3 0
BITMAP
1F80
2060
4020
8010
8010
8010
8010
4020
6060
39C0
0900
0900
F9F0
ENDCHAR
STARTCHAR 33C0
ENCODING 10074
SWIDTH 1800 0
DWIDTH 18 0
BBX 17 13 1 0
BITMAP
001C00
806200
804300
804100
84C100
888100
904100
A04100
D04200
883400
881400
841400
82F780
ENDCHAR
STARTCHAR 33C1
ENCODING 10075
SWIDTH 1800 0
DWIDTH 18 0
BBX 17 13 1 0
BITMAP
821C00
826200
C64300
C64100
C6C100
CA8100
CA4100
AA4100
AA4200
AA3400
AA1400
B21400
92F780
ENDCHAR
STARTCHAR 338A
ENCODING 10076
SWIDTH 1800 0
DWIDTH 18 0
BBX 15 15 1 -2
BITMAP
007E
0040
0040
0040
3C40
4240
417E
4140
8140
4140
4140
C240
BC40
8000
8000
ENDCHAR
STARTCHAR 338B
ENCODING 10077
SWIDTH 1800 0
DWIDTH 18 0
BBX 14 13 2 0
BITMAP
00FC
0080
0080
0080
B880
C480
84FC
8480
8480
8480
8480
8480
8480
ENDCHAR
STARTCHAR 338C
ENCODING 10078
SWIDTH 1800 0
DWIDTH 18 0
BBX 16 15 1 -2
BITMAP
003F
0020
0020
0020
10A0
20A0
20BF
2120
2120
4120
4320
6620
9820
8000
8000
ENDCHAR
STARTCHAR 33D6
ENCODING 10079
SWIDTH 1800 0
DWIDTH 18 0
BBX 16 13 1 0
BITMAP
0001
0001
0001
0001
F739
9969
9145
9145
9145
9145
9145
9169
9139
ENDCHAR
STARTCHAR 33C5
ENCODING 10080
SWIDTH 1800 0
DWIDTH 18 0
BBX 16 13 1 -1
BITMAP
0001
0001
0001
3C19
4267
4041
8041
8081
80C1
8141
4243
3C77
0018
ENDCHAR
STARTCHAR 33AD
ENCODING 10081
SWIDTH 1800 0
DWIDTH 18 0
BBX 16 13 1 0
BITMAP
0001
0001
0001
0001
B38F
C251
8051
80D1
8151
8651
8451
8451
83AF
ENDCHAR
STARTCHAR 33AE
ENCODING 10082
SWIDTH 1800 0
DWIDTH 18 0
BBX 16 16 1 -3
BITMAP
0040
0040
ECC0
8740
8640
9E40
9640
8BC6
0018
0060
008F
0308
0406
1801
2009
0006
ENDCHAR
STARTCHAR 33AF
ENCODING 10083
SWIDTH 1800 0
DWIDTH 18 0
BBX 16 16 1 -3
BITMAP
0040
0040
FCC0
8740
8E40
9640
A644
99C8
0031
004E
0192
0210
040C
1802
2002
000E
ENDCHAR
STARTCHAR 33DB
ENCODING 10084
SWIDTH 1800 0
DWIDTH 18 0
BBX 12 9 3 0
BITMAP
7CB0
80C0
8080
6080
1C80
0280
8280
8280
7C80
ENDCHAR
STARTCHAR 33A9
ENCODING 10085
SWIDTH 1800 0
DWIDTH 18 0
BBX 16 13 1 0
BITMAP
FC00
8300
8100
8100
813C
8222
FC42
8006
803A
8042
8042
8046
803D
ENDCHAR
STARTCHAR 33AA
ENCODING 10086
SWIDTH 1800 0
DWIDTH 18 0
BBX 16 14 1 -1
BITMAP
8000
87C0
8420
8420
8C3C
9422
A462
A7C6
E41A
A422
9422
9426
8C1B
0400
ENDCHAR
STARTCHAR 33AB
ENCODING 10087
SWIDTH 1800 0
DWIDTH 18 0
BBX 18 13 0 0
BITMAP
84E000
84B000
CC9000
CC9000
CC9780
D49480
D4A080
D4C180
D48280
B48480
B48480
B48480
A487C0
ENDCHAR
STARTCHAR 33AC
ENCODING 10088
SWIDTH 1800 0
DWIDTH 18 0
BBX 18 14 0 -1
BITMAP
300000
49E000
451000
851000
811700
811480
9D3080
85E180
850280
850480
850880
4D0480
3507C0
010000
ENDCHAR
STARTCHAR 33DD
ENCODING 10089
SWIDTH 1800 0
DWIDTH 18 0
BBX 18 13 0 0
BITMAP
805000
8C9000
4C9000
4C9000
4C9F80
549080
549040
532040
332040
332040
331040
311080
211F00
ENDCHAR
STARTCHAR 33D0
ENCODING 10090
SWIDTH 1800 0
DWIDTH 18 0
BBX 10 13 4 0
BITMAP
8000
8000
8000
8000
9FC0
9240
9240
9240
9240
9240
9240
9240
9240
ENDCHAR
STARTCHAR 33D3
ENCODING 10091
SWIDTH 1800 0
DWIDTH 18 0
BBX 10 13 4 0
BITMAP
8000
8000
8000
8000
9040
8880
8900
8600
8200
8500
8900
8880
9040
ENDCHAR
STARTCHAR 33C3
ENCODING 10092
SWIDTH 1800 0
DWIDTH 18 0
BBX 16 16 1 -3
BITMAP
F800
8400
8400
8200
8418
8427
F841
8641
8241
8241
8241
8243
8425
7819
0001
0001
ENDCHAR
STARTCHAR 33C9
ENCODING 10093
SWIDTH 1800 0
DWIDTH 18 0
BBX 17 17 0 -4
BITMAP
1C0000
220000
410000
410000
402080
402100
801100
831100
411200
410A00
410A00
430400
350400
080400
000800
000800
001000
ENDCHAR
STARTCHAR 33DC
ENCODING 10094
SWIDTH 1800 0
DWIDTH 18 0
BBX 16 13 1 0
BITMAP
3E00
4200
8100
8000
4041
3042
0E42
0122
0124
8124
8114
4118
3E08
ENDCHAR
STARTCHAR 33C6
ENCODING 10095
SWIDTH 1800 0
DWIDTH 18 0
BBX 17 18 0 -4
BITMAP
600000
910000
810000
820000
820000
840000
940000
688000
088000
089380
10A480
10C480
20A300
209400
208780
400880
400480
000300
ENDCHAR
STARTCHAR 00C6
ENCODING 10273
SWIDTH 1800 0
DWIDTH 18 0
BBX 16 13 1 0
BITMAP
01FF
0380
0280
0680
0480
0880
18FE
1080
3F80
2080
4080
4080
80FF
ENDCHAR
STARTCHAR 00D0
ENCODING 10274
SWIDTH 1800 0
DWIDTH 18 0
BBX 12 13 3 0
BITMAP
3F00
20C0
2020
2010
2010
2010
FC10
2010
2010
2010
2020
2060
3F80
ENDCHAR
STARTCHAR 00AA
ENCODING 10275
SWIDTH 1800 0
DWIDTH 18 0
BBX 8 12 5 0
BITMAP
18
64
82
02
1E
62
82
82
8E
71
00
FF
ENDCHAR
STARTCHAR 0126
ENCODING 10276
SWIDTH 1800 0
DWIDTH 18 0
BBX 14 13 2 0
BITMAP
2010
2010
FFFC
2010
2010
2010
3FF0
2010
2010
2010
2010
2010
2010
ENDCHAR
STARTCHAR 0132
ENCODING 10278
SWIDTH 1800 0
DWIDTH 18 0
BBX 9 13 4 0
BITMAP
0080
8080
8080
8080
8080
8080
8080
8080
8080
A080
B080
9180
8F00
ENDCHAR
STARTCHAR 013F
ENCODING 10280
SWIDTH 1800 0
DWIDTH 18 0
BBX 8 13 5 0
BITMAP
80
80
80
80
80
8C
8C
80
80
80
80
80
FF
ENDCHAR
STARTCHAR 0141
ENCODING 10281
SWIDTH 1800 0
DWIDTH 18 0
BBX 11 13 4 0
BITMAP
1000
1000
1200
1400
1800
1800
1000
3000
5000
D000
1000
1000
1FE0
ENDCHAR
STARTCHAR 00D8
ENCODING 10282
SWIDTH 1800 0
DWIDTH 18 0
BBX 13 14 2 -1
BITMAP
0788
0868
1030
2070
20C8
4088
4108
4208
6408
2810
3010
3020
6CC0
C300
ENDCHAR
STARTCHAR 0152
ENCODING 10283
SWIDTH 1800 0
DWIDTH 18 0
BBX 17 13 0 0
BITMAP
1FFF80
30C000
604000
404000
C04000
804000
807F80
804000
404000
404000
404000
204000
1FFF80
ENDCHAR
STARTCHAR 00BA
ENCODING 10284
SWIDTH 1800 0
DWIDTH 18 0
BBX 8 11 5 0
BITMAP
3C
42
81
81
81
81
81
42
3C
00
FF
ENDCHAR
STARTCHAR 00DE
ENCODING 10285
SWIDTH 1800 0
DWIDTH 18 0
BBX 8 12 5 0
BITMAP
80
80
80
FE
81
81
81
83
FE
80
80
80
ENDCHAR
STARTCHAR 0166
ENCODING 10286
SWIDTH 1800 0
DWIDTH 18 0
BBX 9 12 4 0
BITMAP
FF80
0800
0800
0800
0800
0800
7F00
0800
0800
0800
0800
0800
ENDCHAR
STARTCHAR 014A
ENCODING 10287
SWIDTH 1800 0
DWIDTH 18 0
BBX 8 13 5 0
BITMAP
9E
E1
81
81
81
81
81
81
81
81
81
81
8E
ENDCHAR
STARTCHAR 3260
ENCODING 10289
SWIDTH 1800 0
DWIDTH 18 0
BBX 17 16 0 -3
BITMAP
07F000
180C00
200200
400100
5FF900
800880
800880
800880
800880
800880
400880
400100
200100
100200
080400
07F800
ENDCHAR
STARTCHAR 3261
ENCODING 10290
SWIDTH 1800 0
DWIDTH 18 0
BBX 17 16 0 -3
BITMAP
07F000
180C00
200200
440100
440100
840080
840080
840080
840080
840080
47FE80
400100
200100
100200
080400
07F800
ENDCHAR
STARTCHAR 3262
ENCODING 10291
SWIDTH 1800 0
DWIDTH 18 0
BBX 17 16 0 -3
BITMAP
07F000
180C00
200200
400100
4FF900
880080
880080
880080
880080
880080
4FFC80
400100
200100
100200
080400
07F800
ENDCHAR
STARTCHAR 3263
ENCODING 10292
SWIDTH 1800 0
DWIDTH 18 0
BBX 17 16 0 -3
BITMAP
07F000
180C00
200200
400100
4FF900
800880
800880
8FF880
880080
880080
480080
4FFD00
200100
100200
080400
07F800
ENDCHAR
STARTCHAR 3264
ENCODING 10293
SWIDTH 1800 0
DWIDTH 18 0
BBX 17 16 0 -3
BITMAP
07F000
180C00
200200
400100
4FFD00
880480
880480
880480
880480
880480
4FFC80
400100
200100
100200
080400
07F800
ENDCHAR
STARTCHAR 3265
ENCODING 10294
SWIDTH 1800 0
DWIDTH 18 0
BBX 17 16 0 -3
BITMAP
07F000
180C00
200200
480500
480500
880480
8FFC80
880480
880480
880480
4FFC80
400100
200100
100200
080400
07F800
ENDCHAR
STARTCHAR 3266
ENCODING 10295
SWIDTH 1800 0
DWIDTH 18 0
BBX 17 16 0 -3
BITMAP
07F000
180C00
200200
400100
408100
80C080
814080
812080
821080
840880
580680
400100
200100
100200
080400
07F800
ENDCHAR
STARTCHAR 3267
ENCODING 10296
SWIDTH 1800 0
DWIDTH 18 0
BBX 17 16 0 -3
BITMAP
07F000
180C00
200200
400100
43F100
840880
880480
880480
880480
880480
440880
43F100
200100
100200
080400
07F800
ENDCHAR
STARTCHAR 3268
ENCODING 10297
SWIDTH 1800 0
DWIDTH 18 0
BBX 17 16 0 -3
BITMAP
07F000
180C00
200200
400100
4FFD00
808080
80C080
80C080
812080
821080
440C80
480100
200100
100200
080400
07F800
ENDCHAR
STARTCHAR 3269
ENCODING 10298
SWIDTH 1800 0
DWIDTH 18 0
BBX 17 16 0 -3
BITMAP
07F000
180C00
200200
43F100
400100
8FFC80
808080
80C080
812080
821080
4C0C80
400100
200100
100200
080400
07F800
ENDCHAR
STARTCHAR 326A
ENCODING 10299
SWIDTH 1800 0
DWIDTH 18 0
BBX 17 16 0 -3
BITMAP
07F000
180C00
200200
400100
4FF900
800880
800880
83E880
840880
800880
400880
400900
200100
100200
080400
07F800
ENDCHAR
STARTCHAR 326B
ENCODING 10300
SWIDTH 1800 0
DWIDTH 18 0
BBX 17 16 0 -3
BITMAP
03F000
0C0C00
300200
400100
47FD00
440080
840080
87FC80
840080
840080
47FE80
400100
200100
200200
180400
061800
ENDCHAR
STARTCHAR 326C
ENCODING 10301
SWIDTH 1800 0
DWIDTH 18 0
BBX 17 16 0 -3
BITMAP
07F000
180C00
200200
400100
4FFD00
800080
821080
821080
821080
821080
4FFC80
400100
200100
100200
080400
07F800
ENDCHAR
STARTCHAR 326D
ENCODING 10302
SWIDTH 1800 0
DWIDTH 18 0
BBX 17 16 0 -3
BITMAP
07F000
180C00
200200
43E100
400100
8FFC80
800080
83F080
861880
840880
461880
43F100
200100
100200
080400
07F800
ENDCHAR
STARTCHAR 326E
ENCODING 10303
SWIDTH 1800 0
DWIDTH 18 0
BBX 17 16 0 -3
BITMAP
07F000
180C00
200A00
400900
4F8900
808880
808880
810E80
810880
820880
4C0880
400900
200900
100200
080400
07F800
ENDCHAR
STARTCHAR 326F
ENCODING 10304
SWIDTH 1800 0
DWIDTH 18 0
BBX 17 16 0 -3
BITMAP
07F000
180C00
200A00
400900
480900
880880
880880
880E80
880880
88E880
470880
400900
200900
100200
080400
07F800
ENDCHAR
STARTCHAR 3270
ENCODING 10305
SWIDTH 1800 0
DWIDTH 18 0
BBX 17 16 0 -3
BITMAP
07F000
180C00
200A00
400900
4FC900
880880
880880
880E80
880880
886880
478880
400900
200900
100200
080400
07F800
ENDCHAR
STARTCHAR 3271
ENCODING 10306
SWIDTH 1800 0
DWIDTH 18 0
BBX 17 16 0 -3
BITMAP
07F000
180C00
200A00
400900
5F8900
808880
808880
8F8C80
880880
880880
4FC880
400900
200900
100200
080400
07F800
ENDCHAR
STARTCHAR 3272
ENCODING 10307
SWIDTH 1800 0
DWIDTH 18 0
BBX 17 16 0 -3
BITMAP
07F000
180C00
200A00
400900
4FC900
884880
884880
884E80
884880
8FC880
400880
400900
200900
100200
080400
07F800
ENDCHAR
STARTCHAR 3273
ENCODING 10308
SWIDTH 1800 0
DWIDTH 18 0
BBX 17 16 0 -3
BITMAP
07F000
180C00
200A00
488900
488900
888880
8F8880
888E80
888880
888880
4F8880
400900
200900
100200
080400
07F800
ENDCHAR
STARTCHAR 3274
ENCODING 10309
SWIDTH 1800 0
DWIDTH 18 0
BBX 17 16 0 -3
BITMAP
07F000
180C00
200A00
410900
410900
810880
830880
828E80
848880
844880
582880
400900
200900
100200
080400
07F800
ENDCHAR
STARTCHAR 3275
ENCODING 10310
SWIDTH 1800 0
DWIDTH 18 0
BBX 16 16 1 -3
BITMAP
0FE0
3018
4014
8F12
9991
1091
1091
109D
1091
1991
8F11
8011
4012
2004
1008
0FF0
ENDCHAR
STARTCHAR 3276
ENCODING 10311
SWIDTH 1800 0
DWIDTH 18 0
BBX 17 16 0 -3
BITMAP
07F000
180C00
200A00
400900
4FC900
810880
810880
830E80
828880
848880
484880
500900
200900
100200
080400
07F800
ENDCHAR
STARTCHAR 3277
ENCODING 10312
SWIDTH 1800 0
DWIDTH 18 0
BBX 17 16 0 -3
BITMAP
07F000
180C00
200A00
438900
400900
8FC880
810880
810E80
830880
848880
484880
400900
200900
100200
080400
07F800
ENDCHAR
STARTCHAR 3278
ENCODING 10313
SWIDTH 1800 0
DWIDTH 18 0
BBX 17 16 0 -3
BITMAP
07F000
180C00
200A00
400900
4FC900
804880
804880
8F8E80
808880
810880
420880
4C0900
200900
100200
080400
07F800
ENDCHAR
STARTCHAR 3279
ENCODING 10314
SWIDTH 1800 0
DWIDTH 18 0
BBX 17 16 0 -3
BITMAP
07F000
180C00
200A00
400900
4FC900
880880
880880
8F8E80
880880
880880
486880
4F8900
200900
100200
080400
07F800
ENDCHAR
STARTCHAR 327A
ENCODING 10315
SWIDTH 1800 0
DWIDTH 18 0
BBX 17 16 0 -3
BITMAP
07F000
180C00
200A00
400900
4FC900
800880
844880
848E80
848880
848880
5FE880
400900
200900
100200
080400
07F800
ENDCHAR
STARTCHAR 327B
ENCODING 10316
SWIDTH 1800 0
DWIDTH 18 0
BBX 17 16 0 -3
BITMAP
07F000
180C00
200A00
470900
400900
9FC880
800880
878E80
884880
884880
484880
478900
200900
100200
080400
07F800
ENDCHAR
STARTCHAR 24D0
ENCODING 10317
SWIDTH 1800 0
DWIDTH 18 0
BBX 17 16 0 -3
BITMAP
07F000
180C00
200200
41E100
421100
821080
803080
81F080
821080
821080
423880
41C100
200100
100200
080400
07F800
ENDCHAR
STARTCHAR 24D1
ENCODING 10318
SWIDTH 1800 0
DWIDTH 18 0
BBX 17 16 0 -3
BITMAP
07F000
180C00
220200
420100
420100
82F080
830880
820480
820480
820480
420480
430900
229100
106200
080400
07F800
ENDCHAR
STARTCHAR 24D2
ENCODING 10319
SWIDTH 1800 0
DWIDTH 18 0
BBX 17 16 0 -3
BITMAP
07F000
180C00
200200
40C100
413100
821080
820080
820080
820080
821080
413080
40C100
200100
100200
080400
07F800
ENDCHAR
STARTCHAR 24D3
ENCODING 10320
SWIDTH 1800 0
DWIDTH 18 0
BBX 17 16 0 -3
BITMAP
07F000
180C00
201200
401100
401100
83D080
843080
841080
841080
841080
441080
463100
23D100
100200
080400
07F800
ENDCHAR
STARTCHAR 24D4
ENCODING 10321
SWIDTH 1800 0
DWIDTH 18 0
BBX 17 16 0 -3
BITMAP
07F000
180C00
200200
400100
41E100
821080
821080
87F080
840080
821080
421080
41E100
200100
100200
080400
07F800
ENDCHAR
STARTCHAR 24D5
ENCODING 10322
SWIDTH 1800 0
DWIDTH 18 0
BBX 17 16 0 -3
BITMAP
07F000
180C00
20E200
408100
408100
81E080
808080
808080
808080
808080
408080
408100
208100
100200
080400
07F800
ENDCHAR
STARTCHAR 24D6
ENCODING 10323
SWIDTH 1800 0
DWIDTH 18 0
BBX 17 16 0 -3
BITMAP
07F000
180C00
20C200
433900
421900
840880
840880
840880
821880
812880
40D080
421100
21E100
100200
080400
07F800
ENDCHAR
STARTCHAR 24D7
ENCODING 10324
SWIDTH 1800 0
DWIDTH 18 0
BBX 17 16 0 -3
BITMAP
07F000
180C00
220200
420100
420100
83E080
821080
821080
821080
821080
421080
421100
221100
100200
080400
07F800
ENDCHAR
STARTCHAR 24D8
ENCODING 10325
SWIDTH 1800 0
DWIDTH 18 0
BBX 17 16 0 -3
BITMAP
07F000
180C00
208200
400100
400100
808080
808080
808080
808080
808080
408080
408100
208100
100200
080400
07F800
ENDCHAR
STARTCHAR 24D9
ENCODING 10326
SWIDTH 1800 0
DWIDTH 18 0
BBX 17 16 0 -3
BITMAP
07F000
184C00
200200
400100
404100
804080
804080
804080
804080
804080
404080
404100
204100
108200
098400
07F800
ENDCHAR
STARTCHAR 24DA
ENCODING 10327
SWIDTH 1800 0
DWIDTH 18 0
BBX 17 16 0 -3
BITMAP
07F000
180C00
210200
410100
410100
811080
812080
814080
81A080
812080
411080
410900
210900
100200
080400
07F800
ENDCHAR
STARTCHAR 24DB
ENCODING 10328
SWIDTH 1800 0
DWIDTH 18 0
BBX 17 16 0 -3
BITMAP
07F000
180C00
208200
408100
408100
808080
808080
808080
808080
808080
408080
408100
208100
100200
080400
07F800
ENDCHAR
STARTCHAR 24DC
ENCODING 10329
SWIDTH 1800 0
DWIDTH 18 0
BBX 17 16 0 -3
BITMAP
07F000
180C00
200200
411100
4EAD00
884480
884480
884480
884480
884480
484080
400100
200100
100200
080400
07F800
ENDCHAR
STARTCHAR 24DD
ENCODING 10330
SWIDTH 1800 0
DWIDTH 18 0
BBX 17 16 0 -3
BITMAP
07F000
180C00
200200
400100
43F100
821080
821080
821080
821080
821080
421080
400100
200100
100200
080400
07F800
ENDCHAR
STARTCHAR 24DE
ENCODING 10331
SWIDTH 1800 0
DWIDTH 18 0
BBX 17 16 0 -3
BITMAP
07F000
180C00
200200
41E100
421100
840880
840880
840880
840880
840880
421080
41E100
200100
100200
080400
07F800
ENDCHAR
STARTCHAR 24DF
ENCODING 10332
SWIDTH 1800 0
DWIDTH 18 0
BBX 17 16 0 -3
BITMAP
07F000
180C00
20E200
431100
430900
820880
820880
820880
830880
839080
426080
420100
220100
100200
080400
07F800
ENDCHAR
STARTCHAR 24E0
ENCODING 10333
SWIDTH 1800 0
DWIDTH 18 0
BBX 17 16 0 -3
BITMAP
07F000
180C00
21D200
423100
441100
841080
841080
841080
861080
837080
409080
401100
201100
100200
080400
07F800
ENDCHAR
STARTCHAR 24E1
ENCODING 10334
SWIDTH 1800 0
DWIDTH 18 0
BBX 17 16 0 -3
BITMAP
07F000
180C00
200200
400100
40B100
80C080
808080
808080
808080
808080
408080
408100
200100
100200
080400
07F800
ENDCHAR
STARTCHAR 24E2
ENCODING 10335
SWIDTH 1800 0
DWIDTH 18 0
BBX 17 16 0 -3
BITMAP
07F000
180C00
200200
41E100
422100
821080
830080
80E080
801080
821080
412080
40C100
200100
100200
080400
07F800
ENDCHAR
STARTCHAR 24E3
ENCODING 10336
SWIDTH 1800 0
DWIDTH 18 0
BBX 17 16 0 -3
BITMAP
07F000
180C00
200200
408100
408100
81C080
808080
808080
808080
808080
408080
408100
20C100
100200
080400
07F800
ENDCHAR
STARTCHAR 24E4
ENCODING 10337
SWIDTH 1800 0
DWIDTH 18 0
BBX 17 16 0 -3
BITMAP
07F000
180C00
200200
400100
421100
821080
821080
821080
821080
821080
423080
41D100
200100
100200
080400
07F800
ENDCHAR
STARTCHAR 24E5
ENCODING 10338
SWIDTH 1800 0
DWIDTH 18 0
BBX 17 16 0 -3
BITMAP
07F000
180C00
200200
400100
421100
821080
821080
812080
812080
814080
40C080
40C100
200100
100200
080400
07F800
ENDCHAR
STARTCHAR 24E6
ENCODING 10339
SWIDTH 1800 0
DWIDTH 18 0
BBX 17 16 0 -3
BITMAP
07F000
180C00
200200
400100
484100
88C480
88C480
84A880
852880
852880
431880
421100
200100
100200
080400
07F800
ENDCHAR
STARTCHAR 24E7
ENCODING 10340
SWIDTH 1800 0
DWIDTH 18 0
BBX 17 16 0 -3
BITMAP
07F000
180C00
200200
400100
421100
812080
80C080
804080
80C080
812080
401080
400100
200100
100200
080400
07F800
ENDCHAR
STARTCHAR 24E8
ENCODING 10341
SWIDTH 1800 0
DWIDTH 18 0
BBX 17 16 0 -3
BITMAP
07F000
180C00
200200
420100
411100
811080
812080
80A080
80A080
804080
404080
408100
208100
100200
080400
07F800
ENDCHAR
STARTCHAR 24E9
ENCODING 10342
SWIDTH 1800 0
DWIDTH 18 0
BBX 17 16 0 -3
BITMAP
07F000
180C00
200200
400100
43F100
802080
802080
804080
808080
810080
420080
43F100
200100
100200
080400
07F800
ENDCHAR
STARTCHAR 2460
ENCODING 10343
SWIDTH 1800 0
DWIDTH 18 0
BBX 17 16 0 -3
BITMAP
07F000
180C00
204200
404100
43C100
804080
804080
804080
804080
804080
404080
404100
204100
100200
080400
07F800
ENDCHAR
STARTCHAR 2461
ENCODING 10344
SWIDTH 1800 0
DWIDTH 18 0
BBX 17 16 0 -3
BITMAP
07F000
180C00
21F200
421100
421100
801080
801080
802080
80C080
810080
420080
420100
23F100
100200
080400
07F800
ENDCHAR
STARTCHAR 2462
ENCODING 10345
SWIDTH 1800 0
DWIDTH 18 0
BBX 17 16 0 -3
BITMAP
07F000
180C00
21E200
421100
421100
801080
803080
80E080
801080
801080
441080
421100
236100
108200
080400
07F800
ENDCHAR
STARTCHAR 2463
ENCODING 10346
SWIDTH 1800 0
DWIDTH 18 0
BBX 17 16 0 -3
BITMAP
07F000
180C00
206200
406100
40A100
812080
812080
822080
862080
87F880
402080
402100
202100
100200
080400
07F800
ENDCHAR
STARTCHAR 2464
ENCODING 10347
SWIDTH 1800 0
DWIDTH 18 0
BBX 17 16 0 -3
BITMAP
07F000
180C00
21F200
420100
420100
820080
83E080
821080
801080
800880
421080
421100
21E100
100200
080400
07F800
ENDCHAR
STARTCHAR 2465
ENCODING 10348
SWIDTH 1800 0
DWIDTH 18 0
BBX 17 16 0 -3
BITMAP
07F000
180C00
20F200
411900
420900
820080
82E080
831080
820880
820880
420880
411900
21F100
100200
080400
07F800
ENDCHAR
STARTCHAR 2466
ENCODING 10349
SWIDTH 1800 0
DWIDTH 18 0
BBX 17 16 0 -3
BITMAP
07F000
180C00
200200
43F900
401100
802080
802080
804080
804080
808080
408080
408100
210100
110200
080400
07F800
ENDCHAR
STARTCHAR 2467
ENCODING 10350
SWIDTH 1800 0
DWIDTH 18 0
BBX 17 16 0 -3
BITMAP
07F000
180C00
21E200
421100
421100
821080
822080
81E080
821080
860880
460880
420900
23F100
100200
080400
07F800
ENDCHAR
STARTCHAR 2468
ENCODING 10351
SWIDTH 1800 0
DWIDTH 18 0
BBX 17 16 0 -3
BITMAP
07F000
180C00
21E200
431100
421100
820880
821880
821880
81E880
800880
421080
421100
21E100
100200
080400
07F800
ENDCHAR
STARTCHAR 2469
ENCODING 10352
SWIDTH 1800 0
DWIDTH 18 0
BBX 17 16 0 -3
BITMAP
07F000
180C00
200200
441D00
442700
9C4280
844280
844280
844280
844280
442280
441500
200900
100200
080400
07F800
ENDCHAR
STARTCHAR 246A
ENCODING 10353
SWIDTH 1800 0
DWIDTH 18 0
BBX 17 16 0 -3
BITMAP
07F000
180C00
200200
420900
420900
8E3880
820880
820880
820880
820880
420880
420900
200100
100200
080400
07F800
ENDCHAR
STARTCHAR 246B
ENCODING 10354
SWIDTH 1800 0
DWIDTH 18 0
BBX 17 16 0 -3
BITMAP
07F000
180C00
200200
443D00
444500
8C4480
840480
840880
843080
844080
444080
447D00
200100
100200
080400
07F800
ENDCHAR
STARTCHAR 246C
ENCODING 10355
SWIDTH 1800 0
DWIDTH 18 0
BBX 17 16 0 -3
BITMAP
07F000
180C00
201A00
442500
444300
8C0480
841880
840480
840280
844280
444480
443900
200100
100200
080400
07F800
ENDCHAR
STARTCHAR 246D
ENCODING 10356
SWIDTH 1800 0
DWIDTH 18 0
BBX 17 16 0 -3
BITMAP
07F000
180C00
200200
420900
421900
8E2880
822880
824880
828880
82FC80
420880
420900
200100
100200
080400
07F800
ENDCHAR
STARTCHAR 246E
ENCODING 10357
SWIDTH 1800 0
DWIDTH 18 0
BBX 17 16 1 -3
BITMAP
07F000
180C00
200200
487900
884100
984080
887080
884880
880480
880480
888580
887900
400300
200600
100C00
0FF000
ENDCHAR
STARTCHAR 00BD
ENCODING 10358
SWIDTH 1800 0
DWIDTH 18 0
BBX 13 13 2 -1
BITMAP
2040
2080
E100
2100
2200
2270
2488
2488
0818
0820
10C0
1080
20F8
ENDCHAR
STARTCHAR 2153
ENCODING 10359
SWIDTH 1800 0
DWIDTH 18 0
BBX 14 13 2 -1
BITMAP
2040
E040
2080
2080
2100
2238
2248
0444
0408
0808
0804
1084
0078
ENDCHAR
STARTCHAR 2154
ENCODING 10360
SWIDTH 1800 0
DWIDTH 18 0
BBX 14 13 2 -1
BITMAP
7020
8820
8840
0840
3080
40B0
8148
FA84
0208
0418
0404
0884
0878
ENDCHAR
STARTCHAR 00BC
ENCODING 10361
SWIDTH 1800 0
DWIDTH 18 0
BBX 12 13 3 -1
BITMAP
2000
E000
2080
2100
2100
2220
2260
04A0
08A0
0920
11F0
1020
2020
ENDCHAR
STARTCHAR 00BE
ENCODING 10362
SWIDTH 1800 0
DWIDTH 18 0
BBX 12 12 3 -1
BITMAP
F040
8840
1080
3100
0920
0A60
92A0
74A0
0520
09F0
0820
1020
ENDCHAR
STARTCHAR 215B
ENCODING 10363
SWIDTH 1800 0
DWIDTH 18 0
BBX 13 13 2 -1
BITMAP
2040
E040
2080
2080
2100
2270
2288
0488
0470
0888
0908
1088
1070
ENDCHAR
STARTCHAR 215C
ENCODING 10364
SWIDTH 1800 0
DWIDTH 18 0
BBX 14 13 2 -1
BITMAP
7020
8840
0840
3080
0880
8938
8944
7244
0238
0444
0884
0844
1038
ENDCHAR
STARTCHAR 215D
ENCODING 10365
SWIDTH 1800 0
DWIDTH 18 0
BBX 14 13 2 -1
BITMAP
7820
8040
8080
F080
0900
0938
8A44
7244
0438
0444
0884
0044
0038
ENDCHAR
STARTCHAR 215E
ENCODING 10366
SWIDTH 1800 0
DWIDTH 18 0
BBX 12 13 3 -1
BITMAP
F880
1100
2100
2200
4200
44E0
4910
4910
10E0
1110
2110
2110
00E0
ENDCHAR
STARTCHAR 00E6
ENCODING 10529
SWIDTH 1800 0
DWIDTH 18 0
BBX 14 9 2 0
BITMAP
3CF0
4308
8304
0204
7FFC
8200
8204
8508
78F0
ENDCHAR
STARTCHAR 0111
ENCODING 10530
SWIDTH 1800 0
DWIDTH 18 0
BBX 10 14 4 -1
BITMAP
0100
0100
0FC0
0100
3900
4700
8100
8100
8100
8100
8100
C300
7F00
1800
ENDCHAR
STARTCHAR 00F0
ENCODING 10531
SWIDTH 1800 0
DWIDTH 18 0
BBX 8 13 5 0
BITMAP
22
1C
38
24
02
1A
67
41
81
81
41
42
3C
ENDCHAR
STARTCHAR 0127
ENCODING 10532
SWIDTH 1800 0
DWIDTH 18 0
BBX 9 13 4 0
BITMAP
2000
FC00
2000
2600
3980
2080
2080
2080
2080
2080
2080
2080
2080
ENDCHAR
STARTCHAR 0131
ENCODING 10533
SWIDTH 1800 0
DWIDTH 18 0
BBX 1 9 8 0
BITMAP
80
80
80
80
80
80
80
80
80
ENDCHAR
STARTCHAR 0133
ENCODING 10534
SWIDTH 1800 0
DWIDTH 18 0
BBX 6 15 6 -3
BITMAP
84
00
00
84
84
84
84
84
84
84
84
84
04
04
1C
ENDCHAR
STARTCHAR 0138
ENCODING 10535
SWIDTH 1800 0
DWIDTH 18 0
BBX 7 9 5 0
BITMAP
84
88
90
B0
D0
88
88
84
82
ENDCHAR
STARTCHAR 0140
ENCODING 10536
SWIDTH 1800 0
DWIDTH 18 0
BBX 6 13 6 0
BITMAP
80
80
80
80
80
80
8C
8C
80
80
80
80
80
ENDCHAR
STARTCHAR 0142
ENCODING 10537
SWIDTH 1800 0
DWIDTH 18 0
BBX 7 13 6 0
BITMAP
10
10
12
14
18
18
10
30
50
50
90
10
10
ENDCHAR
STARTCHAR 00F8
ENCODING 10538
SWIDTH 1800 0
DWIDTH 18 0
BBX 10 10 4 0
BITMAP
0C40
3F80
2180
6280
4480
4880
5080
6080
E100
1E00
ENDCHAR
STARTCHAR 0153
ENCODING 10539
SWIDTH 1800 0
DWIDTH 18 0
BBX 15 9 2 0
BITMAP
3C78
428C
C106
8106
81FE
8100
8102
4284
2478
ENDCHAR
STARTCHAR 00DF
ENCODING 10540
SWIDTH 1800 0
DWIDTH 18 0
BBX 8 14 5 -1
BITMAP
38
46
42
82
82
84
8C
83
81
81
81
81
96
08
ENDCHAR
STARTCHAR 00FE
ENCODING 10541
SWIDTH 1800 0
DWIDTH 18 0
BBX 8 14 5 -2
BITMAP
80
80
80
BC
C2
81
81
81
81
81
C2
A4
98
80
ENDCHAR
STARTCHAR 0167
ENCODING 10542
SWIDTH 1800 0
DWIDTH 18 0
BBX 4 11 7 0
BITMAP
40
40
F0
40
F0
40
40
40
40
40
70
ENDCHAR
STARTCHAR 014B
ENCODING 10543
SWIDTH 1800 0
DWIDTH 18 0
BBX 8 13 5 -3
BITMAP
08
F6
C3
C1
C1
C1
C1
C1
C1
C1
01
02
0E
ENDCHAR
STARTCHAR 0149
ENCODING 10544
SWIDTH 1800 0
DWIDTH 18 0
BBX 10 11 4 0
BITMAP
6000
4000
9780
9840
1040
1040
1040
1040
1040
1040
1040
ENDCHAR
STARTCHAR 3200
ENCODING 10545
SWIDTH 1800 0
DWIDTH 18 0
BBX 18 15 0 -2
BITMAP
100000
200200
400100
400080
9FF880
800840
800840
800840
800840
800840
800880
400880
400100
200100
000200
ENDCHAR
STARTCHAR 3201
ENCODING 10546
SWIDTH 1800 0
DWIDTH 18 0
BBX 18 15 0 -2
BITMAP
100000
200200
400100
400080
840080
840040
840040
840040
840040
840040
840080
47FE80
400100
200100
000200
ENDCHAR
STARTCHAR 3202
ENCODING 10547
SWIDTH 1800 0
DWIDTH 18 0
BBX 18 15 0 -2
BITMAP
100000
200200
400100
400080
8FFC80
880040
880040
880040
880040
880040
8FFC80
400080
400100
200100
000200
ENDCHAR
STARTCHAR 3203
ENCODING 10548
SWIDTH 1800 0
DWIDTH 18 0
BBX 18 15 0 -2
BITMAP
100000
200200
400100
400080
8FF880
800840
800840
8FF840
880040
880040
880080
4FFC80
400100
200100
000200
ENDCHAR
STARTCHAR 3204
ENCODING 10549
SWIDTH 1800 0
DWIDTH 18 0
BBX 18 15 0 -2
BITMAP
100000
200200
400100
400080
8FFC80
880440
880440
880440
880440
880440
8FFC80
400080
400100
200100
000200
ENDCHAR
STARTCHAR 3205
ENCODING 10550
SWIDTH 1800 0
DWIDTH 18 0
BBX 18 15 0 -2
BITMAP
100000
200200
400100
480480
880480
880440
8FFC40
880440
880440
880440
8FFC80
480480
400100
200100
000200
ENDCHAR
STARTCHAR 3206
ENCODING 10551
SWIDTH 1800 0
DWIDTH 18 0
BBX 18 15 0 -2
BITMAP
100000
200200
400100
404080
808080
808040
80C040
814040
812040
821040
8C0C80
400080
400100
200100
000200
ENDCHAR
STARTCHAR 3207
ENCODING 10552
SWIDTH 1800 0
DWIDTH 18 0
BBX 18 15 0 -2
BITMAP
100000
200200
400100
400080
83F080
840840
880440
880440
880440
880440
840880
43F080
400100
200100
000200
ENDCHAR
STARTCHAR 3208
ENCODING 10553
SWIDTH 1800 0
DWIDTH 18 0
BBX 18 15 0 -2
BITMAP
100000
200200
400100
400080
8FFC80
808040
80C040
80C040
812040
821040
840C80
480080
400100
200100
000200
ENDCHAR
STARTCHAR 3209
ENCODING 10554
SWIDTH 1800 0
DWIDTH 18 0
BBX 18 15 0 -2
BITMAP
100000
200200
400100
43F080
800080
8FFC40
808040
80C040
814040
823040
8C0C80
400080
400100
200100
000200
ENDCHAR
STARTCHAR 320A
ENCODING 10555
SWIDTH 1800 0
DWIDTH 18 0
BBX 18 15 0 -2
BITMAP
100000
200200
400100
400080
8FF880
800840
800840
8FE840
800840
800840
800880
400880
400100
200100
000200
ENDCHAR
STARTCHAR 320B
ENCODING 10556
SWIDTH 1800 0
DWIDTH 18 0
BBX 18 15 0 -2
BITMAP
100000
200200
400100
400080
87FC80
840040
840040
87FC40
840040
840040
87FE80
400080
400100
200100
000200
ENDCHAR
STARTCHAR 320C
ENCODING 10557
SWIDTH 1800 0
DWIDTH 18 0
BBX 18 15 0 -2
BITMAP
100000
200200
400100
400080
8FFC80
800040
821040
821040
821040
821040
8FFC80
400080
400100
200100
000200
ENDCHAR
STARTCHAR 320D
ENCODING 10558
SWIDTH 1800 0
DWIDTH 18 0
BBX 18 15 0 -2
BITMAP
100000
200200
400100
43E080
800080
8FFC40
800040
83F040
861840
840840
840880
461880
43F100
200100
000200
ENDCHAR
STARTCHAR 320E
ENCODING 10559
SWIDTH 1800 0
DWIDTH 18 0
BBX 18 15 0 -2
BITMAP
100000
200A00
400900
400880
8F8880
808840
810840
810E40
820840
840840
880880
400880
400900
200100
000200
ENDCHAR
STARTCHAR 320F
ENCODING 10560
SWIDTH 1800 0
DWIDTH 18 0
BBX 18 15 0 -2
BITMAP
100000
200900
400900
400880
880840
880840
880840
880E40
880840
88E840
870880
400880
400900
200A00
000200
ENDCHAR
STARTCHAR 3210
ENCODING 10561
SWIDTH 1800 0
DWIDTH 18 0
BBX 18 15 0 -2
BITMAP
100000
200A00
400900
400880
8FC880
880840
880840
880E40
880840
880840
8FC880
400880
400900
200900
000200
ENDCHAR
STARTCHAR 3211
ENCODING 10562
SWIDTH 1800 0
DWIDTH 18 0
BBX 18 15 0 -2
BITMAP
100000
200A00
400900
400880
9F8880
808840
808840
9F8C40
900840
900840
9F8880
400880
400900
200900
000200
ENDCHAR
STARTCHAR 3212
ENCODING 10563
SWIDTH 1800 0
DWIDTH 18 0
BBX 18 15 0 -2
BITMAP
100000
200900
400900
400880
8F8840
888840
888840
888E40
888840
8F8840
800880
400880
400900
200A00
000200
ENDCHAR
STARTCHAR 3213
ENCODING 10564
SWIDTH 1800 0
DWIDTH 18 0
BBX 18 15 0 -2
BITMAP
100000
200A00
400900
488880
888880
888840
8F8840
888E40
888840
888840
8F8880
400880
400900
200900
000200
ENDCHAR
STARTCHAR 3214
ENCODING 10565
SWIDTH 1800 0
DWIDTH 18 0
BBX 18 15 0 -2
BITMAP
100000
200A00
400900
420880
820880
820840
830840
850E40
848840
888840
904880
400880
400900
200100
000200
ENDCHAR
STARTCHAR 3215
ENCODING 10566
SWIDTH 1800 0
DWIDTH 18 0
BBX 18 15 0 -2
BITMAP
100000
200A00
400900
4F0880
890880
908840
908840
908E40
908840
908840
890880
4F0880
400900
200900
000200
ENDCHAR
STARTCHAR 3216
ENCODING 10567
SWIDTH 1800 0
DWIDTH 18 0
BBX 18 15 0 -2
BITMAP
100000
200A00
400900
400880
8FC880
810840
810840
830E40
828840
848840
884880
500880
400900
200900
000200
ENDCHAR
STARTCHAR 3217
ENCODING 10568
SWIDTH 1800 0
DWIDTH 18 0
BBX 18 15 0 -2
BITMAP
100000
200A00
400900
438880
800880
8FC840
810840
810E40
830840
848840
884880
400880
400900
200900
000200
ENDCHAR
STARTCHAR 3218
ENCODING 10569
SWIDTH 1800 0
DWIDTH 18 0
BBX 18 15 0 -2
BITMAP
100000
200A00
400900
400880
8F8880
808840
808840
9F8E40
810840
810840
820880
4C0880
400900
200900
000200
ENDCHAR
STARTCHAR 3219
ENCODING 10570
SWIDTH 1800 0
DWIDTH 18 0
BBX 18 15 0 -2
BITMAP
100000
200A00
400900
400880
8FC880
880840
880840
8F8E40
880840
880840
882880
4FC880
400900
200900
000200
ENDCHAR
STARTCHAR 321A
ENCODING 10571
SWIDTH 1800 0
DWIDTH 18 0
BBX 18 15 0 -2
BITMAP
100000
200A00
400900
4FC880
800880
800840
844840
848E40
848840
848840
9FE880
400880
400900
200900
000200
ENDCHAR
STARTCHAR 321B
ENCODING 10572
SWIDTH 1800 0
DWIDTH 18 0
BBX 18 15 0 -2
BITMAP
100000
200A00
400900
470880
800880
9FC840
800840
878E40
884840
884840
884880
478880
400900
200900
100200
ENDCHAR
STARTCHAR 249C
ENCODING 10573
SWIDTH 1800 0
DWIDTH 18 0
BBX 18 15 0 -2
BITMAP
100000
200200
400100
41E080
822080
821040
807040
83D040
821040
841040
827880
418080
400100
200100
000200
ENDCHAR
STARTCHAR 249D
ENCODING 10574
SWIDTH 1800 0
DWIDTH 18 0
BBX 18 15 0 -2
BITMAP
100000
200200
420100
420080
820080
82F040
831040
820840
820840
820840
820880
421080
43E100
200100
000200
ENDCHAR
STARTCHAR 249E
ENCODING 10575
SWIDTH 1800 0
DWIDTH 18 0
BBX 18 15 0 -2
BITMAP
100000
200200
400100
40C080
833080
821040
840040
840040
840040
821040
813080
40C080
400100
200100
000200
ENDCHAR
STARTCHAR 249F
ENCODING 10576
SWIDTH 1800 0
DWIDTH 18 0
BBX 18 15 0 -2
BITMAP
100000
200200
401100
401080
801080
83D040
823040
841040
841040
841040
841080
423080
41D100
200100
000200
ENDCHAR
STARTCHAR 24A0
ENCODING 10577
SWIDTH 1800 0
DWIDTH 18 0
BBX 18 15 0 -2
BITMAP
100000
200200
400100
400080
81E080
821040
841040
87F040
840040
821040
821080
41E080
400100
200100
000200
ENDCHAR
STARTCHAR 24A1
ENCODING 10578
SWIDTH 1800 0
DWIDTH 18 0
BBX 18 15 0 -2
BITMAP
100000
200200
40E100
408080
808080
81C040
808040
808040
808040
808040
808080
408080
408100
200100
000200
ENDCHAR
STARTCHAR 24A2
ENCODING 10579
SWIDTH 1800 0
DWIDTH 18 0
BBX 18 15 0 -2
BITMAP
100000
200200
40E900
411880
820880
820840
820840
820840
821840
812840
80C880
421080
41E100
200100
000200
ENDCHAR
STARTCHAR 24A3
ENCODING 10580
SWIDTH 1800 0
DWIDTH 18 0
BBX 18 15 0 -2
BITMAP
100000
200200
420100
420080
820080
82F040
831040
821040
821040
821040
821080
421080
421100
200100
000200
ENDCHAR
STARTCHAR 24A4
ENCODING 10581
SWIDTH 1800 0
DWIDTH 18 0
BBX 18 15 0 -2
BITMAP
100000
200200
408100
400080
800080
808040
808040
808040
808040
808040
808080
408080
408100
200100
000200
ENDCHAR
STARTCHAR 24A5
ENCODING 10582
SWIDTH 1800 0
DWIDTH 18 0
BBX 18 15 0 -2
BITMAP
100000
204200
400100
400080
804080
804040
804040
804040
804040
804040
804080
404080
404100
208100
018200
ENDCHAR
STARTCHAR 24A6
ENCODING 10583
SWIDTH 1800 0
DWIDTH 18 0
BBX 18 15 0 -2
BITMAP
100000
200200
420100
420080
820080
823040
824040
828040
838040
824040
822080
422080
421100
200100
000200
ENDCHAR
STARTCHAR 24A7
ENCODING 10584
SWIDTH 1800 0
DWIDTH 18 0
BBX 18 15 0 -2
BITMAP
100000
200200
408100
408080
808080
808040
808040
808040
808040
808040
808080
408080
408100
200100
000200
ENDCHAR
STARTCHAR 24A8
ENCODING 10585
SWIDTH 1800 0
DWIDTH 18 0
BBX 18 15 0 -2
BITMAP
100000
200200
400100
433880
9CC480
988440
908440
908440
908440
908440
908480
400080
400100
200100
000200
ENDCHAR
STARTCHAR 24A9
ENCODING 10586
SWIDTH 1800 0
DWIDTH 18 0
BBX 18 15 0 -2
BITMAP
100000
200200
400100
400080
83F080
821040
821040
821040
821040
821040
821080
421080
400100
200100
000200
ENDCHAR
STARTCHAR 24AA
ENCODING 10587
SWIDTH 1800 0
DWIDTH 18 0
BBX 18 15 0 -2
BITMAP
100000
200200
400100
41E080
821080
840840
840840
840840
840840
840840
821080
41E080
400100
200100
000200
ENDCHAR
STARTCHAR 24AB
ENCODING 10588
SWIDTH 1800 0
DWIDTH 18 0
BBX 18 15 0 -2
BITMAP
100000
200200
40E100
431080
820880
820840
820840
820840
830840
839040
826080
420080
420100
200100
000200
ENDCHAR
STARTCHAR 24AC
ENCODING 10589
SWIDTH 1800 0
DWIDTH 18 0
BBX 18 15 0 -2
BITMAP
100000
200200
400100
43D080
843080
841040
841040
841040
841040
823040
81D080
401080
401100
200100
000200
ENDCHAR
STARTCHAR 24AD
ENCODING 10590
SWIDTH 1800 0
DWIDTH 18 0
BBX 18 15 0 -2
BITMAP
100000
200200
400100
400080
80A080
80C040
808040
808040
808040
808040
808080
400080
400100
200100
000200
ENDCHAR
STARTCHAR 24AE
ENCODING 10591
SWIDTH 1800 0
DWIDTH 18 0
BBX 18 15 0 -2
BITMAP
100000
200200
400100
41E080
823080
821040
810040
80E040
801040
821040
812080
40C080
400100
200100
000200
ENDCHAR
STARTCHAR 24AF
ENCODING 10592
SWIDTH 1800 0
DWIDTH 18 0
BBX 18 15 0 -2
BITMAP
100000
200200
400100
408080
808080
81C040
808040
808040
808040
808040
808080
408080
40C100
200100
000200
ENDCHAR
STARTCHAR 24B0
ENCODING 10593
SWIDTH 1800 0
DWIDTH 18 0
BBX 18 15 0 -2
BITMAP
100000
200200
400100
400080
821080
821040
821040
821040
821040
821040
823080
41D080
400100
200100
000200
ENDCHAR
STARTCHAR 24B1
ENCODING 10594
SWIDTH 1800 0
DWIDTH 18 0
BBX 18 15 0 -2
BITMAP
100000
200200
400100
400080
801080
821040
821040
812040
812040
814040
80C080
40C080
400100
200100
000200
ENDCHAR
STARTCHAR 24B2
ENCODING 10595
SWIDTH 1800 0
DWIDTH 18 0
BBX 18 15 0 -2
BITMAP
100000
200200
400100
400080
884480
88C440
88C440
852840
852840
852840
833080
421080
400100
200100
000200
ENDCHAR
STARTCHAR 24B3
ENCODING 10596
SWIDTH 1800 0
DWIDTH 18 0
BBX 18 15 0 -2
BITMAP
100000
200200
400100
400080
821080
812040
80C040
80C040
80C040
812040
821080
400080
400100
200100
000200
ENDCHAR
STARTCHAR 24B4
ENCODING 10597
SWIDTH 1800 0
DWIDTH 18 0
BBX 18 15 0 -2
BITMAP
100000
200200
400100
420080
821080
811040
812040
812040
80A040
80C040
804080
408080
408100
210100
000200
ENDCHAR
STARTCHAR 24B5
ENCODING 10598
SWIDTH 1800 0
DWIDTH 18 0
BBX 18 15 0 -2
BITMAP
100000
200200
400100
400080
83F080
802040
802040
804040
808040
810040
820080
43F080
400100
200100
000200
ENDCHAR
STARTCHAR 2474
ENCODING 10599
SWIDTH 1800 0
DWIDTH 18 0
BBX 18 15 0 -2
BITMAP
100000
200200
404100
404080
83C080
804040
804040
804040
804040
804040
804080
404080
404100
200100
000200
ENDCHAR
STARTCHAR 2475
ENCODING 10600
SWIDTH 1800 0
DWIDTH 18 0
BBX 18 15 0 -2
BITMAP
100000
204200
41B100
421080
821080
801040
801040
802040
80C040
810040
820080
420080
43F100
200100
000200
ENDCHAR
STARTCHAR 2476
ENCODING 10601
SWIDTH 1800 0
DWIDTH 18 0
BBX 18 15 0 -2
BITMAP
100000
200200
41E100
421080
821080
801040
802040
80E040
801040
801040
841080
421080
437100
208100
000200
ENDCHAR
STARTCHAR 2477
ENCODING 10602
SWIDTH 1800 0
DWIDTH 18 0
BBX 18 15 0 -2
BITMAP
100000
200200
400100
40C080
80C080
814040
834040
824040
844040
8C4040
8FF080
404080
404100
204100
000200
ENDCHAR
STARTCHAR 2478
ENCODING 10603
SWIDTH 1800 0
DWIDTH 18 0
BBX 18 15 0 -2
BITMAP
100000
200200
41F100
410080
810080
820040
82E040
831040
800840
800840
820880
421080
41F100
200100
000200
ENDCHAR
STARTCHAR 2479
ENCODING 10604
SWIDTH 1800 0
DWIDTH 18 0
BBX 18 15 0 -2
BITMAP
100000
200200
40F100
411080
820880
820040
82E040
831040
820840
820840
820880
421880
41F100
200100
000200
ENDCHAR
STARTCHAR 247A
ENCODING 10605
SWIDTH 1800 0
DWIDTH 18 0
BBX 18 15 0 -2
BITMAP
100000
200200
400100
43F080
801080
802040
802040
804040
804040
808040
808080
408080
410100
210100
000200
ENDCHAR
STARTCHAR 247B
ENCODING 10606
SWIDTH 1800 0
DWIDTH 18 0
BBX 18 15 0 -2
BITMAP
100000
200200
41E100
421080
821880
821840
821040
81F040
831840
820840
820880
421880
41F100
200100
000200
ENDCHAR
STARTCHAR 247C
ENCODING 10607
SWIDTH 1800 0
DWIDTH 18 0
BBX 18 15 0 -2
BITMAP
100000
200200
43C100
422080
841080
841040
841040
823040
81D040
801040
801080
422080
436100
208100
000200
ENDCHAR
STARTCHAR 247D
ENCODING 10608
SWIDTH 1800 0
DWIDTH 18 0
BBX 18 15 0 -2
BITMAP
100000
201A00
442500
4C2480
842480
842440
842440
842440
842440
842440
842480
442480
441900
200100
000200
ENDCHAR
STARTCHAR 247E
ENCODING 10609
SWIDTH 1800 0
DWIDTH 18 0
BBX 18 15 0 -2
BITMAP
100000
200200
420900
461880
820880
820840
820840
820840
820840
820840
820880
420880
420900
200100
000200
ENDCHAR
STARTCHAR 247F
ENCODING 10610
SWIDTH 1800 0
DWIDTH 18 0
BBX 18 15 0 -2
BITMAP
100000
200200
443D00
4C4480
844480
840440
840840
841040
842040
842040
844080
444080
444100
207D00
000200
ENDCHAR
STARTCHAR 2480
ENCODING 10611
SWIDTH 1800 0
DWIDTH 18 0
BBX 18 15 0 -2
BITMAP
100000
201200
442900
4C4480
840480
840840
840840
840840
840440
840440
844480
444480
442900
203900
000200
ENDCHAR
STARTCHAR 2481
ENCODING 10612
SWIDTH 1800 0
DWIDTH 18 0
BBX 18 15 0 -2
BITMAP
100000
200200
440900
4C1880
841880
842840
842840
844840
844840
844840
847C80
440880
440900
200900
000200
ENDCHAR
STARTCHAR 2482
ENCODING 10613
SWIDTH 1800 0
DWIDTH 18 0
BBX 18 15 0 -2
BITMAP
100000
200200
447900
4C4080
844080
844040
847840
844440
844440
840440
840480
444480
444500
243900
000200
ENDCHAR
STARTCHAR 00B9
ENCODING 10614
SWIDTH 1800 0
DWIDTH 18 0
BBX 2 8 8 6
BITMAP
40
C0
40
40
40
40
40
40
ENDCHAR
STARTCHAR 00B2
ENCODING 10615
SWIDTH 1800 0
DWIDTH 18 0
BBX 5 8 6 6
BITMAP
30
48
08
08
10
60
80
F8
ENDCHAR
STARTCHAR 00B3
ENCODING 10616
SWIDTH 1800 0
DWIDTH 18 0
BBX 6 8 6 6
BITMAP
78
04
0C
38
04
84
84
78
ENDCHAR
STARTCHAR 2074
ENCODING 10617
SWIDTH 1800 0
DWIDTH 18 0
BBX 5 8 7 6
BITMAP
10
30
50
50
90
F8
10
10
ENDCHAR
STARTCHAR 207F
ENCODING 10618
SWIDTH 1800 0
DWIDTH 18 0
BBX 6 6 6 6
BITMAP
FC
84
84
84
84
84
ENDCHAR
STARTCHAR 2081
ENCODING 10619
SWIDTH 1800 0
DWIDTH 18 0
BBX 3 8 7 -3
BITMAP
20
20
E0
20
20
20
20
20
ENDCHAR
STARTCHAR 2082
ENCODING 10620
SWIDTH 1800 0
DWIDTH 18 0
BBX 5 8 6 -3
BITMAP
38
48
48
08
10
60
80
F8
ENDCHAR
STARTCHAR 2083
ENCODING 10621
SWIDTH 1800 0
DWIDTH 18 0
BBX 6 8 6 -3
BITMAP
38
44
04
18
04
84
84
78
ENDCHAR
STARTCHAR 2084
ENCODING 10622
SWIDTH 1800 0
DWIDTH 18 0
BBX 5 8 7 -3
BITMAP
10
30
50
50
90
F8
10
10
ENDCHAR
STARTCHAR 3041
ENCODING 10785
SWIDTH 1800 0
DWIDTH 18 0
BBX 10 10 4 -2
BITMAP
0800
1200
7C00
1200
1F00
3480
5840
8840
F880
0300
ENDCHAR
STARTCHAR 3042
ENCODING 10786
SWIDTH 1800 0
DWIDTH 18 0
BBX 14 15 2 -2
BITMAP
0600
0400
04C0
3F00
0400
0440
07F0
0888
3508
4504
4604
8608
8C08
7010
0060
ENDCHAR
STARTCHAR 3043
ENCODING 10787
SWIDTH 1800 0
DWIDTH 18 0
BBX 10 7 4 -2
BITMAP
8000
8100
8080
8080
8040
5000
3000
ENDCHAR
STARTCHAR 3044
ENCODING 10788
SWIDTH 1800 0
DWIDTH 18 0
BBX 13 11 2 0
BITMAP
C000
8000
8020
8010
8018
8008
4008
4000
6400
3C00
1000
ENDCHAR
STARTCHAR 3045
ENCODING 10789
SWIDTH 1800 0
DWIDTH 18 0
BBX 6 11 6 -2
BITMAP
30
08
00
00
7C
84
04
04
04
08
10
ENDCHAR
STARTCHAR 3046
ENCODING 10790
SWIDTH 1800 0
DWIDTH 18 0
BBX 8 15 5 -2
BITMAP
10
0C
02
00
1E
61
81
01
01
01
01
02
02
04
08
ENDCHAR
STARTCHAR 3047
ENCODING 10791
SWIDTH 1800 0
DWIDTH 18 0
BBX 8 10 5 -2
BITMAP
18
00
00
7C
08
10
38
48
84
87
ENDCHAR
STARTCHAR 3048
ENCODING 10792
SWIDTH 1800 0
DWIDTH 18 0
BBX 12 14 3 -1
BITMAP
0C00
0380
0000
0000
0300
7D00
0200
0400
0800
0E00
1100
2100
4100
81F0
ENDCHAR
STARTCHAR 3049
ENCODING 10793
SWIDTH 1800 0
DWIDTH 18 0
BBX 10 10 4 -2
BITMAP
1000
1000
7880
1000
1300
1C80
7040
5040
9180
6000
ENDCHAR
STARTCHAR 304A
ENCODING 10794
SWIDTH 1800 0
DWIDTH 18 0
BBX 13 14 3 -1
BITMAP
1000
1000
1000
1220
FC18
1000
1000
13C0
1C30
7010
9010
9010
9020
71C0
ENDCHAR
STARTCHAR 304B
ENCODING 10795
SWIDTH 1800 0
DWIDTH 18 0
BBX 15 13 2 -1
BITMAP
0800
0800
0800
1710
F988
1084
2086
2080
2080
4180
C100
8100
0E00
ENDCHAR
STARTCHAR 304C
ENCODING 10796
SWIDTH 1800 0
DWIDTH 18 0
BBX 14 14 2 -1
BITMAP
0004
0808
0800
0800
1F10
F188
108C
2084
2080
4080
4100
8100
8300
0E00
ENDCHAR
STARTCHAR 304D
ENCODING 10797
SWIDTH 1800 0
DWIDTH 18 0
BBX 10 14 4 -2
BITMAP
0800
0B80
7C00
0440
0380
7E00
0100
0080
7F80
8000
8000
C000
7000
0E00
ENDCHAR
STARTCHAR 304E
ENCODING 10798
SWIDTH 1800 0
DWIDTH 18 0
BBX 12 15 3 -2
BITMAP
0020
1850
0B20
7C00
0480
0780
FA00
0300
0100
7F80
8080
8000
8000
7000
0E00
ENDCHAR
STARTCHAR 304F
ENCODING 10799
SWIDTH 1800 0
DWIDTH 18 0
BBX 6 15 6 -2
BITMAP
08
08
10
10
20
40
80
80
40
20
30
10
08
0C
04
ENDCHAR
STARTCHAR 3050
ENCODING 10800
SWIDTH 1800 0
DWIDTH 18 0
BBX 10 14 4 -2
BITMAP
0800
0800
1040
2100
6080
C000
8000
C000
4000
2000
1000
0800
0C00
0400
ENDCHAR
STARTCHAR 3051
ENCODING 10801
SWIDTH 1800 0
DWIDTH 18 0
BBX 14 14 2 -2
BITMAP
6020
4020
4020
47FC
4020
8020
8020
8020
8020
4020
6040
4040
4080
0180
ENDCHAR
STARTCHAR 3052
ENCODING 10802
SWIDTH 1800 0
DWIDTH 18 0
BBX 15 16 1 -2
BITMAP
0002
0008
4024
4020
4020
407C
41A0
8020
8020
8020
4020
4020
6020
4040
00C0
0180
ENDCHAR
STARTCHAR 3053
ENCODING 10803
SWIDTH 1800 0
DWIDTH 18 0
BBX 10 11 4 0
BITMAP
3980
0600
0000
0000
0000
0000
8000
8000
8000
C000
3FC0
ENDCHAR
STARTCHAR 3054
ENCODING 10804
SWIDTH 1800 0
DWIDTH 18 0
BBX 14 11 2 0
BITMAP
3980
0604
0010
0000
0000
0000
8000
8000
8000
4000
3FE0
ENDCHAR
STARTCHAR 3055
ENCODING 10805
SWIDTH 1800 0
DWIDTH 18 0
BBX 10 13 4 -1
BITMAP
0800
0400
0780
7E00
0200
0100
0080
7FC0
80C0
8000
8000
C000
3E00
ENDCHAR
STARTCHAR 3056
ENCODING 10806
SWIDTH 1800 0
DWIDTH 18 0
BBX 14 14 2 -1
BITMAP
0008
0414
0410
03C0
7E00
0100
0100
0080
3F40
40C0
8000
8000
4000
3F00
ENDCHAR
STARTCHAR 3057
ENCODING 10807
SWIDTH 1800 0
DWIDTH 18 0
BBX 10 14 4 -2
BITMAP
C000
8000
8000
8000
8000
8000
8000
8000
8000
8040
80C0
4180
6600
1800
ENDCHAR
STARTCHAR 3058
ENCODING 10808
SWIDTH 1800 0
DWIDTH 18 0
BBX 10 14 4 -1
BITMAP
8000
C000
8080
8200
8000
8000
8000
8000
8000
8000
8040
8080
4100
3E00
ENDCHAR
STARTCHAR 3059
ENCODING 10809
SWIDTH 1800 0
DWIDTH 18 0
BBX 14 15 3 -2
BITMAP
0100
0100
0100
7FFC
8100
0100
0F00
1100
1100
1100
0F00
0100
0200
0400
0800
ENDCHAR
STARTCHAR 305A
ENCODING 10810
SWIDTH 1800 0
DWIDTH 18 0
BBX 14 16 2 -2
BITMAP
0008
0010
0108
0100
7FFC
8100
0100
0F00
1100
1100
1100
0F00
0100
0200
0400
0800
ENDCHAR
STARTCHAR 305B
ENCODING 10811
SWIDTH 1800 0
DWIDTH 18 0
BBX 15 13 2 -1
BITMAP
0020
0820
0820
0820
1FFE
E820
0820
0820
0840
08C0
0800
0800
07F0
ENDCHAR
STARTCHAR 305C
ENCODING 10812
SWIDTH 1800 0
DWIDTH 18 0
BBX 16 14 1 -1
BITMAP
0002
0031
0824
0820
0820
0FFE
F820
0820
0820
0820
08C0
0800
0800
07F8
ENDCHAR
STARTCHAR 305D
ENCODING 10813
SWIDTH 1800 0
DWIDTH 18 0
BBX 12 14 3 -1
BITMAP
0040
2080
1100
0100
0210
0FE0
F100
0200
0400
0400
0400
0400
0300
01C0
ENDCHAR
STARTCHAR 305E
ENCODING 10814
SWIDTH 1800 0
DWIDTH 18 0
BBX 14 14 2 -2
BITMAP
20C4
1088
1108
0200
0210
0FE0
F100
0200
0400
0800
0400
0400
0200
0180
ENDCHAR
STARTCHAR 305F
ENCODING 10815
SWIDTH 1800 0
DWIDTH 18 0
BBX 12 14 3 -1
BITMAP
1800
1000
1000
1400
F800
21F0
2000
2000
2000
4000
4200
4400
C200
81F0
ENDCHAR
STARTCHAR 3060
ENCODING 10816
SWIDTH 1800 0
DWIDTH 18 0
BBX 14 14 2 -1
BITMAP
1800
100C
1010
1408
F800
11F0
2000
2000
2000
2000
4200
4400
4300
80F8
ENDCHAR
STARTCHAR 3061
ENCODING 10817
SWIDTH 1800 0
DWIDTH 18 0
BBX 12 13 3 -1
BITMAP
1000
1000
1300
FC00
1000
2000
23E0
2C30
3010
0010
0010
0060
0780
ENDCHAR
STARTCHAR 3062
ENCODING 10818
SWIDTH 1800 0
DWIDTH 18 0
BBX 14 13 2 -1
BITMAP
1008
1024
1310
FC00
1000
2000
23C0
2C30
3010
0010
0010
0060
0780
ENDCHAR
STARTCHAR 3063
ENCODING 10819
SWIDTH 1800 0
DWIDTH 18 0
BBX 10 7 4 -2
BITMAP
0F00
F080
0040
0040
0080
0180
0600
ENDCHAR
STARTCHAR 3064
ENCODING 10820
SWIDTH 1800 0
DWIDTH 18 0
BBX 13 10 3 0
BITMAP
0FE0
F010
0008
0008
0008
0008
0010
0020
00C0
0300
ENDCHAR
STARTCHAR 3065
ENCODING 10821
SWIDTH 1800 0
DWIDTH 18 0
BBX 15 13 2 0
BITMAP
0004
0002
0008
1FE0
E010
0008
0008
0008
0008
0010
0020
00C0
0300
ENDCHAR
STARTCHAR 3066
ENCODING 10822
SWIDTH 1800 0
DWIDTH 18 0
BBX 12 13 3 -1
BITMAP
00F0
FFC0
8100
0200
0200
0400
0400
0400
0400
0400
0200
0180
0060
ENDCHAR
STARTCHAR 3067
ENCODING 10823
SWIDTH 1800 0
DWIDTH 18 0
BBX 15 13 2 -1
BITMAP
00F0
FFC0
8100
0204
0412
0408
0400
0400
0400
0400
0200
0180
0040
ENDCHAR
STARTCHAR 3068
ENCODING 10824
SWIDTH 1800 0
DWIDTH 18 0
BBX 10 13 4 -1
BITMAP
2000
3000
1080
1180
1600
1800
2000
4000
8000
8000
8000
4040
3FC0
ENDCHAR
STARTCHAR 3069
ENCODING 10825
SWIDTH 1800 0
DWIDTH 18 0
BBX 14 14 2 -1
BITMAP
0008
2024
1010
1040
1180
0E00
0800
3000
4000
4000
8000
4000
6040
1FC0
ENDCHAR
STARTCHAR 306A
ENCODING 10826
SWIDTH 1800 0
DWIDTH 18 0
BBX 14 15 2 -2
BITMAP
0800
0800
0A00
7C18
100C
1040
2040
2040
4040
C040
0040
07E0
0858
04C8
0300
ENDCHAR
STARTCHAR 306B
ENCODING 10827
SWIDTH 1800 0
DWIDTH 18 0
BBX 12 13 3 -1
BITMAP
4000
80E0
8710
8000
8000
8000
8000
8000
8400
8400
C600
C1F0
4000
ENDCHAR
STARTCHAR 306C
ENCODING 10828
SWIDTH 1800 0
DWIDTH 18 0
BBX 14 13 2 -1
BITMAP
0200
0200
4200
4FE0
5210
2208
6408
9408
8C08
8808
95F0
E13C
00E4
ENDCHAR
STARTCHAR 306D
ENCODING 10829
SWIDTH 1800 0
DWIDTH 18 0
BBX 15 14 1 -1
BITMAP
1800
1000
1000
1C78
F988
1604
1804
3004
3004
5004
D0FC
108A
1090
1060
ENDCHAR
STARTCHAR 306E
ENCODING 10830
SWIDTH 1800 0
DWIDTH 18 0
BBX 14 11 2 -1
BITMAP
0FF0
3118
4308
8204
8204
8604
8404
8C04
C808
7010
0020
ENDCHAR
STARTCHAR 306F
ENCODING 10831
SWIDTH 1800 0
DWIDTH 18 0
BBX 13 13 2 -1
BITMAP
4060
4040
4040
47F8
8020
8020
8020
8020
8020
81E0
6638
4420
43C0
ENDCHAR
STARTCHAR 3070
ENCODING 10832
SWIDTH 1800 0
DWIDTH 18 0
BBX 15 14 1 -1
BITMAP
0002
2028
4024
4020
43F8
4020
4020
8020
8020
8020
41E0
6238
4424
43E0
ENDCHAR
STARTCHAR 3071
ENCODING 10833
SWIDTH 1800 0
DWIDTH 18 0
BBX 15 14 2 -1
BITMAP
001E
4052
805E
8040
87F8
8040
8040
8040
8040
8040
81C0
C670
C848
47C0
ENDCHAR
STARTCHAR 3072
ENCODING 10834
SWIDTH 1800 0
DWIDTH 18 0
BBX 14 13 2 -1
BITMAP
0040
3860
D020
2030
2028
4024
4020
4020
4040
4040
40C0
2180
1E00
ENDCHAR
STARTCHAR 3073
ENCODING 10835
SWIDTH 1800 0
DWIDTH 18 0
BBX 15 14 2 -1
BITMAP
0004
0042
7048
A060
2060
4050
4048
8040
8040
8040
8080
8080
4100
3E00
ENDCHAR
STARTCHAR 3074
ENCODING 10836
SWIDTH 1800 0
DWIDTH 18 0
BBX 15 13 2 -1
BITMAP
005E
3052
E06E
2060
4050
4048
8040
8040
8040
8080
8080
4100
3E00
ENDCHAR
STARTCHAR 3075
ENCODING 10837
SWIDTH 1800 0
DWIDTH 18 0
BBX 14 13 2 -1
BITMAP
0600
0180
0200
0000
0400
0400
0400
0200
0108
808C
9084
6280
0100
ENDCHAR
STARTCHAR 3076
ENCODING 10838
SWIDTH 1800 0
DWIDTH 18 0
BBX 14 13 2 -1
BITMAP
0600
0180
0204
0010
0408
0400
0400
0200
0108
808C
9084
6280
0100
ENDCHAR
STARTCHAR 3077
ENCODING 10839
SWIDTH 1800 0
DWIDTH 18 0
BBX 14 13 2 -1
BITMAP
0600
0180
001C
0014
041C
0400
0400
0200
0108
808C
9084
6280
0100
ENDCHAR
STARTCHAR 3078
ENCODING 10840
SWIDTH 1800 0
DWIDTH 18 0
BBX 14 7 2 2
BITMAP
0C00
3200
6180
C0C0
8030
001C
0004
ENDCHAR
STARTCHAR 3079
ENCODING 10841
SWIDTH 1800 0
DWIDTH 18 0
BBX 14 8 2 2
BITMAP
0008
0C20
3210
6180
C0C0
8030
001C
0004
ENDCHAR
STARTCHAR 307A
ENCODING 10842
SWIDTH 1800 0
DWIDTH 18 0
BBX 14 8 2 2
BITMAP
003C
0C24
3224
6198
C0C0
8030
001C
0004
ENDCHAR
STARTCHAR 307B
ENCODING 10843
SWIDTH 1800 0
DWIDTH 18 0
BBX 14 14 2 -2
BITMAP
4018
43E0
4020
4020
4038
83E0
8020
8020
8020
81E0
C630
442C
42C0
0100
ENDCHAR
STARTCHAR 307C
ENCODING 10844
SWIDTH 1800 0
DWIDTH 18 0
BBX 15 13 1 -1
BITMAP
2030
47C2
4048
4044
4070
4FC0
4040
8040
8040
A3C0
4C60
4858
4780
ENDCHAR
STARTCHAR 307D
ENCODING 10845
SWIDTH 1800 0
DWIDTH 18 0
BBX 15 13 1 -1
BITMAP
07F0
604E
404A
404E
47F0
4040
4040
8040
8040
A7C0
CC70
4848
4780
ENDCHAR
STARTCHAR 307E
ENCODING 10846
SWIDTH 1800 0
DWIDTH 18 0
BBX 9 14 4 -1
BITMAP
0400
0400
0480
7F00
0400
0400
7F00
0400
0400
0400
7E00
C580
8480
7800
ENDCHAR
STARTCHAR 307F
ENCODING 10847
SWIDTH 1800 0
DWIDTH 18 0
BBX 14 13 2 -1
BITMAP
0300
1D00
0100
0210
0210
0410
3F90
6870
882C
9024
9040
6080
0100
ENDCHAR
STARTCHAR 3080
ENCODING 10848
SWIDTH 1800 0
DWIDTH 18 0
BBX 14 14 2 -1
BITMAP
0800
0800
0800
7E18
080C
0800
7800
8800
8800
8800
D010
3008
1010
0FE0
ENDCHAR
STARTCHAR 3081
ENCODING 10849
SWIDTH 1800 0
DWIDTH 18 0
BBX 14 13 2 -1
BITMAP
0080
0080
2080
2770
1918
3108
4A04
8A04
8404
8404
9A08
6030
0060
ENDCHAR
STARTCHAR 3082
ENCODING 10850
SWIDTH 1800 0
DWIDTH 18 0
BBX 10 14 4 -1
BITMAP
1000
1000
2000
E400
3800
2000
2000
EC80
5040
4040
4040
2040
20C0
1F00
ENDCHAR
STARTCHAR 3083
ENCODING 10851
SWIDTH 1800 0
DWIDTH 18 0
BBX 10 9 4 -1
BITMAP
0800
0400
4180
2E40
3040
E0C0
1300
1000
0800
ENDCHAR
STARTCHAR 3084
ENCODING 10852
SWIDTH 1800 0
DWIDTH 18 0
BBX 14 12 2 0
BITMAP
2200
2178
3184
1E04
3004
C804
0898
0460
0400
0200
0200
0300
ENDCHAR
STARTCHAR 3085
ENCODING 10853
SWIDTH 1800 0
DWIDTH 18 0
BBX 10 9 4 -2
BITMAP
0200
4200
4F80
9240
A240
4440
4D80
4600
0800
ENDCHAR
STARTCHAR 3086
ENCODING 10854
SWIDTH 1800 0
DWIDTH 18 0
BBX 14 13 2 -1
BITMAP
0080
4080
41F0
8688
8884
9084
A084
C084
C488
C298
41E0
0100
0600
ENDCHAR
STARTCHAR 3087
ENCODING 10855
SWIDTH 1800 0
DWIDTH 18 0
BBX 8 10 5 -2
BITMAP
08
08
0B
0C
08
08
08
7C
8B
70
ENDCHAR
STARTCHAR 3088
ENCODING 10856
SWIDTH 1800 0
DWIDTH 18 0
BBX 10 14 4 -1
BITMAP
0400
0400
0400
04C0
0700
0400
0400
0400
0400
0400
7F00
84C0
8C00
5800
ENDCHAR
STARTCHAR 3089
ENCODING 10857
SWIDTH 1800 0
DWIDTH 18 0
BBX 9 14 4 -1
BITMAP
3000
1800
0000
8000
8000
8000
8000
9F00
E080
8080
0080
0080
0100
0E00
ENDCHAR
STARTCHAR 308A
ENCODING 10858
SWIDTH 1800 0
DWIDTH 18 0
BBX 8 14 5 -2
BITMAP
41
81
81
81
81
81
C1
C1
C1
02
02
06
04
08
ENDCHAR
STARTCHAR 308B
ENCODING 10859
SWIDTH 1800 0
DWIDTH 18 0
BBX 11 13 4 -1
BITMAP
0F00
7200
0400
0800
1000
3FC0
6060
8020
0020
1C20
2240
2280
1F00
ENDCHAR
STARTCHAR 308C
ENCODING 10860
SWIDTH 1800 0
DWIDTH 18 0
BBX 14 13 2 -1
BITMAP
1000
1000
1000
39E0
D210
1C20
1020
3020
5020
5020
9024
1038
1000
ENDCHAR
STARTCHAR 308D
ENCODING 10861
SWIDTH 1800 0
DWIDTH 18 0
BBX 12 13 3 -1
BITMAP
3F80
0300
0200
0400
0800
17C0
3820
6010
C010
0010
0020
00C0
0380
ENDCHAR
STARTCHAR 308E
ENCODING 10862
SWIDTH 1800 0
DWIDTH 18 0
BBX 10 10 4 -2
BITMAP
2000
2000
3000
EF80
3080
6040
A040
A080
2100
2000
ENDCHAR
STARTCHAR 308F
ENCODING 10863
SWIDTH 1800 0
DWIDTH 18 0
BBX 13 14 3 -1
BITMAP
1000
1000
1000
1800
F1E0
1618
1808
3008
7008
5008
9008
9010
10E0
1000
ENDCHAR
STARTCHAR 3090
ENCODING 10864
SWIDTH 1800 0
DWIDTH 18 0
BBX 14 13 2 -1
BITMAP
0380
1D00
0100
0300
03C0
0E30
3408
6408
4804
8804
93C8
9278
63E0
ENDCHAR
STARTCHAR 3091
ENCODING 10865
SWIDTH 1800 0
DWIDTH 18 0
BBX 13 13 2 -1
BITMAP
01C0
0E80
0100
0200
07E0
0810
3710
0510
0220
0DC0
10F0
6D08
C608
ENDCHAR
STARTCHAR 3092
ENCODING 10866
SWIDTH 1800 0
DWIDTH 18 0
BBX 12 15 3 -2
BITMAP
0400
0800
0B00
7C00
1000
1000
2C00
3330
41C0
8300
0D00
1100
2000
1000
0FC0
ENDCHAR
STARTCHAR 3093
ENCODING 10867
SWIDTH 1800 0
DWIDTH 18 0
BBX 13 13 3 -1
BITMAP
0400
0400
0C00
0800
1800
1000
2000
3E00
6200
4100
8118
8110
00E0
ENDCHAR
STARTCHAR 30A1
ENCODING 11041
SWIDTH 1800 0
DWIDTH 18 0
BBX 8 9 5 -2
BITMAP
FF
01
02
14
10
20
20
20
C0
ENDCHAR
STARTCHAR 30A2
ENCODING 11042
SWIDTH 1800 0
DWIDTH 18 0
BBX 13 11 2 0
BITMAP
FFF8
0008
0210
0220
06C0
0400
0400
0400
0800
1800
2000
ENDCHAR
STARTCHAR 30A3
ENCODING 11043
SWIDTH 1800 0
DWIDTH 18 0
BBX 8 9 5 -2
BITMAP
03
04
18
68
88
08
08
08
08
ENDCHAR
STARTCHAR 30A4
ENCODING 11044
SWIDTH 1800 0
DWIDTH 18 0
BBX 11 13 4 -1
BITMAP
0020
0040
0080
0300
0600
1A00
6200
8200
0200
0200
0200
0200
0200
ENDCHAR
STARTCHAR 30A5
ENCODING 11045
SWIDTH 1800 0
DWIDTH 18 0
BBX 8 8 5 -2
BITMAP
FF
81
81
02
02
04
08
10
ENDCHAR
STARTCHAR 30A6
ENCODING 11046
SWIDTH 1800 0
DWIDTH 18 0
BBX 11 13 3 -1
BITMAP
0400
0400
FFE0
8020
8020
8020
0020
0040
00C0
0080
0100
0600
0C00
ENDCHAR
STARTCHAR 30A7
ENCODING 11047
SWIDTH 1800 0
DWIDTH 18 0
BBX 9 6 4 -2
BITMAP
7F00
0800
0800
0800
0800
FF80
ENDCHAR
STARTCHAR 30A8
ENCODING 11048
SWIDTH 1800 0
DWIDTH 18 0
BBX 13 9 2 1
BITMAP
7FF0
0200
0200
0200
0200
0200
0200
0200
FFF8
ENDCHAR
STARTCHAR 30A9
ENCODING 11049
SWIDTH 1800 0
DWIDTH 18 0
BBX 9 9 5 -2
BITMAP
0400
0400
FF80
0C00
1400
2400
4400
8400
1C00
ENDCHAR
STARTCHAR 30AA
ENCODING 11050
SWIDTH 1800 0
DWIDTH 18 0
BBX 13 13 2 -1
BITMAP
0080
0080
0080
7FF8
0180
0280
0680
0C80
1880
3080
C080
0080
0700
ENDCHAR
STARTCHAR 30AB
ENCODING 11051
SWIDTH 1800 0
DWIDTH 18 0
BBX 11 13 3 -1
BITMAP
0400
0400
0400
FFE0
0420
0420
0820
0820
1820
1020
6020
C040
01C0
ENDCHAR
STARTCHAR 30AC
ENCODING 11052
SWIDTH 1800 0
DWIDTH 18 0
BBX 14 14 2 -1
BITMAP
0008
0404
0410
0400
FFE0
0420
0420
0820
0820
1820
1020
6020
C040
01C0
ENDCHAR
STARTCHAR 30AD
ENCODING 11053
SWIDTH 1800 0
DWIDTH 18 0
BBX 12 13 3 -1
BITMAP
0400
0400
0460
7F80
0400
0400
0670
FF80
0200
0200
0200
0200
0200
ENDCHAR
STARTCHAR 30AE
ENCODING 11054
SWIDTH 1800 0
DWIDTH 18 0
BBX 14 15 2 -1
BITMAP
0008
0004
0410
0400
07E0
7C00
0400
0400
03F0
FE00
0200
0200
0200
0200
0300
ENDCHAR
STARTCHAR 30AF
ENCODING 11055
SWIDTH 1800 0
DWIDTH 18 0
BBX 11 13 4 -1
BITMAP
0400
0800
1FC0
3060
60C0
8080
0100
0300
0600
0C00
1800
6000
C000
ENDCHAR
STARTCHAR 30B0
ENCODING 11056
SWIDTH 1800 0
DWIDTH 18 0
BBX 14 14 2 -1
BITMAP
040C
0414
0C08
1FE0
1040
6040
C0C0
0080
0100
0200
0400
1800
3000
C000
ENDCHAR
STARTCHAR 30B1
ENCODING 11057
SWIDTH 1800 0
DWIDTH 18 0
BBX 14 12 2 -1
BITMAP
0C00
0800
1FFC
3040
2040
C080
0080
0080
0100
0300
0600
0C00
ENDCHAR
STARTCHAR 30B2
ENCODING 11058
SWIDTH 1800 0
DWIDTH 18 0
BBX 16 14 1 -1
BITMAP
0002
0405
0802
0800
1FFC
1040
2040
C080
0080
0080
0100
0300
0600
0C00
ENDCHAR
STARTCHAR 30B3
ENCODING 11059
SWIDTH 1800 0
DWIDTH 18 0
BBX 10 10 4 0
BITMAP
FFC0
0040
0040
0040
0040
0040
0040
0040
FFC0
0040
ENDCHAR
STARTCHAR 30B4
ENCODING 11060
SWIDTH 1800 0
DWIDTH 18 0
BBX 14 14 2 0
BITMAP
0008
0004
0010
0000
FFC0
0040
0040
0040
0040
0040
0040
0040
FFC0
0040
ENDCHAR
STARTCHAR 30B5
ENCODING 11061
SWIDTH 1800 0
DWIDTH 18 0
BBX 14 14 2 -1
BITMAP
0040
0840
0840
0840
FFFC
0840
0840
0840
0840
0080
0080
0100
0300
0200
ENDCHAR
STARTCHAR 30B6
ENCODING 11062
SWIDTH 1800 0
DWIDTH 18 0
BBX 15 14 1 -1
BITMAP
0822
0828
0824
0820
FFFE
0820
0820
0820
0840
0040
00C0
0080
0100
0200
ENDCHAR
STARTCHAR 30B7
ENCODING 11063
SWIDTH 1800 0
DWIDTH 18 0
BBX 12 13 3 -1
BITMAP
2000
1800
0000
0000
8000
6010
2020
0040
0180
0200
0C00
3000
4000
ENDCHAR
STARTCHAR 30B8
ENCODING 11064
SWIDTH 1800 0
DWIDTH 18 0
BBX 12 13 3 -1
BITMAP
2020
30D0
0840
0000
8000
6010
0020
0040
0180
0300
0C00
3000
4000
ENDCHAR
STARTCHAR 30B9
ENCODING 11065
SWIDTH 1800 0
DWIDTH 18 0
BBX 12 11 3 0
BITMAP
7FC0
0040
0080
0080
0100
0300
0680
0C40
1820
6010
C000
ENDCHAR
STARTCHAR 30BA
ENCODING 11066
SWIDTH 1800 0
DWIDTH 18 0
BBX 14 14 2 0
BITMAP
0008
0004
0010
7FC0
0040
0080
0080
0100
0300
0680
0C40
1820
6010
C000
ENDCHAR
STARTCHAR 30BB
ENCODING 11067
SWIDTH 1800 0
DWIDTH 18 0
BBX 13 13 2 -1
BITMAP
0800
0800
0800
08F8
1F18
E810
0820
0840
0800
0800
0800
0C70
0380
ENDCHAR
STARTCHAR 30BC
ENCODING 11068
SWIDTH 1800 0
DWIDTH 18 0
BBX 15 13 1 0
BITMAP
0002
0808
0804
0800
08F8
1F18
E810
0820
0840
0800
0800
0800
0FF0
ENDCHAR
STARTCHAR 30BD
ENCODING 11069
SWIDTH 1800 0
DWIDTH 18 0
BBX 12 12 3 -1
BITMAP
8030
4020
6020
2060
0040
00C0
0080
0100
0200
0600
0800
1000
ENDCHAR
STARTCHAR 30BE
ENCODING 11070
SWIDTH 1800 0
DWIDTH 18 0
BBX 14 15 2 -1
BITMAP
0008
0014
0008
8020
C020
4040
2040
00C0
0080
0100
0300
0200
0400
1800
3000
ENDCHAR
STARTCHAR 30BF
ENCODING 11071
SWIDTH 1800 0
DWIDTH 18 0
BBX 10 14 4 -2
BITMAP
0800
0800
1FC0
2040
6040
D080
0C80
0700
0200
0600
0C00
1000
6000
8000
ENDCHAR
STARTCHAR 30C0
ENCODING 11072
SWIDTH 1800 0
DWIDTH 18 0
BBX 14 15 2 -2
BITMAP
0008
0414
0808
0FE0
1020
2040
4840
8480
0280
0100
0200
0400
1800
3000
C000
ENDCHAR
STARTCHAR 30C1
ENCODING 11073
SWIDTH 1800 0
DWIDTH 18 0
BBX 14 13 2 -1
BITMAP
0060
3F80
0100
0100
0100
FFFC
0100
0100
0200
0200
0400
0800
3000
ENDCHAR
STARTCHAR 30C2
ENCODING 11074
SWIDTH 1800 0
DWIDTH 18 0
BBX 16 13 1 -1
BITMAP
0062
3F81
0104
0100
0100
FFFC
0100
0100
0300
0200
0400
0800
3000
ENDCHAR
STARTCHAR 30C3
ENCODING 11075
SWIDTH 1800 0
DWIDTH 18 0
BBX 10 8 4 -2
BITMAP
80C0
4880
4080
0100
0300
0200
0C00
1000
ENDCHAR
STARTCHAR 30C4
ENCODING 11076
SWIDTH 1800 0
DWIDTH 18 0
BBX 12 12 3 -1
BITMAP
0810
8C10
8410
4030
0020
0060
0040
0080
0100
0200
0C00
1800
ENDCHAR
STARTCHAR 30C5
ENCODING 11077
SWIDTH 1800 0
DWIDTH 18 0
BBX 15 15 2 -1
BITMAP
0004
000A
0008
0810
8410
8410
C030
0020
0060
0040
0080
0100
0200
0C00
1800
ENDCHAR
STARTCHAR 30C6
ENCODING 11078
SWIDTH 1800 0
DWIDTH 18 0
BBX 14 12 2 -1
BITMAP
3FE0
0000
0000
FFFC
0100
0100
0100
0300
0200
0400
0800
1000
ENDCHAR
STARTCHAR 30C7
ENCODING 11079
SWIDTH 1800 0
DWIDTH 18 0
BBX 16 13 1 -1
BITMAP
0002
3FED
0004
0000
FFFC
0100
0100
0100
0300
0200
0400
0800
1000
ENDCHAR
STARTCHAR 30C8
ENCODING 11080
SWIDTH 1800 0
DWIDTH 18 0
BBX 6 13 6 -1
BITMAP
80
80
80
80
80
E0
98
8C
80
80
80
80
80
ENDCHAR
STARTCHAR 30C9
ENCODING 11081
SWIDTH 1800 0
DWIDTH 18 0
BBX 8 13 5 -1
BITMAP
82
85
80
80
C0
B0
88
80
80
80
80
80
80
ENDCHAR
STARTCHAR 30CA
ENCODING 11082
SWIDTH 1800 0
DWIDTH 18 0
BBX 14 13 2 -1
BITMAP
0100
0100
0100
FFFC
0100
0100
0100
0200
0200
0400
0400
0800
1000
ENDCHAR
STARTCHAR 30CB
ENCODING 11083
SWIDTH 1800 0
DWIDTH 18 0
BBX 12 9 3 1
BITMAP
7FC0
0000
0000
0000
0000
0000
0000
0000
FFF0
ENDCHAR
STARTCHAR 30CC
ENCODING 11084
SWIDTH 1800 0
DWIDTH 18 0
BBX 10 12 4 -1
BITMAP
7FC0
0040
0040
0080
1880
0700
0300
0280
0C40
1800
6000
8000
ENDCHAR
STARTCHAR 30CD
ENCODING 11085
SWIDTH 1800 0
DWIDTH 18 0
BBX 12 14 3 -1
BITMAP
0200
0200
0200
7FE0
0040
0080
0100
0240
0E20
7210
8200
0200
0200
0200
ENDCHAR
STARTCHAR 30CE
ENCODING 11086
SWIDTH 1800 0
DWIDTH 18 0
BBX 10 13 4 -1
BITMAP
0040
0040
0080
0080
0100
0100
0200
0600
0C00
1800
3000
6000
8000
ENDCHAR
STARTCHAR 30CF
ENCODING 11087
SWIDTH 1800 0
DWIDTH 18 0
BBX 14 9 2 1
BITMAP
0060
0820
0810
1010
1008
2008
2004
4004
8000
ENDCHAR
STARTCHAR 30D0
ENCODING 11088
SWIDTH 1800 0
DWIDTH 18 0
BBX 16 11 1 1
BITMAP
0002
0005
0022
0420
0810
0818
1808
100C
2004
6006
C000
ENDCHAR
STARTCHAR 30D1
ENCODING 11089
SWIDTH 1800 0
DWIDTH 18 0
BBX 15 11 1 1
BITMAP
000E
000A
004E
0420
0820
0810
0818
1008
200C
6004
C000
ENDCHAR
STARTCHAR 30D2
ENCODING 11090
SWIDTH 1800 0
DWIDTH 18 0
BBX 10 12 4 0
BITMAP
8000
8000
8080
8300
9C00
E000
8000
8000
8000
8000
8040
7F80
ENDCHAR
STARTCHAR 30D3
ENCODING 11091
SWIDTH 1800 0
DWIDTH 18 0
BBX 12 14 3 0
BITMAP
0030
0010
8060
8020
8180
8600
9800
E000
8000
8000
8000
8000
80C0
7F80
ENDCHAR
STARTCHAR 30D4
ENCODING 11092
SWIDTH 1800 0
DWIDTH 18 0
BBX 12 13 3 0
BITMAP
0070
8050
8070
8180
8700
9800
E000
8000
8000
8000
8000
8040
7F80
ENDCHAR
STARTCHAR 30D5
ENCODING 11093
SWIDTH 1800 0
DWIDTH 18 0
BBX 12 12 3 -1
BITMAP
FFF0
0010
0020
0020
0040
0040
0080
0100
0300
0600
1800
3000
ENDCHAR
STARTCHAR 30D6
ENCODING 11094
SWIDTH 1800 0
DWIDTH 18 0
BBX 14 15 2 -1
BITMAP
0008
0014
0008
FFF0
0010
0020
0020
0040
0040
0080
0100
0300
0400
1800
3000
ENDCHAR
STARTCHAR 30D7
ENCODING 11095
SWIDTH 1800 0
DWIDTH 18 0
BBX 14 15 2 -1
BITMAP
001C
0014
0014
FFF8
0020
0020
0020
0040
0040
0080
0100
0200
0400
1800
3000
ENDCHAR
STARTCHAR 30D8
ENCODING 11096
SWIDTH 1800 0
DWIDTH 18 0
BBX 14 7 2 2
BITMAP
0C00
1300
2180
C040
8030
0018
0004
ENDCHAR
STARTCHAR 30D9
ENCODING 11097
SWIDTH 1800 0
DWIDTH 18 0
BBX 14 10 2 2
BITMAP
0030
0050
0020
0C00
1300
2180
C040
8030
0018
0004
ENDCHAR
STARTCHAR 30DA
ENCODING 11098
SWIDTH 1800 0
DWIDTH 18 0
BBX 14 10 2 2
BITMAP
00E0
00A0
00A0
0C40
1200
2180
C0C0
8030
0018
0004
ENDCHAR
STARTCHAR 30DB
ENCODING 11099
SWIDTH 1800 0
DWIDTH 18 0
BBX 14 13 2 -1
BITMAP
0100
0100
0100
7FFC
0100
0100
0100
2110
2118
4108
C104
0100
0E00
ENDCHAR
STARTCHAR 30DC
ENCODING 11100
SWIDTH 1800 0
DWIDTH 18 0
BBX 14 14 2 -1
BITMAP
0008
0114
0108
0100
7FFC
0100
0100
0100
2110
2118
4108
C104
0100
0E00
ENDCHAR
STARTCHAR 30DD
ENCODING 11101
SWIDTH 1800 0
DWIDTH 18 0
BBX 14 14 2 -1
BITMAP
0038
0128
0128
0110
7FFC
011C
0100
0100
3110
2118
4108
C104
0100
0E00
ENDCHAR
STARTCHAR 30DE
ENCODING 11102
SWIDTH 1800 0
DWIDTH 18 0
BBX 13 10 2 0
BITMAP
FFF8
0008
0010
0030
0060
08C0
0580
0200
0100
0080
ENDCHAR
STARTCHAR 30DF
ENCODING 11103
SWIDTH 1800 0
DWIDTH 18 0
BBX 7 12 6 -1
BITMAP
60
18
04
00
E0
18
00
00
00
E0
1C
06
ENDCHAR
STARTCHAR 30E0
ENCODING 11104
SWIDTH 1800 0
DWIDTH 18 0
BBX 14 12 2 0
BITMAP
0300
0200
0200
0600
0400
0C00
0840
1820
1010
3018
FFE8
0004
ENDCHAR
STARTCHAR 30E1
ENCODING 11105
SWIDTH 1800 0
DWIDTH 18 0
BBX 10 12 4 -1
BITMAP
0040
0040
00C0
0080
0D80
0700
0300
0480
0880
1000
6000
8000
ENDCHAR
STARTCHAR 30E2
ENCODING 11106
SWIDTH 1800 0
DWIDTH 18 0
BBX 13 11 3 0
BITMAP
7FE0
0400
0400
0400
0400
FFF8
0400
0400
0400
0400
07F0
ENDCHAR
STARTCHAR 30E3
ENCODING 11107
SWIDTH 1800 0
DWIDTH 18 0
BBX 10 9 4 -2
BITMAP
1000
1000
1FC0
F080
0900
0800
0800
0800
0800
ENDCHAR
STARTCHAR 30E4
ENCODING 11108
SWIDTH 1800 0
DWIDTH 18 0
BBX 13 13 3 -1
BITMAP
1000
1000
1010
0BF8
FC10
0820
0840
0800
0400
0400
0400
0400
0400
ENDCHAR
STARTCHAR 30E5
ENCODING 11109
SWIDTH 1800 0
DWIDTH 18 0
BBX 10 6 4 -1
BITMAP
3E00
0200
0200
0200
0200
FFC0
ENDCHAR
STARTCHAR 30E6
ENCODING 11110
SWIDTH 1800 0
DWIDTH 18 0
BBX 14 9 2 1
BITMAP
3FC0
0040
0040
0040
0040
0040
0040
0040
FFFC
ENDCHAR
STARTCHAR 30E7
ENCODING 11111
SWIDTH 1800 0
DWIDTH 18 0
BBX 7 8 6 -2
BITMAP
FE
02
02
FE
02
02
FE
02
ENDCHAR
STARTCHAR 30E8
ENCODING 11112
SWIDTH 1800 0
DWIDTH 18 0
BBX 10 11 4 0
BITMAP
FFC0
0040
0040
0040
0040
FFC0
0040
0040
0040
FFC0
0040
ENDCHAR
STARTCHAR 30E9
ENCODING 11113
SWIDTH 1800 0
DWIDTH 18 0
BBX 11 13 3 -1
BITMAP
3FC0
0000
0000
0000
FFE0
0020
0060
0040
0080
0100
0200
0C00
1800
ENDCHAR
STARTCHAR 30EA
ENCODING 11114
SWIDTH 1800 0
DWIDTH 18 0
BBX 8 13 5 -1
BITMAP
81
81
81
81
81
82
82
02
02
04
04
08
10
ENDCHAR
STARTCHAR 30EB
ENCODING 11115
SWIDTH 1800 0
DWIDTH 18 0
BBX 14 12 2 0
BITMAP
0100
1100
1100
1100
1100
1104
110C
2118
2130
6160
C180
8000
ENDCHAR
STARTCHAR 30EC
ENCODING 11116
SWIDTH 1800 0
DWIDTH 18 0
BBX 11 12 3 0
BITMAP
8000
8000
8000
8000
8020
8060
80C0
8180
8600
8C00
F000
8000
ENDCHAR
STARTCHAR 30ED
ENCODING 11117
SWIDTH 1800 0
DWIDTH 18 0
BBX 10 10 4 0
BITMAP
FFC0
8040
8040
8040
8040
8040
8040
8040
FFC0
8040
ENDCHAR
STARTCHAR 30EE
ENCODING 11118
SWIDTH 1800 0
DWIDTH 18 0
BBX 8 9 5 -2
BITMAP
FF
81
81
81
01
02
06
0C
18
ENDCHAR
STARTCHAR 30EF
ENCODING 11119
SWIDTH 1800 0
DWIDTH 18 0
BBX 11 12 3 -1
BITMAP
FFE0
8020
8020
8020
8020
0020
0060
0040
0080
0180
0300
0400
ENDCHAR
STARTCHAR 30F0
ENCODING 11120
SWIDTH 1800 0
DWIDTH 18 0
BBX 14 13 2 -1
BITMAP
0080
0080
0080
7FF0
1080
1080
1080
1080
FFFC
0080
0080
0080
0080
ENDCHAR
STARTCHAR 30F1
ENCODING 11121
SWIDTH 1800 0
DWIDTH 18 0
BBX 14 10 2 1
BITMAP
3FF8
0010
0020
0240
0200
0200
0200
0200
0200
FFFC
ENDCHAR
STARTCHAR 30F2
ENCODING 11122
SWIDTH 1800 0
DWIDTH 18 0
BBX 12 12 3 -1
BITMAP
FFF0
0020
0020
0020
FFC0
0040
0080
0180
0300
0600
1800
3000
ENDCHAR
STARTCHAR 30F3
ENCODING 11123
SWIDTH 1800 0
DWIDTH 18 0
BBX 12 11 3 0
BITMAP
8000
6000
3000
0010
0030
0060
0080
0300
0C00
3800
C000
ENDCHAR
STARTCHAR 30F4
ENCODING 11124
SWIDTH 1800 0
DWIDTH 18 0
BBX 14 16 2 -2
BITMAP
0008
0004
0414
0400
0400
FFE0
8020
8020
8020
0020
0040
00C0
0080
0100
0600
0C00
ENDCHAR
STARTCHAR 30F5
ENCODING 11125
SWIDTH 1800 0
DWIDTH 18 0
BBX 8 9 5 -2
BITMAP
08
10
FF
11
11
21
21
C1
86
ENDCHAR
STARTCHAR 30F6
ENCODING 11126
SWIDTH 1800 0
DWIDTH 18 0
BBX 9 10 5 -2
BITMAP
2000
2000
2000
7F80
C400
8400
0400
0800
1800
2000
ENDCHAR
STARTCHAR 0410
ENCODING 11297
SWIDTH 1800 0
DWIDTH 18 0
BBX 10 13 4 0
BITMAP
0C00
0C00
0E00
1200
1200
3100
2100
2100
7F80
4080
4080
8040
8040
ENDCHAR
STARTCHAR 0411
ENCODING 11298
SWIDTH 1800 0
DWIDTH 18 0
BBX 9 12 5 0
BITMAP
FF00
8000
8000
8000
8000
FE00
8100
8180
8080
8180
8100
FE00
ENDCHAR
STARTCHAR 0412
ENCODING 11299
SWIDTH 1800 0
DWIDTH 18 0
BBX 10 13 4 0
BITMAP
FC00
8780
8180
8080
8180
8180
FF00
8080
8040
8040
8040
8080
FF00
ENDCHAR
STARTCHAR 0413
ENCODING 11300
SWIDTH 1800 0
DWIDTH 18 0
BBX 7 13 5 0
BITMAP
FE
80
80
80
80
80
80
80
80
80
80
80
80
ENDCHAR
STARTCHAR 0414
ENCODING 11301
SWIDTH 1800 0
DWIDTH 18 0
BBX 12 16 3 -3
BITMAP
3FE0
2020
2020
2020
2020
2020
2020
2020
2020
2020
2020
4020
FFF0
8010
8010
8010
ENDCHAR
STARTCHAR 0415
ENCODING 11302
SWIDTH 1800 0
DWIDTH 18 0
BBX 8 13 5 0
BITMAP
FF
80
80
80
80
80
FF
80
80
80
80
80
FF
ENDCHAR
STARTCHAR 0401
ENCODING 11303
SWIDTH 1800 0
DWIDTH 18 0
BBX 9 14 5 0
BITMAP
C600
C600
0000
FF00
8000
8000
8000
8000
FF00
8000
8000
8000
8000
FF80
ENDCHAR
STARTCHAR 0416
ENCODING 11304
SWIDTH 1800 0
DWIDTH 18 0
BBX 13 13 2 0
BITMAP
0208
E238
2220
2220
3260
1240
3FE0
4210
C218
8208
8208
8208
8208
ENDCHAR
STARTCHAR 0417
ENCODING 11305
SWIDTH 1800 0
DWIDTH 18 0
BBX 10 13 4 0
BITMAP
1F00
6080
4080
C0C0
0080
0180
0700
00C0
0040
C040
4040
6080
1F00
ENDCHAR
STARTCHAR 0418
ENCODING 11306
SWIDTH 1800 0
DWIDTH 18 0
BBX 10 12 4 0
BITMAP
80C0
80C0
8140
8240
8640
8440
8840
9840
9040
A040
C040
C040
ENDCHAR
STARTCHAR 0419
ENCODING 11307
SWIDTH 1800 0
DWIDTH 18 0
BBX 10 14 4 0
BITMAP
2100
1E00
0000
80C0
81C0
8140
8240
8440
8C40
8840
9040
A040
E040
C040
ENDCHAR
STARTCHAR 041A
ENCODING 11308
SWIDTH 1800 0
DWIDTH 18 0
BBX 9 13 5 0
BITMAP
8000
8380
8600
8400
8400
8C00
FC00
8300
8100
8100
8100
8100
8100
ENDCHAR
STARTCHAR 041B
ENCODING 11309
SWIDTH 1800 0
DWIDTH 18 0
BBX 11 13 3 0
BITMAP
3FE0
2020
2020
2020
2020
2020
2020
2020
2020
2020
2020
2020
C020
ENDCHAR
STARTCHAR 041C
ENCODING 11310
SWIDTH 1800 0
DWIDTH 18 0
BBX 12 13 3 0
BITMAP
C030
C030
A050
A050
A050
9090
9090
9090
8910
8910
8510
8610
8610
ENDCHAR
STARTCHAR 041D
ENCODING 11311
SWIDTH 1800 0
DWIDTH 18 0
BBX 10 13 4 0
BITMAP
8000
8040
8040
8040
8040
8040
FFC0
8040
8040
8040
8040
8040
8040
ENDCHAR
STARTCHAR 041E
ENCODING 11312
SWIDTH 1800 0
DWIDTH 18 0
BBX 12 13 3 0
BITMAP
1F80
2040
4020
C030
8010
8010
8010
8010
8010
C030
4020
2040
1F80
ENDCHAR
STARTCHAR 041F
ENCODING 11313
SWIDTH 1800 0
DWIDTH 18 0
BBX 10 13 4 0
BITMAP
FFC0
8040
8040
8040
8040
8040
8040
8040
8040
8040
8040
8040
8040
ENDCHAR
STARTCHAR 0420
ENCODING 11314
SWIDTH 1800 0
DWIDTH 18 0
BBX 8 13 5 0
BITMAP
FE
83
81
81
81
83
FE
80
80
80
80
80
80
ENDCHAR
STARTCHAR 0421
ENCODING 11315
SWIDTH 1800 0
DWIDTH 18 0
BBX 11 13 3 0
BITMAP
0F80
30C0
6060
4020
4000
C000
C000
C000
4000
4020
6020
3040
0F80
ENDCHAR
STARTCHAR 0422
ENCODING 11316
SWIDTH 1800 0
DWIDTH 18 0
BBX 9 13 5 0
BITMAP
FF80
0800
0800
0800
0800
0800
0800
0800
0800
0800
0800
0800
0800
ENDCHAR
STARTCHAR 0423
ENCODING 11317
SWIDTH 1800 0
DWIDTH 18 0
BBX 10 13 4 0
BITMAP
8040
4080
4080
2100
2100
1200
1200
1E00
0C00
0C00
0800
1800
3000
ENDCHAR
STARTCHAR 0424
ENCODING 11318
SWIDTH 1800 0
DWIDTH 18 0
BBX 14 13 2 0
BITMAP
0200
0200
1FC0
6230
4208
8204
8204
8204
8204
4208
2210
1FE0
0200
ENDCHAR
STARTCHAR 0425
ENCODING 11319
SWIDTH 1800 0
DWIDTH 18 0
BBX 10 13 4 0
BITMAP
4080
6180
2100
1200
1200
0C00
0C00
0C00
1200
3300
2100
4080
C0C0
ENDCHAR
STARTCHAR 0426
ENCODING 11320
SWIDTH 1800 0
DWIDTH 18 0
BBX 10 16 4 -3
BITMAP
8080
8080
8080
8080
8080
8080
8080
8080
8080
8080
8080
8080
FFC0
0040
0040
0040
ENDCHAR
STARTCHAR 0427
ENCODING 11321
SWIDTH 1800 0
DWIDTH 18 0
BBX 8 13 5 0
BITMAP
81
81
81
81
81
81
C3
67
19
01
01
01
01
ENDCHAR
STARTCHAR 0428
ENCODING 11322
SWIDTH 1800 0
DWIDTH 18 0
BBX 12 13 3 0
BITMAP
8410
8410
8410
8410
8410
8410
8410
8410
8410
8410
8410
8410
FFF0
ENDCHAR
STARTCHAR 0429
ENCODING 11323
SWIDTH 1800 0
DWIDTH 18 0
BBX 13 16 2 -3
BITMAP
8210
8210
8210
8210
8210
8210
8210
8210
8210
8210
8210
8210
FFF8
0008
0008
0008
ENDCHAR
STARTCHAR 042A
ENCODING 11324
SWIDTH 1800 0
DWIDTH 18 0
BBX 12 13 3 0
BITMAP
F000
1000
1000
1000
1000
1000
1FE0
1020
1030
1010
1030
1020
1FC0
ENDCHAR
STARTCHAR 042B
ENCODING 11325
SWIDTH 1800 0
DWIDTH 18 0
BBX 10 13 4 0
BITMAP
8040
8040
8040
8040
8040
8040
F840
8440
8240
8240
8240
8640
FC40
ENDCHAR
STARTCHAR 042C
ENCODING 11326
SWIDTH 1800 0
DWIDTH 18 0
BBX 9 12 5 0
BITMAP
8000
8000
8000
8000
8000
FE00
8300
8100
8180
8100
8100
FE00
ENDCHAR
STARTCHAR 042D
ENCODING 11327
SWIDTH 1800 0
DWIDTH 18 0
BBX 12 13 3 0
BITMAP
1F80
20C0
4060
C020
0030
0010
07F0
0010
0030
C020
4060
20C0
1F00
ENDCHAR
STARTCHAR 042E
ENCODING 11328
SWIDTH 1800 0
DWIDTH 18 0
BBX 14 13 2 0
BITMAP
03E0
8630
8808
8808
9004
9004
F004
9004
9004
9004
8808
8C18
87F0
ENDCHAR
STARTCHAR 042F
ENCODING 11329
SWIDTH 1800 0
DWIDTH 18 0
BBX 9 13 5 0
BITMAP
3F80
6080
8080
8080
8080
C080
3F80
4080
C080
8080
8080
8080
8080
ENDCHAR
STARTCHAR 0430
ENCODING 11345
SWIDTH 1800 0
DWIDTH 18 0
BBX 8 10 5 -1
BITMAP
3C
42
82
02
1E
E2
82
86
FE
31
ENDCHAR
STARTCHAR 0431
ENCODING 11346
SWIDTH 1800 0
DWIDTH 18 0
BBX 9 13 4 0
BITMAP
1F80
2000
4000
4000
4C00
7F00
6180
C080
4080
4080
4080
2100
1E00
ENDCHAR
STARTCHAR 0432
ENCODING 11347
SWIDTH 1800 0
DWIDTH 18 0
BBX 7 9 6 0
BITMAP
F8
84
84
84
FC
86
82
84
FC
ENDCHAR
STARTCHAR 0433
ENCODING 11348
SWIDTH 1800 0
DWIDTH 18 0
BBX 5 9 6 0
BITMAP
F8
80
80
80
80
80
80
80
80
ENDCHAR
STARTCHAR 0434
ENCODING 11349
SWIDTH 1800 0
DWIDTH 18 0
BBX 10 12 4 -3
BITMAP
3F80
2080
2080
2080
2080
2080
2080
6080
FFC0
8040
8040
8040
ENDCHAR
STARTCHAR 0435
ENCODING 11350
SWIDTH 1800 0
DWIDTH 18 0
BBX 8 9 5 0
BITMAP
3C
42
81
81
FF
80
81
42
3C
ENDCHAR
STARTCHAR 0451
ENCODING 11351
SWIDTH 1800 0
DWIDTH 18 0
BBX 8 11 5 0
BITMAP
24
00
3C
42
81
81
FF
80
81
42
3C
ENDCHAR
STARTCHAR 0436
ENCODING 11352
SWIDTH 1800 0
DWIDTH 18 0
BBX 11 9 3 0
BITMAP
C460
2480
2480
3580
3F80
4440
4440
4440
4440
ENDCHAR
STARTCHAR 0437
ENCODING 11353
SWIDTH 1800 0
DWIDTH 18 0
BBX 8 10 5 0
BITMAP
3C
42
82
02
1C
02
01
C1
62
1C
ENDCHAR
STARTCHAR 0438
ENCODING 11354
SWIDTH 1800 0
DWIDTH 18 0
BBX 8 9 5 0
BITMAP
83
83
85
8D
99
B1
A1
C1
C1
ENDCHAR
STARTCHAR 0439
ENCODING 11355
SWIDTH 1800 0
DWIDTH 18 0
BBX 8 12 5 0
BITMAP
42
3C
00
83
83
85
89
99
B1
A1
C1
C1
ENDCHAR
STARTCHAR 043A
ENCODING 11356
SWIDTH 1800 0
DWIDTH 18 0
BBX 6 9 6 0
BITMAP
8C
88
98
90
F8
8C
84
84
84
ENDCHAR
STARTCHAR 043B
ENCODING 11357
SWIDTH 1800 0
DWIDTH 18 0
BBX 8 9 5 0
BITMAP
3F
21
21
21
21
21
21
41
C1
ENDCHAR
STARTCHAR 043C
ENCODING 11358
SWIDTH 1800 0
DWIDTH 18 0
BBX 10 9 4 0
BITMAP
C0C0
C0C0
A140
A140
B340
9240
9A40
8C40
8C40
ENDCHAR
STARTCHAR 043D
ENCODING 11359
SWIDTH 1800 0
DWIDTH 18 0
BBX 8 9 5 0
BITMAP
81
81
81
81
FF
81
81
81
81
ENDCHAR
STARTCHAR 043E
ENCODING 11360
SWIDTH 1800 0
DWIDTH 18 0
BBX 8 10 5 0
BITMAP
18
66
42
81
81
81
81
81
42
3C
ENDCHAR
STARTCHAR 043F
ENCODING 11361
SWIDTH 1800 0
DWIDTH 18 0
BBX 6 9 6 0
BITMAP
FC
84
84
84
84
84
84
84
84
ENDCHAR
STARTCHAR 0440
ENCODING 11362
SWIDTH 1800 0
DWIDTH 18 0
BBX 8 13 5 -3
BITMAP
BC
C2
83
81
81
81
81
82
C6
B8
80
80
80
ENDCHAR
STARTCHAR 0441
ENCODING 11363
SWIDTH 1800 0
DWIDTH 18 0
BBX 8 10 5 -1
BITMAP
3C
42
81
80
80
80
81
41
62
1C
ENDCHAR
STARTCHAR 0442
ENCODING 11364
SWIDTH 1800 0
DWIDTH 18 0
BBX 7 9 5 0
BITMAP
FE
10
10
10
10
10
10
10
10
ENDCHAR
STARTCHAR 0443
ENCODING 11365
SWIDTH 1800 0
DWIDTH 18 0
BBX 8 13 5 -4
BITMAP
81
81
42
42
24
24
24
18
18
08
10
10
60
ENDCHAR
STARTCHAR 0444
ENCODING 11366
SWIDTH 1800 0
DWIDTH 18 0
BBX 14 16 2 -3
BITMAP
0100
0100
0100
1D70
3798
4308
4304
8104
8104
8304
4304
4388
3D70
0100
0100
0100
ENDCHAR
STARTCHAR 0445
ENCODING 11367
SWIDTH 1800 0
DWIDTH 18 0
BBX 8 9 5 0
BITMAP
C2
42
24
18
18
18
24
42
83
ENDCHAR
STARTCHAR 0446
ENCODING 11368
SWIDTH 1800 0
DWIDTH 18 0
BBX 8 12 5 -3
BITMAP
82
82
82
82
82
82
82
82
FF
01
01
01
ENDCHAR
STARTCHAR 0447
ENCODING 11369
SWIDTH 1800 0
DWIDTH 18 0
BBX 6 9 6 0
BITMAP
84
84
84
84
CC
74
04
04
04
ENDCHAR
STARTCHAR 0448
ENCODING 11370
SWIDTH 1800 0
DWIDTH 18 0
BBX 10 9 4 0
BITMAP
8440
8440
8440
8440
8440
8440
8440
8440
FFC0
ENDCHAR
STARTCHAR 0449
ENCODING 11371
SWIDTH 1800 0
DWIDTH 18 0
BBX 10 12 4 -3
BITMAP
8880
8880
8880
8880
8880
8880
8880
8880
FFC0
0040
0040
0040
ENDCHAR
STARTCHAR 044A
ENCODING 11372
SWIDTH 1800 0
DWIDTH 18 0
BBX 10 9 4 0
BITMAP
F000
1000
1000
1C00
1380
1080
10C0
1080
1F80
ENDCHAR
STARTCHAR 044B
ENCODING 11373
SWIDTH 1800 0
DWIDTH 18 0
BBX 8 9 5 0
BITMAP
81
81
81
81
F9
85
85
8D
F9
ENDCHAR
STARTCHAR 044C
ENCODING 11374
SWIDTH 1800 0
DWIDTH 18 0
BBX 6 9 6 0
BITMAP
80
80
80
F8
8C
84
84
8C
F8
ENDCHAR
STARTCHAR 044D
ENCODING 11375
SWIDTH 1800 0
DWIDTH 18 0
BBX 8 9 5 0
BITMAP
3C
42
81
01
1F
01
81
42
3C
ENDCHAR
STARTCHAR 044E
ENCODING 11376
SWIDTH 1800 0
DWIDTH 18 0
BBX 12 9 3 0
BITMAP
87C0
8C20
9810
9810
F810
9810
9810
8C20
87C0
ENDCHAR
STARTCHAR 044F
ENCODING 11377
SWIDTH 1800 0
DWIDTH 18 0
BBX 6 9 6 0
BITMAP
7C
84
84
84
7C
C4
84
84
84
ENDCHAR
STARTCHAR AC00
ENCODING 12321
SWIDTH 1800 0
DWIDTH 18 0
BBX 17 17 1 -3
BITMAP
000400
000400
7F0400
010400
010400
010400
030400
020400
060780
040400
080400
100400
200400
C00400
000400
000400
000400
ENDCHAR
STARTCHAR AC01
ENCODING 12322
SWIDTH 1800 0
DWIDTH 18 0
BBX 16 17 1 -3
BITMAP
0008
0008
7F08
0108
0108
0208
060F
0C08
3008
C008
0000
7FF8
0008
0008
0008
0008
0008
ENDCHAR
STARTCHAR AC04
ENCODING 12323
SWIDTH 1800 0
DWIDTH 18 0
BBX 16 17 1 -3
BITMAP
0008
7F08
0108
0108
0208
0208
0408
080F
3008
C008
0008
0008
2008
2000
2000
2000
3FFC
ENDCHAR
STARTCHAR AC07
ENCODING 12324
SWIDTH 1800 0
DWIDTH 18 0
BBX 16 17 1 -3
BITMAP
0008
0008
7F08
0108
0108
020F
0608
0C08
1008
E008
0000
3FF8
2000
2000
2000
2000
3FFC
ENDCHAR
STARTCHAR AC08
ENCODING 12325
SWIDTH 1800 0
DWIDTH 18 0
BBX 16 17 1 -3
BITMAP
0008
7F08
0108
0308
0208
040F
0808
3008
C008
0000
3FF8
0008
0008
3FF8
2000
2000
3FFC
ENDCHAR
STARTCHAR AC09
ENCODING 12326
SWIDTH 1800 0
DWIDTH 18 0
BBX 16 17 1 -3
BITMAP
0008
FF08
0108
0108
0208
040F
0808
3008
C008
0000
3EF8
0208
0208
3E08
2008
2008
3F08
ENDCHAR
STARTCHAR AC0A
ENCODING 12327
SWIDTH 1800 0
DWIDTH 18 0
BBX 16 17 1 -3
BITMAP
0008
0008
7F08
0108
0308
020F
0408
0808
3008
C000
3EF8
0288
0288
3E88
2088
20F8
3F88
ENDCHAR
STARTCHAR AC10
ENCODING 12328
SWIDTH 1800 0
DWIDTH 18 0
BBX 16 18 1 -4
BITMAP
0008
7F08
0108
0108
0208
0608
0C0F
1808
E008
0008
0008
3FF8
2008
2008
2008
2008
3FF8
2000
ENDCHAR
STARTCHAR AC11
ENCODING 12329
SWIDTH 1800 0
DWIDTH 18 0
BBX 16 17 1 -3
BITMAP
0008
7F08
0108
0108
0208
0608
0C0F
1808
E008
0008
2008
2008
3FF8
2008
2008
2008
3FF8
ENDCHAR
STARTCHAR AC12
ENCODING 12330
SWIDTH 1800 0
DWIDTH 18 0
BBX 16 16 1 -3
BITMAP
0008
FF08
0108
0108
0208
040F
0C08
3008
C008
2208
2218
3E18
2218
2224
3E46
2242
ENDCHAR
STARTCHAR AC13
ENCODING 12331
SWIDTH 1800 0
DWIDTH 18 0
BBX 16 17 1 -3
BITMAP
0008
7F08
0108
0108
0108
0208
040F
0C08
3008
E008
0088
0088
00C0
0160
0230
0C0C
3002
ENDCHAR
STARTCHAR AC14
ENCODING 12332
SWIDTH 1800 0
DWIDTH 18 0
BBX 16 17 1 -3
BITMAP
0008
FF08
0108
0108
0308
0208
040F
1808
7008
C008
0400
0408
0418
0A18
1A34
3162
40C1
ENDCHAR
STARTCHAR AC15
ENCODING 12333
SWIDTH 1800 0
DWIDTH 18 0
BBX 16 17 1 -3
BITMAP
0008
7F08
0108
0108
0208
0208
040F
0808
3008
C008
0000
0FF0
1008
2004
2004
180C
0FF0
ENDCHAR
STARTCHAR AC16
ENCODING 12334
SWIDTH 1800 0
DWIDTH 18 0
BBX 16 17 1 -3
BITMAP
0008
0008
7F08
0108
0108
0208
060F
0C08
3008
C008
0000
3FF8
0100
0380
06C0
1C30
600C
ENDCHAR
STARTCHAR AC17
ENCODING 12335
SWIDTH 1800 0
DWIDTH 18 0
BBX 16 17 1 -3
BITMAP
0008
FF08
0108
0208
0208
0408
180F
7008
C008
07E0
0000
3FF8
0180
0180
0240
0C30
300C
ENDCHAR
STARTCHAR AC19
ENCODING 12336
SWIDTH 1800 0
DWIDTH 18 0
BBX 16 17 1 -3
BITMAP
0008
0008
7F08
0108
0108
0208
060F
0C08
3008
C008
0000
3FF8
2000
3FF8
2000
2000
3FFC
ENDCHAR
STARTCHAR AC1A
ENCODING 12337
SWIDTH 1800 0
DWIDTH 18 0
BBX 16 17 1 -3
BITMAP
0008
0008
7F08
0108
0108
0308
060F
0C08
3008
C008
3FF8
0000
0020
0420
0420
0420
7FFE
ENDCHAR
STARTCHAR AC1B
ENCODING 12338
SWIDTH 1800 0
DWIDTH 18 0
BBX 16 17 1 -3
BITMAP
0008
0008
FF08
0108
0308
020F
0408
0808
3008
E3E0
0000
3FFC
0000
0FF8
1004
180C
0FF8
ENDCHAR
STARTCHAR AC1C
ENCODING 12339
SWIDTH 1800 0
DWIDTH 18 0
BBX 14 17 2 -3
BITMAP
0004
0044
FE44
0244
0244
0444
0444
0444
0C7C
0844
1844
3044
6044
8044
0044
0044
0004
ENDCHAR
STARTCHAR AC1D
ENCODING 12340
SWIDTH 1800 0
DWIDTH 18 0
BBX 14 16 2 -3
BITMAP
0044
FE44
0444
0444
0444
0C7C
0844
3044
6044
8000
3FFC
0004
0004
0004
0004
0004
ENDCHAR
STARTCHAR AC20
ENCODING 12341
SWIDTH 1800 0
DWIDTH 18 0
BBX 14 17 2 -3
BITMAP
0044
FE44
0244
0644
0444
0444
0844
107C
3044
C044
8044
0044
2004
2000
2000
2000
3FFC
ENDCHAR
STARTCHAR AC24
ENCODING 12342
SWIDTH 1800 0
DWIDTH 18 0
BBX 14 17 2 -3
BITMAP
0044
0044
7E44
0244
0244
047C
0444
0844
3044
E000
0000
3FFC
0004
3FFC
2000
2000
3FFC
ENDCHAR
STARTCHAR AC2C
ENCODING 12343
SWIDTH 1800 0
DWIDTH 18 0
BBX 14 18 2 -4
BITMAP
0004
0044
FE44
0644
0444
0444
0C7C
0844
1044
6044
8004
3FFC
2004
2004
2004
2004
3FFC
2000
ENDCHAR
STARTCHAR AC2D
ENCODING 12344
SWIDTH 1800 0
DWIDTH 18 0
BBX 14 18 2 -4
BITMAP
0004
0044
FE44
0244
0444
0444
0C7C
1844
3044
C044
2004
2004
3FFC
2004
2004
2004
3FFC
2000
ENDCHAR
STARTCHAR AC2F
ENCODING 12345
SWIDTH 1800 0
DWIDTH 18 0
BBX 14 17 2 -3
BITMAP
0004
FC44
0444
0444
0444
0844
087C
1044
3044
4044
8004
0080
0180
0340
0620
1C18
3004
ENDCHAR
STARTCHAR AC30
ENCODING 12346
SWIDTH 1800 0
DWIDTH 18 0
BBX 15 17 1 -3
BITMAP
0002
7E22
0222
0222
0422
0422
083E
1022
6022
C022
000C
0208
0608
061C
0A14
1122
6040
ENDCHAR
STARTCHAR AC31
ENCODING 12347
SWIDTH 1800 0
DWIDTH 18 0
BBX 14 17 2 -3
BITMAP
0004
FC44
0444
0444
0444
0844
087C
1044
6044
C044
0004
0FF0
3008
2004
2004
100C
0FF0
ENDCHAR
STARTCHAR AC38
ENCODING 12348
SWIDTH 1800 0
DWIDTH 18 0
BBX 17 17 1 -3
BITMAP
000400
000400
7F0400
010400
010400
010400
010780
020400
020400
040400
080400
100780
200400
C00400
000400
000400
000400
ENDCHAR
STARTCHAR AC39
ENCODING 12349
SWIDTH 1800 0
DWIDTH 18 0
BBX 16 17 1 -3
BITMAP
0008
0008
7F08
0108
010F
0208
0608
0C08
180F
E008
0008
7FF8
0008
0008
0008
0008
0008
ENDCHAR
STARTCHAR AC3C
ENCODING 12350
SWIDTH 1800 0
DWIDTH 18 0
BBX 16 17 1 -3
BITMAP
0008
0008
7F08
0108
010F
0208
0208
0408
0808
300F
C008
0008
2008
2008
2000
2000
3FFC
ENDCHAR
STARTCHAR AC40
ENCODING 12351
SWIDTH 1800 0
DWIDTH 18 0
BBX 16 17 1 -3
BITMAP
0008
0008
7F08
0108
010F
0208
0408
080F
3008
C000
3FF8
0008
0008
3FF8
2000
2000
3FFC
ENDCHAR
STARTCHAR AC4B
ENCODING 12352
SWIDTH 1800 0
DWIDTH 18 0
BBX 16 17 1 -3
BITMAP
0008
0008
FF08
0108
010F
0208
0208
0408
080F
3008
C0C8
00C8
00C0
0120
0210
0C0C
1802
ENDCHAR
STARTCHAR AC4D
ENCODING 12353
SWIDTH 1800 0
DWIDTH 18 0
BBX 16 17 1 -3
BITMAP
000C
0008
7F08
0108
010F
0208
0208
0408
080F
3008
C008
0FF0
1008
2004
2004
1008
0FF0
ENDCHAR
STARTCHAR AC54
ENCODING 12354
SWIDTH 1800 0
DWIDTH 18 0
BBX 14 16 2 -3
BITMAP
0044
FE44
0244
0644
0444
047C
0444
0844
0844
107C
2044
C044
8044
0044
0044
0004
ENDCHAR
STARTCHAR AC58
ENCODING 12355
SWIDTH 1800 0
DWIDTH 18 0
BBX 14 17 2 -3
BITMAP
0004
0044
FE44
0644
0444
047C
0444
0844
187C
3044
4044
0044
2004
2000
2000
2000
3FFC
ENDCHAR
STARTCHAR AC5C
ENCODING 12356
SWIDTH 1800 0
DWIDTH 18 0
BBX 14 17 2 -3
BITMAP
0004
0044
FE44
0244
047C
0444
0844
187C
3044
C044
0000
3FFC
0004
3FFC
2000
2000
3FFC
ENDCHAR
STARTCHAR AC70
ENCODING 12357
SWIDTH 1800 0
DWIDTH 18 0
BBX 14 17 2 -3
BITMAP
0004
0004
7F04
0104
0104
0104
0104
0204
027C
0404
0C04
1804
3004
6004
8004
0004
0004
ENDCHAR
STARTCHAR AC71
ENCODING 12358
SWIDTH 1800 0
DWIDTH 18 0
BBX 14 17 2 -3
BITMAP
0004
0004
FF04
0104
0104
037C
0204
0404
1804
6004
8000
3FFC
0004
0004
0004
0004
0004
ENDCHAR
STARTCHAR AC74
ENCODING 12359
SWIDTH 1800 0
DWIDTH 18 0
BBX 14 17 2 -3
BITMAP
0004
7F04
0104
0104
0204
0204
047C
0804
3004
C004
0004
0004
2004
2000
2000
2000
3FFC
ENDCHAR
STARTCHAR AC77
ENCODING 12360
SWIDTH 1800 0
DWIDTH 18 0
BBX 14 17 2 -3
BITMAP
0004
7F04
0104
0204
0204
047C
0C04
1804
E004
0004
0000
3FFC
2000
2000
2000
2000
3FFC
ENDCHAR
STARTCHAR AC78
ENCODING 12361
SWIDTH 1800 0
DWIDTH 18 0
BBX 14 17 2 -3
BITMAP
0004
FF04
0104
0104
0204
067C
0C04
3004
C004
0004
3FFC
0004
0004
3FFC
2000
2000
3FFC
ENDCHAR
STARTCHAR AC7A
ENCODING 12362
SWIDTH 1800 0
DWIDTH 18 0
BBX 14 16 2 -3
BITMAP
0004
7F04
0104
0204
027C
0404
0804
3004
C004
0000
3E7C
0244
3E44
2044
207C
3E44
ENDCHAR
STARTCHAR AC80
ENCODING 12363
SWIDTH 1800 0
DWIDTH 18 0
BBX 14 17 2 -3
BITMAP
0004
0004
FF04
0104
0104
027C
0204
0404
1804
7004
C000
3FFC
2004
2004
2004
2004
3FFC
ENDCHAR
STARTCHAR AC81
ENCODING 12364
SWIDTH 1800 0
DWIDTH 18 0
BBX 14 16 2 -3
BITMAP
0004
7F04
0104
0104
0204
027C
0404
1804
E004
2004
2004
3FFC
2004
2004
2004
3FFC
ENDCHAR
STARTCHAR AC83
ENCODING 12365
SWIDTH 1800 0
DWIDTH 18 0
BBX 14 17 2 -3
BITMAP
0004
0004
FF04
0304
0204
027C
0404
0C04
1804
6004
C084
0080
0180
0340
0620
0C1C
3004
ENDCHAR
STARTCHAR AC84
ENCODING 12366
SWIDTH 1800 0
DWIDTH 18 0
BBX 15 17 1 -3
BITMAP
0004
0004
7F04
0104
0104
037C
0204
0404
0804
3004
E408
0408
0408
0A14
1B14
3122
6040
ENDCHAR
STARTCHAR AC85
ENCODING 12367
SWIDTH 1800 0
DWIDTH 18 0
BBX 14 17 2 -3
BITMAP
0004
FF04
0104
0104
0204
027C
0404
1804
7004
C004
0FF0
1818
2004
2004
2004
1818
0FF0
ENDCHAR
STARTCHAR AC86
ENCODING 12368
SWIDTH 1800 0
DWIDTH 18 0
BBX 14 17 2 -3
BITMAP
0004
0004
FF04
0104
0304
027C
0404
0C04
3004
C004
0000
3FFC
0180
0180
0260
0C38
7004
ENDCHAR
STARTCHAR AC89
ENCODING 12369
SWIDTH 1800 0
DWIDTH 18 0
BBX 14 16 2 -2
BITMAP
0004
FF04
0104
0104
027C
0604
0C04
1804
E004
0000
3FFC
2000
2000
3FF8
2000
3FFC
ENDCHAR
STARTCHAR AC8A
ENCODING 12370
SWIDTH 1800 0
DWIDTH 18 0
BBX 15 17 2 -3
BITMAP
0004
0004
FF04
0104
0304
027C
0404
0804
3004
C000
3FFC
0000
0020
0420
0420
0420
7FFE
ENDCHAR
STARTCHAR AC8B
ENCODING 12371
SWIDTH 1800 0
DWIDTH 18 0
BBX 14 17 2 -3
BITMAP
0004
0004
FF04
0104
0204
027C
0404
0C04
1804
6004
83E0
3FFC
0000
1FF8
2004
300C
1FF8
ENDCHAR
STARTCHAR AC8C
ENCODING 12372
SWIDTH 1800 0
DWIDTH 18 0
BBX 14 16 2 -2
BITMAP
0004
0024
FC24
0424
0424
0424
0424
0DE4
0824
0824
1024
2024
6024
8024
0024
0024
ENDCHAR
STARTCHAR AC90
ENCODING 12373
SWIDTH 1800 0
DWIDTH 18 0
BBX 14 17 2 -3
BITMAP
0004
0044
FE44
0244
0644
0444
0444
0BC4
1044
2044
C044
0044
2044
2000
2000
2000
3FFC
ENDCHAR
STARTCHAR AC94
ENCODING 12374
SWIDTH 1800 0
DWIDTH 18 0
BBX 14 17 2 -3
BITMAP
0004
0044
FE44
0244
0444
0444
0FC4
0844
1044
6040
BFFC
0004
0004
3FFC
2000
2000
3FFC
ENDCHAR
STARTCHAR AC9C
ENCODING 12375
SWIDTH 1800 0
DWIDTH 18 0
BBX 14 17 2 -3
BITMAP
0004
0044
FE44
0244
0444
0444
07C4
0844
1044
6044
8040
3FFC
2004
2004
2004
2004
3FFC
ENDCHAR
STARTCHAR AC9D
ENCODING 12376
SWIDTH 1800 0
DWIDTH 18 0
BBX 14 18 2 -4
BITMAP
0004
0044
FE44
0244
0644
07C4
0444
0844
1044
6040
E004
2004
3FFC
2004
2004
2004
3FFC
0004
ENDCHAR
STARTCHAR AC9F
ENCODING 12377
SWIDTH 1800 0
DWIDTH 18 0
BBX 14 17 2 -3
BITMAP
0004
0044
FC44
0444
0444
0444
07C4
0844
1044
2044
C004
8080
0080
01C0
0260
0C18
3004
ENDCHAR
STARTCHAR ACA0
ENCODING 12378
SWIDTH 1800 0
DWIDTH 18 0
BBX 15 17 1 -3
BITMAP
0002
7E22
0222
0222
0422
05E2
0822
1822
3022
C002
0008
0408
0408
0E1C
0B14
3122
6040
ENDCHAR
STARTCHAR ACA1
ENCODING 12379
SWIDTH 1800 0
DWIDTH 18 0
BBX 14 17 2 -3
BITMAP
0004
0044
FE44
0244
0644
0444
07C4
0844
1044
2044
C044
0FF0
300C
2004
2004
100C
0FF0
ENDCHAR
STARTCHAR ACA8
ENCODING 12380
SWIDTH 1800 0
DWIDTH 18 0
BBX 14 17 2 -3
BITMAP
0004
0004
7F04
0104
0104
0104
017C
0304
0204
0604
0C7C
1804
3004
6004
8004
0004
0004
ENDCHAR
STARTCHAR ACA9
ENCODING 12381
SWIDTH 1800 0
DWIDTH 18 0
BBX 15 17 1 -3
BITMAP
0002
7F82
0082
0182
013E
0202
0602
183E
E002
0002
0000
1FFE
0002
0002
0002
0002
0002
ENDCHAR
STARTCHAR ACAA
ENCODING 12382
SWIDTH 1800 0
DWIDTH 18 0
BBX 14 17 2 -3
BITMAP
0004
7F04
0104
0304
027C
0404
0C04
307C
E004
0004
0000
3EFC
0204
0204
0204
0204
0204
ENDCHAR
STARTCHAR ACAC
ENCODING 12383
SWIDTH 1800 0
DWIDTH 18 0
BBX 14 17 2 -3
BITMAP
0004
7F04
0104
0104
027C
0204
0404
0804
307C
E004
0004
0004
2004
2000
2000
2000
3FFC
ENDCHAR
STARTCHAR ACAF
ENCODING 12384
SWIDTH 1800 0
DWIDTH 18 0
BBX 14 16 2 -3
BITMAP
0004
7F04
0104
017C
0204
0604
047C
1804
3004
C000
3FFC
2000
2000
2000
2000
3FFC
ENDCHAR
STARTCHAR ACB0
ENCODING 12385
SWIDTH 1800 0
DWIDTH 18 0
BBX 14 17 2 -3
BITMAP
0004
7F04
0104
017C
0204
0604
0C04
307C
C004
0004
3FFC
0004
0004
3FFC
2000
2000
3FFC
ENDCHAR
STARTCHAR ACB8
ENCODING 12386
SWIDTH 1800 0
DWIDTH 18 0
BBX 13 18 3 -4
BITMAP
0008
0008
FE08
0208
02F8
0408
0408
0808
30F8
C008
0008
7FF8
4008
4008
4008
4008
7FF8
4000
ENDCHAR
STARTCHAR ACB9
ENCODING 12387
SWIDTH 1800 0
DWIDTH 18 0
BBX 14 17 2 -4
BITMAP
0004
7F04
0104
017C
0304
0204
047C
1804
E004
2004
2004
3FFC
2004
2004
2004
3FFC
0004
ENDCHAR
STARTCHAR ACBB
ENCODING 12388
SWIDTH 1800 0
DWIDTH 18 0
BBX 14 17 2 -3
BITMAP
0004
FF04
0104
0204
027C
0404
0C04
1804
307C
C004
0004
0084
0184
03C0
0660
0C18
3004
ENDCHAR
STARTCHAR ACBC
ENCODING 12389
SWIDTH 1800 0
DWIDTH 18 0
BBX 15 17 1 -3
BITMAP
0004
7F04
0104
017C
0104
0204
0204
047C
1804
7004
C408
0408
0C08
0A14
1134
6062
00C0
ENDCHAR
STARTCHAR ACBD
ENCODING 12390
SWIDTH 1800 0
DWIDTH 18 0
BBX 14 17 2 -3
BITMAP
0004
0004
7F04
0104
017C
0304
0204
047C
0804
3004
C004
0FF0
300C
2004
2004
3008
0FF0
ENDCHAR
STARTCHAR ACC1
ENCODING 12391
SWIDTH 1800 0
DWIDTH 18 0
BBX 14 17 2 -3
BITMAP
0004
FF04
0104
0304
027C
0404
0C04
307C
E004
0004
3FFC
2000
2000
3FF8
2000
2000
3FFC
ENDCHAR
STARTCHAR ACC4
ENCODING 12392
SWIDTH 1800 0
DWIDTH 18 0
BBX 15 17 1 -3
BITMAP
0002
0012
7E12
0212
0212
0212
02F2
0412
0412
0812
08F2
1012
2012
C012
0012
0012
0012
ENDCHAR
STARTCHAR ACC8
ENCODING 12393
SWIDTH 1800 0
DWIDTH 18 0
BBX 14 17 2 -3
BITMAP
0004
0044
FC44
0444
07C4
0444
0844
13C4
2044
C044
8044
0044
2004
2000
2000
2000
3FFC
ENDCHAR
STARTCHAR ACCC
ENCODING 12394
SWIDTH 1800 0
DWIDTH 18 0
BBX 14 17 2 -3
BITMAP
0004
0044
FC44
0444
07C4
0444
0844
13C4
2044
C040
3FFC
0004
0004
3FFC
2000
2000
3FFC
ENDCHAR
STARTCHAR ACD5
ENCODING 12395
SWIDTH 1800 0
DWIDTH 18 0
BBX 15 17 1 -3
BITMAP
0002
0022
7E22
0222
03E2
0222
0422
0DE2
1822
3020
D002
1002
1FFE
1002
1002
1002
1FFE
ENDCHAR
STARTCHAR ACD7
ENCODING 12396
SWIDTH 1800 0
DWIDTH 18 0
BBX 15 17 1 -3
BITMAP
0022
0022
7E22
0222
03E2
0222
0422
0C22
19E2
3022
C022
0042
0040
00A0
0110
060C
1802
ENDCHAR
STARTCHAR ACE0
ENCODING 12397
SWIDTH 1800 0
DWIDTH 18 0
BBX 17 13 1 -1
BITMAP
3FFC00
000400
000400
000400
000400
000400
010400
010400
010800
010000
010000
010000
FFFF80
ENDCHAR
STARTCHAR ACE1
ENCODING 12398
SWIDTH 1800 0
DWIDTH 18 0
BBX 16 16 1 -3
BITMAP
3FFC
0004
0004
0004
0108
0100
0100
FFFF
0000
0000
3FFC
0004
0004
0004
0004
0004
ENDCHAR
STARTCHAR ACE4
ENCODING 12399
SWIDTH 1800 0
DWIDTH 18 0
BBX 16 14 1 -2
BITMAP
3FFC
0004
0004
0104
0104
0100
FFFF
0000
0000
2000
2000
2000
2000
3FFC
ENDCHAR
STARTCHAR ACE7
ENCODING 12400
SWIDTH 1800 0
DWIDTH 18 0
BBX 16 15 1 -2
BITMAP
3FFC
0004
0004
0004
0108
0100
0100
FFFF
0000
0000
3FFC
2000
2000
2000
3FFC
ENDCHAR
STARTCHAR ACE8
ENCODING 12401
SWIDTH 1800 0
DWIDTH 18 0
BBX 16 15 1 -2
BITMAP
3FFC
0004
0004
0104
0108
0100
FFFF
0000
0000
3FFC
0004
0004
3FFC
2000
3FFC
ENDCHAR
STARTCHAR ACEA
ENCODING 12402
SWIDTH 1800 0
DWIDTH 18 0
BBX 16 16 1 -3
BITMAP
3FFC
0004
0004
0008
0108
0100
0100
FFFF
0000
3E7C
0244
0244
3E44
2044
3F7C
0044
ENDCHAR
STARTCHAR ACEC
ENCODING 12403
SWIDTH 1800 0
DWIDTH 18 0
BBX 16 16 1 -3
BITMAP
3FFC
0004
0004
0104
0104
0100
FFFF
0000
0000
3E10
0210
0230
3E30
2028
204C
3E84
ENDCHAR
STARTCHAR ACEF
ENCODING 12404
SWIDTH 1800 0
DWIDTH 18 0
BBX 16 16 1 -3
BITMAP
3FFC
0004
0004
0104
0104
0100
FFFF
0000
0078
3E00
02FC
3E00
2078
2084
3E84
0078
ENDCHAR
STARTCHAR ACF0
ENCODING 12405
SWIDTH 1800 0
DWIDTH 18 0
BBX 16 16 1 -3
BITMAP
3FFC
0004
0004
0004
0108
0100
0100
FFFF
0000
0000
3FFC
2004
2004
2004
3FFC
2004
ENDCHAR
STARTCHAR ACF1
ENCODING 12406
SWIDTH 1800 0
DWIDTH 18 0
BBX 16 16 1 -3
BITMAP
3FFC
0004
0004
0004
0108
0100
0100
FFFF
0000
2004
2004
3FFC
2004
2004
3FFC
2004
ENDCHAR
STARTCHAR ACF3
ENCODING 12407
SWIDTH 1800 0
DWIDTH 18 0
BBX 16 16 1 -3
BITMAP
3FFC
0004
0004
0104
0108
0108
0100
FFFF
0000
0000
0180
0180
02C0
0460
1838
200C
ENDCHAR
STARTCHAR ACF5
ENCODING 12408
SWIDTH 1800 0
DWIDTH 18 0
BBX 16 16 1 -3
BITMAP
3FFC
0004
0004
0004
0108
0100
0100
FFFF
0000
0000
0FF0
180C
2004
2004
1018
0FF0
ENDCHAR
STARTCHAR ACF6
ENCODING 12409
SWIDTH 1800 0
DWIDTH 18 0
BBX 16 16 1 -3
BITMAP
3FFC
0004
0004
0104
0108
0100
FFFF
0000
0000
3FFC
0180
0180
03C0
0660
1830
200C
ENDCHAR
STARTCHAR ACFC
ENCODING 12410
SWIDTH 1800 0
DWIDTH 18 0
BBX 16 17 1 -3
BITMAP
0008
0008
7F88
0088
0088
0088
0888
0888
088F
0808
0808
0868
FF88
0008
0008
0008
0008
ENDCHAR
STARTCHAR ACFD
ENCODING 12411
SWIDTH 1800 0
DWIDTH 18 0
BBX 16 17 1 -3
BITMAP
0008
0008
7F88
0088
0088
0888
088F
0808
0BE8
F408
0008
7FF8
0008
0008
0008
0008
0008
ENDCHAR
STARTCHAR AD00
ENCODING 12412
SWIDTH 1800 0
DWIDTH 18 0
BBX 16 17 1 -3
BITMAP
0008
0008
7F88
0088
0088
0888
0888
088F
0888
FFC8
0008
0008
2008
2000
2000
2000
3FFC
ENDCHAR
STARTCHAR AD04
ENCODING 12413
SWIDTH 1800 0
DWIDTH 18 0
BBX 16 17 1 -3
BITMAP
0008
0008
7F88
0088
0888
0888
088F
09E8
FE08
0008
3FF8
0008
0008
3FF8
2000
2000
3FFC
ENDCHAR
STARTCHAR AD06
ENCODING 12414
SWIDTH 1800 0
DWIDTH 18 0
BBX 16 16 1 -3
BITMAP
0008
7F88
0088
0888
088F
0888
0808
FFE8
0000
3EF8
0288
0288
3E88
2088
20F8
3F88
ENDCHAR
STARTCHAR AD0C
ENCODING 12577
SWIDTH 1800 0
DWIDTH 18 0
BBX 16 17 1 -3
BITMAP
0008
0008
7F88
0088
0088
0888
088F
0808
FFE8
0008
0000
3FF8
2008
2008
2008
2008
3FF8
ENDCHAR
STARTCHAR AD0D
ENCODING 12578
SWIDTH 1800 0
DWIDTH 18 0
BBX 16 18 1 -4
BITMAP
0008
0008
7F88
0088
0888
0888
088F
0808
FFE8
0008
0000
2008
2008
3FF8
2008
2008
3FF8
2000
ENDCHAR
STARTCHAR AD0F
ENCODING 12579
SWIDTH 1800 0
DWIDTH 18 0
BBX 16 17 1 -3
BITMAP
0008
0008
7F88
0088
0088
0888
088F
0888
0868
FF88
0008
0088
0180
0140
0220
0C18
3004
ENDCHAR
STARTCHAR AD11
ENCODING 12580
SWIDTH 1800 0
DWIDTH 18 0
BBX 16 16 1 -3
BITMAP
0008
7F88
0088
0088
0888
088F
0888
0BE8
F408
0008
0000
1FF8
2004
2004
300C
0FF0
ENDCHAR
STARTCHAR AD18
ENCODING 12581
SWIDTH 1800 0
DWIDTH 18 0
BBX 14 16 2 -3
BITMAP
0024
7E24
0224
0224
0224
1224
1224
123C
1024
1024
FF24
0024
0024
0024
0024
0004
ENDCHAR
STARTCHAR AD1C
ENCODING 12582
SWIDTH 1800 0
DWIDTH 18 0
BBX 14 17 2 -3
BITMAP
0004
0024
FE24
0224
0224
0224
1224
123C
1024
1FA4
E024
0024
2024
2000
2000
2000
3FFC
ENDCHAR
STARTCHAR AD20
ENCODING 12583
SWIDTH 1800 0
DWIDTH 18 0
BBX 14 17 2 -3
BITMAP
0004
0024
7E24
0224
0224
1224
123C
1024
FFA4
0000
0000
3FFC
0004
3FFC
2000
2000
3FFC
ENDCHAR
STARTCHAR AD29
ENCODING 12584
SWIDTH 1800 0
DWIDTH 18 0
BBX 14 18 2 -4
BITMAP
0004
0024
7E24
0224
0224
1224
123C
1024
FFA4
0024
0000
2004
2004
3FFC
2004
2004
3FFC
2000
ENDCHAR
STARTCHAR AD2C
ENCODING 12585
SWIDTH 1800 0
DWIDTH 18 0
BBX 15 17 1 -3
BITMAP
0004
0024
7F24
0124
1124
1124
123C
1024
FF24
0024
0000
0608
0418
0618
0B14
1126
20C2
ENDCHAR
STARTCHAR AD2D
ENCODING 12586
SWIDTH 1800 0
DWIDTH 18 0
BBX 14 17 2 -3
BITMAP
0024
0024
7F24
0224
0224
1224
123C
1024
FFA4
0024
0004
03C0
1C38
2004
2004
3008
0FF0
ENDCHAR
STARTCHAR AD34
ENCODING 12587
SWIDTH 1800 0
DWIDTH 18 0
BBX 14 17 2 -3
BITMAP
0004
0004
7FC4
0044
0044
0044
0084
0884
0884
0884
0804
0BE4
FC04
0004
0004
0004
0004
ENDCHAR
STARTCHAR AD35
ENCODING 12588
SWIDTH 1800 0
DWIDTH 18 0
BBX 14 17 2 -3
BITMAP
0004
7FC4
00C4
0084
0084
0884
0804
0804
FFE4
0004
0000
3FFC
0004
0004
0004
0004
0004
ENDCHAR
STARTCHAR AD38
ENCODING 12589
SWIDTH 1800 0
DWIDTH 18 0
BBX 14 17 2 -3
BITMAP
0004
7FC4
0044
0044
0044
0844
0884
0804
0804
FFC4
0004
0004
2004
2000
2000
2000
3FFC
ENDCHAR
STARTCHAR AD3C
ENCODING 12590
SWIDTH 1800 0
DWIDTH 18 0
BBX 14 17 2 -3
BITMAP
0004
0004
7FC4
0044
0844
0884
0884
0804
FFC4
0000
3FFC
0004
0004
3FFC
2000
2000
3FFC
ENDCHAR
STARTCHAR AD44
ENCODING 12591
SWIDTH 1800 0
DWIDTH 18 0
BBX 14 17 2 -3
BITMAP
0004
0004
3FC4
0084
0884
0884
0884
0824
FFC4
0004
0000
3FFC
2004
2004
2004
2004
3FFC
ENDCHAR
STARTCHAR AD45
ENCODING 12592
SWIDTH 1800 0
DWIDTH 18 0
BBX 14 18 2 -4
BITMAP
0004
0004
7FC4
0084
0884
0884
0884
0824
FFC4
0004
0000
2004
2004
3FFC
2004
2004
3FFC
2000
ENDCHAR
STARTCHAR AD47
ENCODING 12593
SWIDTH 1800 0
DWIDTH 18 0
BBX 14 17 2 -3
BITMAP
0008
7F88
0088
0088
0088
0888
0888
0808
0828
FFC8
0008
0188
0180
0380
0640
0C38
300C
ENDCHAR
STARTCHAR AD49
ENCODING 12594
SWIDTH 1800 0
DWIDTH 18 0
BBX 14 17 2 -3
BITMAP
0004
7F84
0084
0084
0084
0884
0884
0804
0804
FFC4
0000
07C0
1838
2004
2004
1808
07F0
ENDCHAR
STARTCHAR AD50
ENCODING 12595
SWIDTH 1800 0
DWIDTH 18 0
BBX 17 13 0 -1
BITMAP
1FFE00
000200
000200
000200
000200
042200
042200
042200
042200
042400
042000
042000
FFFF80
ENDCHAR
STARTCHAR AD54
ENCODING 12596
SWIDTH 1800 0
DWIDTH 18 0
BBX 17 15 0 -2
BITMAP
1FFE00
000200
000200
042200
042200
042000
042000
FFFF80
000000
000000
100000
100000
100000
100000
1FFE00
ENDCHAR
STARTCHAR AD58
ENCODING 12597
SWIDTH 1800 0
DWIDTH 18 0
BBX 17 15 0 -2
BITMAP
1FFE00
000200
000200
042200
042400
042000
FFFF80
000000
000000
1FFE00
000200
000200
1FFE00
100000
1FFE00
ENDCHAR
STARTCHAR AD61
ENCODING 12598
SWIDTH 1800 0
DWIDTH 18 0
BBX 17 16 0 -3
BITMAP
1FFE00
000200
000200
000200
042400
042000
042000
FFFF80
000000
100200
100200
1FFE00
100200
100200
1FFE00
100200
ENDCHAR
STARTCHAR AD63
ENCODING 12599
SWIDTH 1800 0
DWIDTH 18 0
BBX 17 16 0 -3
BITMAP
1FFE00
000200
000200
000200
042400
042400
042000
042000
FFFF80
000000
008000
008000
014000
022000
0C1800
300600
ENDCHAR
STARTCHAR AD6C
ENCODING 12600
SWIDTH 1800 0
DWIDTH 18 0
BBX 17 16 1 -3
BITMAP
3FFC00
000400
000400
000400
000400
000400
000800
FFFF80
008000
008000
008000
008000
008000
008000
008000
008000
ENDCHAR
STARTCHAR AD6D
ENCODING 12601
SWIDTH 1800 0
DWIDTH 18 0
BBX 17 16 0 -3
BITMAP
1FFE00
000200
000200
000200
000400
000400
FFFF80
008000
008000
008000
3FFE00
000200
000200
000200
000200
000200
ENDCHAR
STARTCHAR AD70
ENCODING 12602
SWIDTH 1800 0
DWIDTH 18 0
BBX 17 15 1 -2
BITMAP
3FFC00
000400
000400
000400
000400
000400
FFFF80
008000
008000
208000
208000
208000
200000
200000
3FFC00
ENDCHAR
STARTCHAR AD73
ENCODING 12603
SWIDTH 1800 0
DWIDTH 18 0
BBX 17 16 0 -3
BITMAP
3FFC00
000400
000400
000400
000400
000400
FFFF80
008000
008000
008000
1FFC00
100000
100000
100000
100000
1FFE00
ENDCHAR
STARTCHAR AD74
ENCODING 12604
SWIDTH 1800 0
DWIDTH 18 0
BBX 17 15 0 -2
BITMAP
3FFE00
000200
000200
000200
000600
FFFF80
008000
008000
008000
1FFE00
000200
1FFE00
100000
100000
1FFE00
ENDCHAR
STARTCHAR AD75
ENCODING 12605
SWIDTH 1800 0
DWIDTH 18 0
BBX 17 16 0 -3
BITMAP
3FFC00
000400
000400
000400
000400
FFFF80
008000
008000
008000
1F3E00
010200
010200
1F0200
100200
100200
1F8200
ENDCHAR
STARTCHAR AD76
ENCODING 12606
SWIDTH 1800 0
DWIDTH 18 0
BBX 17 16 1 -3
BITMAP
3FFC00
000400
000400
000400
000400
FFFF80
008000
008000
000000
3E7C00
024400
024400
3E4400
204400
207C00
3F4400
ENDCHAR
STARTCHAR AD7B
ENCODING 12607
SWIDTH 1800 0
DWIDTH 18 0
BBX 17 16 0 -3
BITMAP
3FFE00
000400
000400
000400
000400
FFFF80
008000
008000
008000
1F3800
01FE00
010000
1F3C00
104200
104200
1F3C00
ENDCHAR
STARTCHAR AD7C
ENCODING 12608
SWIDTH 1800 0
DWIDTH 18 0
BBX 16 16 1 -3
BITMAP
3FFC
0004
0004
0004
0004
0008
FFFF
0080
0080
0080
3FFC
2004
2004
2004
3FFC
2004
ENDCHAR
STARTCHAR AD7D
ENCODING 12609
SWIDTH 1800 0
DWIDTH 18 0
BBX 17 16 1 -3
BITMAP
3FFC00
000400
000400
000400
000400
000400
FFFF80
008000
008000
208400
200400
3FFC00
200400
200400
3FFC00
200400
ENDCHAR
STARTCHAR AD7F
ENCODING 12610
SWIDTH 1800 0
DWIDTH 18 0
BBX 17 16 0 -3
BITMAP
3FFC00
000400
000400
000400
000400
000400
FFFF80
008000
008000
008000
00C000
00C000
01C000
033000
0C1C00
180600
ENDCHAR
STARTCHAR AD81
ENCODING 12611
SWIDTH 1800 0
DWIDTH 18 0
BBX 17 16 0 -3
BITMAP
3FFE00
000400
000400
000400
000400
000400
FFFF80
008000
008000
01F000
0E0C00
100200
100200
180400
0E0800
01F000
ENDCHAR
STARTCHAR AD82
ENCODING 12612
SWIDTH 1800 0
DWIDTH 18 0
BBX 17 16 0 -3
BITMAP
3FFE00
000400
000400
000400
000400
FFFF80
008000
008000
008000
1FFE00
00C000
00C000
01E000
033000
061C00
180600
ENDCHAR
STARTCHAR AD88
ENCODING 12613
SWIDTH 1800 0
DWIDTH 18 0
BBX 14 17 2 -3
BITMAP
0004
0004
7F84
0084
0084
0084
0084
0084
FFF4
0404
0404
047C
0404
0404
0404
0404
0004
ENDCHAR
STARTCHAR AD89
ENCODING 12614
SWIDTH 1800 0
DWIDTH 18 0
BBX 14 17 2 -3
BITMAP
0004
7F84
0084
0084
0084
0084
FFE4
0404
047C
0404
0004
3FFC
0004
0004
0004
0004
0004
ENDCHAR
STARTCHAR AD8C
ENCODING 12615
SWIDTH 1800 0
DWIDTH 18 0
BBX 14 16 2 -3
BITMAP
0004
7FC4
0044
0084
0084
0084
FFE4
0404
0404
047C
0404
2004
2004
2000
2000
3FFC
ENDCHAR
STARTCHAR AD90
ENCODING 12616
SWIDTH 1800 0
DWIDTH 18 0
BBX 14 17 2 -3
BITMAP
0004
7FC4
0084
0084
0084
0084
FFF4
0404
047C
0404
3FFC
0004
0004
3FFC
2000
2000
3FFC
ENDCHAR
STARTCHAR AD9C
ENCODING 12617
SWIDTH 1800 0
DWIDTH 18 0
BBX 15 17 1 -3
BITMAP
0004
0004
7F84
0084
0084
0084
FFE4
0404
047C
0404
000C
0408
0618
0614
0926
10C2
2000
ENDCHAR
STARTCHAR AD9D
ENCODING 12618
SWIDTH 1800 0
DWIDTH 18 0
BBX 14 17 2 -3
BITMAP
0004
0004
7F84
0084
0084
0084
01E4
FE04
047C
0404
0404
0FF0
3008
2004
2004
1008
0FF0
ENDCHAR
STARTCHAR ADA4
ENCODING 12619
SWIDTH 1800 0
DWIDTH 18 0
BBX 15 17 1 -3
BITMAP
0002
0012
3F12
0112
0112
0112
0212
0212
FF92
0812
0812
08F2
0812
0812
0812
0012
0012
ENDCHAR
STARTCHAR ADB7
ENCODING 12620
SWIDTH 1800 0
DWIDTH 18 0
BBX 15 17 1 -3
BITMAP
0002
0022
7F22
0222
0222
0222
0222
FFA2
0822
09E2
0822
0862
00C0
00E0
0330
060C
1802
ENDCHAR
STARTCHAR ADC0
ENCODING 12621
SWIDTH 1800 0
DWIDTH 18 0
BBX 14 17 2 -3
BITMAP
0004
0004
7F84
0084
0084
0084
0084
0104
FFE4
0404
0404
0404
0404
0404
0404
0404
0004
ENDCHAR
STARTCHAR ADC1
ENCODING 12622
SWIDTH 1800 0
DWIDTH 18 0
BBX 14 17 2 -3
BITMAP
0004
0004
7F84
0084
0084
0084
00A4
FF44
0404
0404
0400
3FFC
0004
0004
0004
0004
0004
ENDCHAR
STARTCHAR ADC4
ENCODING 12623
SWIDTH 1800 0
DWIDTH 18 0
BBX 14 17 2 -3
BITMAP
0004
7F84
0084
0084
0084
0084
0084
FFE4
0404
0404
0404
0404
2004
2000
2000
2000
3FFC
ENDCHAR
STARTCHAR ADC8
ENCODING 12624
SWIDTH 1800 0
DWIDTH 18 0
BBX 14 16 2 -3
BITMAP
0004
7F84
0084
0084
0084
00A4
FF44
0404
0404
0000
1FFC
0004
3FFC
2000
2000
3FFC
ENDCHAR
STARTCHAR ADD0
ENCODING 12625
SWIDTH 1800 0
DWIDTH 18 0
BBX 14 17 2 -4
BITMAP
0004
7F84
0084
0084
0084
0084
FFE4
0404
0404
0404
3FFC
2004
2004
2004
2004
3FFC
2000
ENDCHAR
STARTCHAR ADD1
ENCODING 12626
SWIDTH 1800 0
DWIDTH 18 0
BBX 14 18 2 -4
BITMAP
0004
0004
7F84
0084
0084
0084
0084
FFE4
0404
0404
0400
2004
2004
3FFC
2004
2004
3FFC
2000
ENDCHAR
STARTCHAR ADD3
ENCODING 12627
SWIDTH 1800 0
DWIDTH 18 0
BBX 15 17 1 -3
BITMAP
0004
0004
3F84
0084
0084
0084
00E4
FF04
0404
0404
0404
0444
00C0
00E0
0130
061C
1802
ENDCHAR
STARTCHAR ADDC
ENCODING 12628
SWIDTH 1800 0
DWIDTH 18 0
BBX 18 16 0 -3
BITMAP
3FFE00
000200
000200
000200
000200
000200
000400
FFFFC0
040800
040800
040800
040800
040800
040800
040800
040800
ENDCHAR
STARTCHAR ADE0
ENCODING 12629
SWIDTH 1800 0
DWIDTH 18 0
BBX 16 15 1 -2
BITMAP
3FFC
0004
000C
0008
0008
0008
FFFF
0420
0420
2420
2420
2420
2000
2000
3FFC
ENDCHAR
STARTCHAR ADE4
ENCODING 12630
SWIDTH 1800 0
DWIDTH 18 0
BBX 16 15 1 -2
BITMAP
3FFC
0004
0004
0004
0004
FFFF
0420
0420
0420
3FFC
0004
3FFC
2000
2000
3FFC
ENDCHAR
STARTCHAR ADF8
ENCODING 12631
SWIDTH 1800 0
DWIDTH 18 0
BBX 16 12 1 -1
BITMAP
3FFC
0004
0004
0004
0004
0004
0004
0008
0008
0008
0008
FFFF
ENDCHAR
STARTCHAR ADF9
ENCODING 12632
SWIDTH 1800 0
DWIDTH 18 0
BBX 16 16 1 -3
BITMAP
3FFC
0004
0004
0004
0008
0008
FFFF
0000
0000
3FFC
0004
0004
0004
0004
0004
0004
ENDCHAR
STARTCHAR ADFC
ENCODING 12633
SWIDTH 1800 0
DWIDTH 18 0
BBX 16 14 1 -2
BITMAP
3FFC
0004
0004
0004
0008
0008
FFFF
0000
0000
2000
2000
2000
2000
3FFC
ENDCHAR
STARTCHAR ADFF
ENCODING 12634
SWIDTH 1800 0
DWIDTH 18 0
BBX 16 15 1 -2
BITMAP
3FFC
0004
0004
000C
0008
0008
FFFF
0000
0000
0000
3FFC
2000
2000
2000
3FFC
ENDCHAR
STARTCHAR AE00
ENCODING 12635
SWIDTH 1800 0
DWIDTH 18 0
BBX 16 16 1 -3
BITMAP
3FFC
0004
0004
0008
0008
FFFF
0000
0000
0000
3FFC
0004
3FFC
2000
2000
2000
3FFC
ENDCHAR
STARTCHAR AE01
ENCODING 12636
SWIDTH 1800 0
DWIDTH 18 0
BBX 16 16 1 -3
BITMAP
3FFC
0004
0004
0004
0004
0008
FFFF
0000
0000
3F7C
0104
3F04
2004
2004
3F04
0004
ENDCHAR
STARTCHAR AE08
ENCODING 12637
SWIDTH 1800 0
DWIDTH 18 0
BBX 16 16 1 -3
BITMAP
3FFC
0004
0004
0004
0008
0008
FFFF
0000
0000
0000
3FFC
2004
2004
2004
3FFC
2004
ENDCHAR
STARTCHAR AE09
ENCODING 12638
SWIDTH 1800 0
DWIDTH 18 0
BBX 16 16 1 -3
BITMAP
3FFC
0004
0004
0004
0008
0008
FFFF
0000
0000
2004
2004
3FFC
2004
2004
3FFC
2004
ENDCHAR
STARTCHAR AE0B
ENCODING 12639
SWIDTH 1800 0
DWIDTH 18 0
BBX 16 16 1 -3
BITMAP
3FFC
0004
0004
0004
0008
0008
0008
FFFF
0000
0000
0180
0180
0340
0660
0C18
700C
ENDCHAR
STARTCHAR AE0D
ENCODING 12640
SWIDTH 1800 0
DWIDTH 18 0
BBX 16 14 1 -2
BITMAP
3FFC
0004
0004
0008
0008
FFFF
0000
0000
0FF0
1818
2004
2004
1008
0FF0
ENDCHAR
STARTCHAR AE14
ENCODING 12641
SWIDTH 1800 0
DWIDTH 18 0
BBX 14 17 2 -3
BITMAP
0004
0004
7FC4
0044
0044
0044
0084
0084
0084
0004
0004
00E4
FF04
0004
0004
0004
0004
ENDCHAR
STARTCHAR AE30
ENCODING 12642
SWIDTH 1800 0
DWIDTH 18 0
BBX 14 17 2 -3
BITMAP
0004
0004
7F04
0104
0104
0104
0304
0204
0204
0404
0804
1004
2004
C004
0004
0004
0004
ENDCHAR
STARTCHAR AE31
ENCODING 12643
SWIDTH 1800 0
DWIDTH 18 0
BBX 13 17 3 -3
BITMAP
0008
0008
FE08
0208
0208
0408
0408
0808
3008
C008
0000
7FF8
0008
0008
0008
0008
0008
ENDCHAR
STARTCHAR AE34
ENCODING 12644
SWIDTH 1800 0
DWIDTH 18 0
BBX 14 17 2 -3
BITMAP
0004
0004
FF04
0104
0104
0204
0204
0404
0804
3004
C004
0004
2004
2000
2000
2000
3FFC
ENDCHAR
STARTCHAR AE37
ENCODING 12645
SWIDTH 1800 0
DWIDTH 18 0
BBX 14 16 2 -3
BITMAP
0004
7F04
0104
0104
0204
0604
0404
1804
7004
C004
3FF8
2000
2000
2000
2000
3FFC
ENDCHAR
STARTCHAR AE38
ENCODING 12646
SWIDTH 1800 0
DWIDTH 18 0
BBX 14 17 2 -3
BITMAP
0004
7F04
0104
0104
0304
0604
0C04
3004
C004
0000
3FFC
0004
0004
3FFC
2000
2000
3FFC
ENDCHAR
STARTCHAR AE3A
ENCODING 12647
SWIDTH 1800 0
DWIDTH 18 0
BBX 13 17 3 -3
BITMAP
0008
0008
FE08
0208
0208
0408
0C08
1808
6008
8000
7CF8
0488
0488
7C88
4088
40F8
7E88
ENDCHAR
STARTCHAR AE40
ENCODING 12648
SWIDTH 1800 0
DWIDTH 18 0
BBX 14 18 2 -4
BITMAP
0004
0004
7F04
0104
0104
0304
0204
0404
1804
7004
C000
3FFC
2004
2004
2004
2004
3FFC
2000
ENDCHAR
STARTCHAR AE41
ENCODING 12649
SWIDTH 1800 0
DWIDTH 18 0
BBX 14 18 2 -4
BITMAP
0004
0004
7F04
0104
0104
0204
0204
0404
1804
E000
2004
2004
3FFC
2004
2004
2004
3FFC
2000
ENDCHAR
STARTCHAR AE43
ENCODING 12650
SWIDTH 1800 0
DWIDTH 18 0
BBX 14 17 2 -3
BITMAP
0008
FF08
0108
0208
0208
0608
0408
1808
3008
C008
0008
0100
0180
02C0
0660
1818
3004
ENDCHAR
STARTCHAR AE45
ENCODING 12651
SWIDTH 1800 0
DWIDTH 18 0
BBX 14 17 2 -3
BITMAP
0004
7F04
0104
0104
0104
0204
0404
0804
3004
C004
0000
0FF0
1008
2004
2004
1008
0FF0
ENDCHAR
STARTCHAR AE46
ENCODING 12652
SWIDTH 1800 0
DWIDTH 18 0
BBX 15 17 2 -3
BITMAP
0004
FF04
0104
0104
0204
0604
0C04
3004
E004
0000
0000
3FFC
0080
0180
0340
0C30
300E
ENDCHAR
STARTCHAR AE4A
ENCODING 12653
SWIDTH 1800 0
DWIDTH 18 0
BBX 15 17 2 -3
BITMAP
0004
0004
FF04
0104
0104
0204
0204
0404
1804
6000
BFFC
0000
0000
0420
0420
0420
7FFE
ENDCHAR
STARTCHAR AE4C
ENCODING 12654
SWIDTH 1800 0
DWIDTH 18 0
BBX 16 16 1 -3
BITMAP
0008
0008
7BC8
0848
0848
0848
1088
108F
2088
2108
4108
8208
0208
0408
0008
0008
ENDCHAR
STARTCHAR AE4D
ENCODING 12655
SWIDTH 1800 0
DWIDTH 18 0
BBX 16 17 1 -3
BITMAP
0004
0008
7BC8
0848
1048
1048
3087
2084
4104
8304
0204
0000
7FF8
0008
0008
0008
0008
ENDCHAR
STARTCHAR AE4E
ENCODING 12656
SWIDTH 1800 0
DWIDTH 18 0
BBX 15 16 2 -3
BITMAP
0010
F710
1110
1110
2210
221E
4210
8410
0810
0000
7DF0
0410
0410
0410
0410
0410
ENDCHAR
STARTCHAR AE50
ENCODING 12657
SWIDTH 1800 0
DWIDTH 18 0
BBX 16 17 1 -3
BITMAP
0008
0008
7BC8
0848
0848
1048
1088
208F
4108
C308
0608
0008
2008
2000
2000
2000
3FFC
ENDCHAR
STARTCHAR AE54
ENCODING 12658
SWIDTH 1800 0
DWIDTH 18 0
BBX 16 17 1 -3
BITMAP
0008
0008
7BC8
0848
1048
1088
308F
2108
C208
0408
3FF8
0008
0008
3FF8
2000
2000
3FFC
ENDCHAR
STARTCHAR AE56
ENCODING 12659
SWIDTH 1800 0
DWIDTH 18 0
BBX 16 17 1 -3
BITMAP
0008
0008
7BC8
0848
1088
108F
2088
4108
8208
0400
3EF8
0288
0288
3E88
2088
20F8
3F88
ENDCHAR
STARTCHAR AE5C
ENCODING 12660
SWIDTH 1800 0
DWIDTH 18 0
BBX 16 17 1 -3
BITMAP
0008
0008
7BC8
0848
0848
1088
108F
2088
4108
8208
0200
3FF8
2008
2008
2008
3FF8
2008
ENDCHAR
STARTCHAR AE5D
ENCODING 12661
SWIDTH 1800 0
DWIDTH 18 0
BBX 16 17 1 -3
BITMAP
0008
0008
7BC8
0848
0848
1088
308F
2108
4308
8608
0008
2008
3FF8
3F08
2008
3FF8
2008
ENDCHAR
STARTCHAR AE5F
ENCODING 12662
SWIDTH 1800 0
DWIDTH 18 0
BBX 16 17 1 -3
BITMAP
0008
0008
7BC8
0848
0848
0848
108F
3088
2188
C108
8208
00C8
00C0
0120
0230
0C0C
1802
ENDCHAR
STARTCHAR AE60
ENCODING 12663
SWIDTH 1800 0
DWIDTH 18 0
BBX 16 17 1 -3
BITMAP
0008
0008
7BC8
0848
0848
1048
108F
2088
4108
8308
0200
0810
0810
0C38
1428
22C4
C080
ENDCHAR
STARTCHAR AE61
ENCODING 12664
SWIDTH 1800 0
DWIDTH 18 0
BBX 16 17 1 -3
BITMAP
0008
0008
7BC8
0848
0848
1088
108F
2088
6108
C208
0008
0FF0
300C
2004
2004
1818
07E0
ENDCHAR
STARTCHAR AE65
ENCODING 12665
SWIDTH 1800 0
DWIDTH 18 0
BBX 16 17 1 -3
BITMAP
0008
0008
7BC8
0848
1048
1088
208F
6108
8308
0208
3FF8
2000
2000
3FF8
2000
2000
3FFC
ENDCHAR
STARTCHAR AE68
ENCODING 12666
SWIDTH 1800 0
DWIDTH 18 0
BBX 14 17 2 -3
BITMAP
0024
0024
7724
1124
1124
1124
2224
2224
223C
4224
C424
8424
0824
0024
0024
0024
0004
ENDCHAR
STARTCHAR AE69
ENCODING 12667
SWIDTH 1800 0
DWIDTH 18 0
BBX 14 17 2 -3
BITMAP
0004
0024
7724
1124
2124
2124
223C
4224
8424
0824
0800
3FFC
0004
0004
0004
0004
0004
ENDCHAR
STARTCHAR AE6C
ENCODING 12668
SWIDTH 1800 0
DWIDTH 18 0
BBX 14 17 2 -3
BITMAP
0004
0024
7724
1124
1124
1124
2124
223C
4224
8424
0824
0024
2004
2000
2000
2000
3FFC
ENDCHAR
STARTCHAR AE70
ENCODING 12669
SWIDTH 1800 0
DWIDTH 18 0
BBX 14 17 2 -3
BITMAP
0004
0024
7724
1124
1124
2124
223C
6224
4424
8C04
3FFC
0004
0004
3FFC
2000
2000
3FFC
ENDCHAR
STARTCHAR AE78
ENCODING 12670
SWIDTH 1800 0
DWIDTH 18 0
BBX 14 18 2 -4
BITMAP
0004
0024
7724
1124
1124
2124
223C
2224
4224
8424
0000
3FFC
2004
2004
2004
2004
3FFC
2000
ENDCHAR
STARTCHAR AE79
ENCODING 12833
SWIDTH 1800 0
DWIDTH 18 0
BBX 14 17 2 -3
BITMAP
0004
0024
7724
1124
1124
2124
213C
6224
4224
8424
0000
2004
2004
3FFC
2004
3FFC
2004
ENDCHAR
STARTCHAR AE7B
ENCODING 12834
SWIDTH 1800 0
DWIDTH 18 0
BBX 14 17 2 -3
BITMAP
0004
0024
FF24
1124
1124
2224
2224
423C
4424
8C24
0824
0084
0180
0140
0620
0C1C
3004
ENDCHAR
STARTCHAR AE7C
ENCODING 12835
SWIDTH 1800 0
DWIDTH 18 0
BBX 14 17 2 -3
BITMAP
0004
0024
F724
1124
1124
2124
213C
4224
4224
8424
0400
0410
0C10
0C18
1628
3244
6080
ENDCHAR
STARTCHAR AE7D
ENCODING 12836
SWIDTH 1800 0
DWIDTH 18 0
BBX 14 16 2 -3
BITMAP
0024
7724
1124
1124
1124
2224
223C
4224
8424
0424
0004
1FF8
2004
2004
300C
0FF0
ENDCHAR
STARTCHAR AE84
ENCODING 12837
SWIDTH 1800 0
DWIDTH 18 0
BBX 16 17 1 -3
BITMAP
0008
0008
7BC8
0848
0848
1088
108F
1088
2088
2108
410F
8208
0608
0408
0008
0008
0008
ENDCHAR
STARTCHAR AE85
ENCODING 12838
SWIDTH 1800 0
DWIDTH 18 0
BBX 16 17 1 -3
BITMAP
0008
0008
7BC8
0848
104F
1048
1088
208F
4108
8208
0600
7FF8
0008
0008
0008
0008
0008
ENDCHAR
STARTCHAR AE8C
ENCODING 12839
SWIDTH 1800 0
DWIDTH 18 0
BBX 16 16 1 -3
BITMAP
0008
7BC8
084F
1088
1088
3088
610F
C208
8408
0000
3FF8
0008
3FF8
2000
2000
3FFC
ENDCHAR
STARTCHAR AEBC
ENCODING 12840
SWIDTH 1800 0
DWIDTH 18 0
BBX 14 16 2 -3
BITMAP
0004
7BC4
0844
0884
1084
1084
10BC
2104
4104
C204
0204
0404
0004
0004
0004
0004
ENDCHAR
STARTCHAR AEBD
ENCODING 12841
SWIDTH 1800 0
DWIDTH 18 0
BBX 14 17 2 -3
BITMAP
0004
0004
7B84
0884
1084
1084
113C
2104
4204
8404
0004
3FFC
0004
0004
0004
0004
0004
ENDCHAR
STARTCHAR AEBE
ENCODING 12842
SWIDTH 1800 0
DWIDTH 18 0
BBX 14 18 2 -4
BITMAP
0004
0004
7BC4
0844
1044
10BC
2084
6104
C304
0604
0000
3EFC
0204
0204
0204
0204
0204
0004
ENDCHAR
STARTCHAR AEC0
ENCODING 12843
SWIDTH 1800 0
DWIDTH 18 0
BBX 14 17 2 -3
BITMAP
0004
0004
7BC4
0884
0884
1084
10BC
2104
6104
C204
0404
0004
2004
2004
2000
2000
3FFC
ENDCHAR
STARTCHAR AEC4
ENCODING 12844
SWIDTH 1800 0
DWIDTH 18 0
BBX 14 17 2 -3
BITMAP
0004
0004
7BC4
0844
1084
1084
30BC
2104
C204
0604
3FFC
0004
0004
3FFC
2000
2000
3FFC
ENDCHAR
STARTCHAR AECC
ENCODING 12845
SWIDTH 1800 0
DWIDTH 18 0
BBX 14 17 2 -3
BITMAP
0004
0004
7B84
0884
1084
1084
113C
2104
4204
8604
0404
3FFC
2004
2004
2004
3FFC
2004
ENDCHAR
STARTCHAR AECD
ENCODING 12846
SWIDTH 1800 0
DWIDTH 18 0
BBX 14 18 2 -4
BITMAP
0004
0004
7BC4
0884
1084
10BC
1084
2104
4204
8404
0000
2004
2004
3FFC
2004
2004
3FFC
2000
ENDCHAR
STARTCHAR AECF
ENCODING 12847
SWIDTH 1800 0
DWIDTH 18 0
BBX 14 17 2 -3
BITMAP
0008
0008
FB88
1088
1088
1088
1178
2108
4208
8208
0C08
0108
0180
0380
0640
0C38
3004
ENDCHAR
STARTCHAR AED0
ENCODING 12848
SWIDTH 1800 0
DWIDTH 18 0
BBX 14 17 2 -3
BITMAP
0008
0008
F788
1088
1088
2178
2108
4208
8208
0C08
0000
0810
0810
1430
1468
22CC
C184
ENDCHAR
STARTCHAR AED1
ENCODING 12849
SWIDTH 1800 0
DWIDTH 18 0
BBX 14 17 2 -3
BITMAP
0004
0004
7B84
0884
1084
10BC
1104
2104
4204
8404
0404
0FF0
1008
2004
2004
1008
0FF0
ENDCHAR
STARTCHAR AED8
ENCODING 12850
SWIDTH 1800 0
DWIDTH 18 0
BBX 14 17 2 -3
BITMAP
0024
0024
7724
1124
1124
2124
2224
23E4
4224
4624
8424
8824
0824
1024
0024
0024
0004
ENDCHAR
STARTCHAR AED9
ENCODING 12851
SWIDTH 1800 0
DWIDTH 18 0
BBX 14 17 2 -3
BITMAP
0004
0024
F724
1124
1124
2224
22E4
4224
8424
0824
0000
3FFC
0004
0004
0004
0004
0004
ENDCHAR
STARTCHAR AEDC
ENCODING 12852
SWIDTH 1800 0
DWIDTH 18 0
BBX 14 17 2 -3
BITMAP
0004
0024
F724
1124
2124
22E4
2224
4624
8424
0824
0024
0024
2004
2000
2000
2000
3FFC
ENDCHAR
STARTCHAR AEE8
ENCODING 12853
SWIDTH 1800 0
DWIDTH 18 0
BBX 14 17 2 -3
BITMAP
0004
0024
F724
1124
1124
2224
62E4
4224
8424
0824
0000
3FFC
2004
2004
2004
3FFC
2004
ENDCHAR
STARTCHAR AEEB
ENCODING 12854
SWIDTH 1800 0
DWIDTH 18 0
BBX 15 17 1 -3
BITMAP
0002
0012
7B92
1092
1092
1112
2172
6112
C212
0412
0400
00C0
00C0
01A0
0330
060C
1802
ENDCHAR
STARTCHAR AEED
ENCODING 12855
SWIDTH 1800 0
DWIDTH 18 0
BBX 14 17 2 -3
BITMAP
0004
0024
F724
1124
1124
2224
22E4
4224
8424
8824
0824
0FF0
1808
2004
2004
1008
0FF0
ENDCHAR
STARTCHAR AEF4
ENCODING 12856
SWIDTH 1800 0
DWIDTH 18 0
BBX 14 17 2 -3
BITMAP
0004
0004
7BC4
0844
089C
1084
1084
1084
2184
611C
C304
0204
0404
0004
0004
0004
0004
ENDCHAR
STARTCHAR AEF8
ENCODING 12857
SWIDTH 1800 0
DWIDTH 18 0
BBX 14 17 2 -3
BITMAP
0004
0004
7B84
1084
10BC
1084
3104
2104
423C
8604
0004
0004
2004
2000
2000
2000
3FFC
ENDCHAR
STARTCHAR AEFC
ENCODING 12858
SWIDTH 1800 0
DWIDTH 18 0
BBX 14 17 2 -3
BITMAP
0004
0004
7B84
0884
10BC
1084
2104
613C
C204
0004
3FFC
0004
0004
3FFC
2000
2000
3FFC
ENDCHAR
STARTCHAR AF07
ENCODING 12859
SWIDTH 1800 0
DWIDTH 18 0
BBX 14 17 2 -3
BITMAP
0004
0004
7F84
0884
18BC
1084
1104
2104
623C
C604
0C04
0084
0080
0140
0220
0C18
1004
ENDCHAR
STARTCHAR AF08
ENCODING 12860
SWIDTH 1800 0
DWIDTH 18 0
BBX 14 17 2 -3
BITMAP
0008
0008
F788
1088
10F8
1108
2108
4278
C608
0C08
0000
0810
0810
0C30
1668
22C4
C080
ENDCHAR
STARTCHAR AF0D
ENCODING 12861
SWIDTH 1800 0
DWIDTH 18 0
BBX 14 17 2 -3
BITMAP
0004
0004
7B84
1084
10BC
1084
2104
213C
C204
0400
3FFC
2000
2000
3FFC
2000
2000
3FFC
ENDCHAR
STARTCHAR AF10
ENCODING 12862
SWIDTH 1800 0
DWIDTH 18 0
BBX 14 17 2 -3
BITMAP
0004
0024
7724
1124
1124
21E4
2224
2224
4224
47E4
8424
8824
0824
1024
0024
0024
0024
ENDCHAR
STARTCHAR AF2C
ENCODING 12863
SWIDTH 1800 0
DWIDTH 18 0
BBX 16 12 1 -1
BITMAP
3C7C
0404
0404
0404
0404
0884
0888
0888
0888
0080
0080
FFFF
ENDCHAR
STARTCHAR AF2D
ENCODING 12864
SWIDTH 1800 0
DWIDTH 18 0
BBX 16 16 1 -3
BITMAP
3CFC
0404
0404
0404
0488
0888
0080
FFFF
0000
0000
3FFC
0004
0004
0004
0004
0004
ENDCHAR
STARTCHAR AF30
ENCODING 12865
SWIDTH 1800 0
DWIDTH 18 0
BBX 16 14 1 -2
BITMAP
3CFC
0404
0404
0404
0484
0488
0080
FFFF
0000
2000
2000
2000
2000
3FFC
ENDCHAR
STARTCHAR AF32
ENCODING 12866
SWIDTH 1800 0
DWIDTH 18 0
BBX 16 16 1 -3
BITMAP
3CFC
0404
0404
0408
0888
0080
0080
FFFF
0000
0070
2000
21FC
2000
21FC
2184
3EFC
ENDCHAR
STARTCHAR AF34
ENCODING 12867
SWIDTH 1800 0
DWIDTH 18 0
BBX 16 16 1 -3
BITMAP
3CFC
0404
0404
0484
0488
0488
FFFF
0000
0000
3FFC
0004
0004
3FFC
2000
2000
3FFC
ENDCHAR
STARTCHAR AF3C
ENCODING 12868
SWIDTH 1800 0
DWIDTH 18 0
BBX 16 16 1 -3
BITMAP
3CFC
0404
0404
0408
0488
0080
0080
FFFF
0000
0000
3FFC
2004
2004
2004
3FFC
2004
ENDCHAR
STARTCHAR AF3D
ENCODING 12869
SWIDTH 1800 0
DWIDTH 18 0
BBX 16 16 1 -3
BITMAP
3CFC
0404
0404
0404
0488
0080
0080
FFFF
0000
2004
2004
3FFC
2004
2004
3FFC
2004
ENDCHAR
STARTCHAR AF3F
ENCODING 12870
SWIDTH 1800 0
DWIDTH 18 0
BBX 16 16 1 -3
BITMAP
3CFC
0404
0404
0404
0488
0888
0080
0080
FFFF
0000
0180
0180
03C0
0660
0C38
300C
ENDCHAR
STARTCHAR AF41
ENCODING 12871
SWIDTH 1800 0
DWIDTH 18 0
BBX 16 16 1 -3
BITMAP
3CFC
0404
0404
0404
0488
0080
0080
FFFF
0000
0000
0FF0
1008
2004
2004
100C
0FF0
ENDCHAR
STARTCHAR AF42
ENCODING 12872
SWIDTH 1800 0
DWIDTH 18 0
BBX 16 16 1 -3
BITMAP
3CFC
0404
0404
0404
0484
0080
0080
FFFF
0000
3FFC
0180
0180
0180
0640
1C3C
300C
ENDCHAR
STARTCHAR AF43
ENCODING 12873
SWIDTH 1800 0
DWIDTH 18 0
BBX 16 16 1 -3
BITMAP
3CFC
0404
0404
0484
0888
0080
FFFF
0000
07C0
0000
3FFC
0180
0180
0660
1C38
2004
ENDCHAR
STARTCHAR AF48
ENCODING 12874
SWIDTH 1800 0
DWIDTH 18 0
BBX 16 17 1 -3
BITMAP
0008
0008
7BC8
1048
1048
1048
1048
1248
128F
1208
0208
0278
FF88
0008
0008
0008
0008
ENDCHAR
STARTCHAR AF49
ENCODING 12875
SWIDTH 1800 0
DWIDTH 18 0
BBX 16 17 1 -3
BITMAP
0008
0008
73C8
1048
1048
1248
1448
144F
FFE8
0008
0008
7FF8
0008
0008
0008
0008
0008
ENDCHAR
STARTCHAR AF50
ENCODING 12876
SWIDTH 1800 0
DWIDTH 18 0
BBX 16 17 1 -3
BITMAP
0008
0008
73C8
1048
1048
1248
124F
1248
FFF8
0008
3FF8
0008
0008
3FF8
2000
2000
3FFC
ENDCHAR
STARTCHAR AF5C
ENCODING 12877
SWIDTH 1800 0
DWIDTH 18 0
BBX 17 17 0 -3
BITMAP
000400
380400
09E400
082400
082400
082400
0A2780
022400
07F400
F80400
000000
060800
040800
060C00
0A1600
112300
604100
ENDCHAR
STARTCHAR AF5D
ENCODING 12878
SWIDTH 1800 0
DWIDTH 18 0
BBX 16 17 1 -3
BITMAP
0008
0008
73C8
1048
1048
1248
1248
124F
07F8
F808
0008
0FF8
1008
2004
2004
300C
0FF0
ENDCHAR
STARTCHAR AF64
ENCODING 12879
SWIDTH 1800 0
DWIDTH 18 0
BBX 14 17 2 -3
BITMAP
0004
0024
E724
2124
2124
2124
2124
2924
293C
0824
0824
08A4
FF24
0024
0024
0024
0004
ENDCHAR
STARTCHAR AF65
ENCODING 12880
SWIDTH 1800 0
DWIDTH 18 0
BBX 14 17 2 -3
BITMAP
0004
0024
E724
2124
2124
2924
293C
0824
FFA4
0024
0000
3FFC
0004
0004
0004
0004
0004
ENDCHAR
STARTCHAR AF79
ENCODING 12881
SWIDTH 1800 0
DWIDTH 18 0
BBX 14 17 2 -3
BITMAP
0004
0024
E724
2124
2124
2924
293C
0824
1FA4
6024
0004
0FF0
1018
2004
2004
3008
0FF0
ENDCHAR
STARTCHAR AF80
ENCODING 12882
SWIDTH 1800 0
DWIDTH 18 0
BBX 14 16 2 -3
BITMAP
0004
7BE4
0844
1044
1044
1044
1244
1244
0204
0204
02F4
FD04
0004
0004
0004
0004
ENDCHAR
STARTCHAR AF84
ENCODING 12883
SWIDTH 1800 0
DWIDTH 18 0
BBX 14 17 2 -3
BITMAP
0004
0004
7BE4
1824
1044
1044
1244
1244
0204
FFF4
8004
0004
2004
2000
2000
2000
3FFC
ENDCHAR
STARTCHAR AF88
ENCODING 12884
SWIDTH 1800 0
DWIDTH 18 0
BBX 14 17 2 -3
BITMAP
0004
7BE4
1844
1044
1044
1244
0244
0214
FFE4
0000
3FFC
0004
0004
3FFC
2000
2000
3FFC
ENDCHAR
STARTCHAR AF90
ENCODING 12885
SWIDTH 1800 0
DWIDTH 18 0
BBX 14 18 2 -4
BITMAP
0004
0004
7BE4
0824
1844
1044
1244
1244
0204
FFE4
0000
3FFC
2004
2004
2004
2004
3FFC
0004
ENDCHAR
STARTCHAR AF91
ENCODING 12886
SWIDTH 1800 0
DWIDTH 18 0
BBX 14 17 2 -3
BITMAP
0004
7BE4
0824
1044
1044
1244
1244
0204
02F4
FD04
0000
2004
2004
3FFC
2004
3FFC
2004
ENDCHAR
STARTCHAR AF95
ENCODING 12887
SWIDTH 1800 0
DWIDTH 18 0
BBX 14 17 2 -3
BITMAP
0004
0004
7BE4
1824
1044
1044
1244
1244
0204
FFF4
0004
0FF0
1008
2004
2004
1008
0FF0
ENDCHAR
STARTCHAR AF9C
ENCODING 12888
SWIDTH 1800 0
DWIDTH 18 0
BBX 16 12 1 -1
BITMAP
7CFE
0402
0406
0404
0804
0804
0A24
1224
0220
0220
0220
FFFF
ENDCHAR
STARTCHAR AFB8
ENCODING 12889
SWIDTH 1800 0
DWIDTH 18 0
BBX 17 16 0 -3
BITMAP
3E7C00
020400
020400
020400
020400
040400
040400
FFFF80
008000
008000
008000
008000
008000
008000
008000
008000
ENDCHAR
STARTCHAR AFB9
ENCODING 12890
SWIDTH 1800 0
DWIDTH 18 0
BBX 17 16 0 -3
BITMAP
3E7C00
020400
020400
020400
020400
040400
FFFF80
008000
008000
008000
3FFE00
000200
000200
000200
000200
000200
ENDCHAR
STARTCHAR AFBC
ENCODING 12891
SWIDTH 1800 0
DWIDTH 18 0
BBX 16 15 1 -2
BITMAP
7EFC
0604
0404
0404
0408
0408
FFFF
0100
0100
0100
2100
2100
2000
2000
3FFC
ENDCHAR
STARTCHAR AFC0
ENCODING 12892
SWIDTH 1800 0
DWIDTH 18 0
BBX 17 16 0 -3
BITMAP
3E3E00
020200
020200
020200
040400
FFFF80
008000
008000
008000
1FFE00
000200
000200
1FFE00
100000
100000
1FFE00
ENDCHAR
STARTCHAR AFC7
ENCODING 12893
SWIDTH 1800 0
DWIDTH 18 0
BBX 17 16 1 -3
BITMAP
3E7C00
020400
020400
020400
040400
FFFF80
008000
008000
3E7000
020000
02FE00
3E7800
208400
208400
3E8400
007800
ENDCHAR
STARTCHAR AFC8
ENCODING 12894
SWIDTH 1800 0
DWIDTH 18 0
BBX 17 16 0 -3
BITMAP
3E3E00
020200
020200
020200
020400
040400
FFFF80
008000
008000
008000
1FFE00
100200
100200
100200
1FFE00
100200
ENDCHAR
STARTCHAR AFC9
ENCODING 12895
SWIDTH 1800 0
DWIDTH 18 0
BBX 17 16 0 -3
BITMAP
3E7E00
020200
020200
020200
020200
040400
FFFF80
008000
008000
108200
100200
1FFE00
100200
100200
1FFE00
100200
ENDCHAR
STARTCHAR AFCB
ENCODING 12896
SWIDTH 1800 0
DWIDTH 18 0
BBX 17 16 0 -3
BITMAP
3E7C00
020400
020400
020400
020400
040400
FFFF80
008000
008000
008000
00C000
00C000
01E000
033000
0C1C00
180600
ENDCHAR
STARTCHAR AFCD
ENCODING 12897
SWIDTH 1800 0
DWIDTH 18 0
BBX 17 16 1 -3
BITMAP
3E7C00
020400
020400
020400
020400
040400
FFFF80
008000
008000
008000
0FF000
180800
200400
200400
100800
0FF000
ENDCHAR
STARTCHAR AFCE
ENCODING 12898
SWIDTH 1800 0
DWIDTH 18 0
BBX 17 16 0 -3
BITMAP
3E7E00
020400
020400
020400
040400
FFFF80
008000
008000
008000
000000
1FFE00
00C000
00C000
012000
061800
180600
ENDCHAR
STARTCHAR AFD4
ENCODING 12899
SWIDTH 1800 0
DWIDTH 18 0
BBX 14 16 2 -3
BITMAP
0004
FBC4
1044
1044
1044
1084
1084
1FE4
6404
0404
047C
0404
0404
0404
0404
0004
ENDCHAR
STARTCHAR AFDC
ENCODING 12900
SWIDTH 1800 0
DWIDTH 18 0
BBX 14 16 2 -3
BITMAP
0004
FBC4
1044
1084
1084
10E4
6F04
047C
0404
0000
3FFC
0004
3FFC
2000
2000
3FFC
ENDCHAR
STARTCHAR AFE8
ENCODING 12901
SWIDTH 1800 0
DWIDTH 18 0
BBX 15 17 1 -3
BITMAP
0004
0004
FBC4
1044
1044
1084
F0E4
0F04
047C
0404
0000
0408
0408
0618
0A14
1122
6040
ENDCHAR
STARTCHAR AFE9
ENCODING 12902
SWIDTH 1800 0
DWIDTH 18 0
BBX 14 17 2 -3
BITMAP
0004
0004
7BC4
1044
1044
1084
10E4
FF04
0404
047C
0004
0FF0
1008
2004
2004
300C
0FF0
ENDCHAR
STARTCHAR AFF0
ENCODING 12903
SWIDTH 1800 0
DWIDTH 18 0
BBX 14 17 2 -3
BITMAP
0024
0024
7724
1124
1124
1124
1124
1124
FFA4
0824
09E4
0824
0824
0824
0824
0024
0004
ENDCHAR
STARTCHAR AFF1
ENCODING 12904
SWIDTH 1800 0
DWIDTH 18 0
BBX 14 17 2 -3
BITMAP
0024
0024
F724
3224
2224
2224
E3A4
1C24
09E4
0824
0000
3FFC
0004
0004
0004
0004
0004
ENDCHAR
STARTCHAR AFF4
ENCODING 12905
SWIDTH 1800 0
DWIDTH 18 0
BBX 14 17 2 -3
BITMAP
0004
0024
F724
2224
2224
2224
2224
2FA4
D824
0824
09E4
0824
2024
2000
2000
2000
3FFC
ENDCHAR
STARTCHAR AFF8
ENCODING 12906
SWIDTH 1800 0
DWIDTH 18 0
BBX 14 17 2 -3
BITMAP
0004
0024
F724
1124
2224
2224
EFA4
1824
09E4
0020
0000
3FFC
0004
3FFC
2000
2000
3FFC
ENDCHAR
STARTCHAR B000
ENCODING 12907
SWIDTH 1800 0
DWIDTH 18 0
BBX 14 18 2 -4
BITMAP
0004
0024
F724
1124
3224
2224
23A4
FC24
0824
09E4
0020
3FFC
2004
2004
2004
2004
3FFC
0004
ENDCHAR
STARTCHAR B001
ENCODING 12908
SWIDTH 1800 0
DWIDTH 18 0
BBX 14 18 2 -4
BITMAP
0004
0024
FF24
1124
1224
2224
2324
FC24
09E4
0824
0000
2004
2004
3FFC
2004
2004
3FFC
2000
ENDCHAR
STARTCHAR B004
ENCODING 12909
SWIDTH 1800 0
DWIDTH 18 0
BBX 15 17 1 -3
BITMAP
0004
0024
F724
1124
1324
1224
2224
FF24
0824
09E4
0820
020C
0208
060C
0514
09A2
3040
ENDCHAR
STARTCHAR B00C
ENCODING 12910
SWIDTH 1800 0
DWIDTH 18 0
BBX 14 17 2 -3
BITMAP
0004
0004
79E4
0824
0824
0844
0844
1044
10D4
FFE4
0204
0204
0204
0204
0204
0204
0204
ENDCHAR
STARTCHAR B010
ENCODING 12911
SWIDTH 1800 0
DWIDTH 18 0
BBX 14 17 2 -3
BITMAP
0004
0004
79E4
0824
0844
0844
1044
1044
FFE4
0204
0204
0204
2204
2000
2000
2000
3FFC
ENDCHAR
STARTCHAR B014
ENCODING 12912
SWIDTH 1800 0
DWIDTH 18 0
BBX 14 17 2 -3
BITMAP
0004
0004
79E4
0824
0844
1044
FFF4
0204
0204
0000
0000
3FFC
0004
3FFC
2000
2000
3FFC
ENDCHAR
STARTCHAR B01C
ENCODING 12913
SWIDTH 1800 0
DWIDTH 18 0
BBX 14 18 2 -4
BITMAP
0004
0004
79E4
0824
0844
0844
1044
FFF4
0204
0204
0200
3FFC
2004
2004
2004
2004
3FFC
0004
ENDCHAR
STARTCHAR B01D
ENCODING 12914
SWIDTH 1800 0
DWIDTH 18 0
BBX 14 18 2 -4
BITMAP
0004
0004
79E4
0844
0844
0844
1074
EF84
0204
0204
0000
2004
2004
3FFC
2004
2004
3FFC
0004
ENDCHAR
STARTCHAR B028
ENCODING 12915
SWIDTH 1800 0
DWIDTH 18 0
BBX 18 16 0 -3
BITMAP
3E7E00
020200
020200
020200
020200
020200
020200
FFFFC0
040800
040800
040800
040800
040800
040800
040800
040800
ENDCHAR
STARTCHAR B044
ENCODING 12916
SWIDTH 1800 0
DWIDTH 18 0
BBX 16 12 1 -1
BITMAP
7EFC
0204
0404
0404
0404
0404
0408
0408
0408
0408
0808
FFFF
ENDCHAR
STARTCHAR B045
ENCODING 12917
SWIDTH 1800 0
DWIDTH 18 0
BBX 16 16 1 -3
BITMAP
7EFC
0404
0404
0404
0408
0408
FFFF
0000
0000
0000
3FFC
0004
0004
0004
0004
0004
ENDCHAR
STARTCHAR B048
ENCODING 12918
SWIDTH 1800 0
DWIDTH 18 0
BBX 16 14 1 -2
BITMAP
7EFC
0604
0404
0404
0408
0408
FFFF
0000
0000
2000
2000
2000
2000
3FFC
ENDCHAR
STARTCHAR B04A
ENCODING 12919
SWIDTH 1800 0
DWIDTH 18 0
BBX 16 16 1 -3
BITMAP
7EFC
0404
0404
0404
0408
0408
FFFF
0000
0078
2000
21FC
20F8
2184
2104
2384
3CF8
ENDCHAR
STARTCHAR B04C
ENCODING 12920
SWIDTH 1800 0
DWIDTH 18 0
BBX 16 15 1 -2
BITMAP
7EFC
0604
0404
040C
0408
0408
FFFF
0000
0000
3FFC
0004
3FFC
2000
2000
3FFC
ENDCHAR
STARTCHAR B04E
ENCODING 12921
SWIDTH 1800 0
DWIDTH 18 0
BBX 16 16 1 -3
BITMAP
7CFC
0404
0404
0404
0408
0408
FFFF
0000
0000
3E7C
0244
0244
3E44
2044
207C
3F44
ENDCHAR
STARTCHAR B053
ENCODING 12922
SWIDTH 1800 0
DWIDTH 18 0
BBX 16 16 1 -3
BITMAP
7E7C
0204
0204
0404
0404
0408
FFFF
0000
3E78
0200
03FC
3E78
2084
2084
3E8C
0078
ENDCHAR
STARTCHAR B054
ENCODING 12923
SWIDTH 1800 0
DWIDTH 18 0
BBX 16 16 1 -3
BITMAP
7EFC
0604
0404
0404
0408
0408
0408
FFFF
0000
3FFC
2004
2004
2004
2004
3FFC
2004
ENDCHAR
STARTCHAR B055
ENCODING 12924
SWIDTH 1800 0
DWIDTH 18 0
BBX 16 16 1 -3
BITMAP
7CFC
0404
0404
0404
0408
0408
FFFF
0000
0000
2004
2004
3FFC
2004
2004
3FFC
2004
ENDCHAR
STARTCHAR B057
ENCODING 12925
SWIDTH 1800 0
DWIDTH 18 0
BBX 16 15 1 -3
BITMAP
7EFC
0204
0404
0404
0408
0408
FFFF
0000
0000
0180
0180
03C0
0660
0818
300C
ENDCHAR
STARTCHAR B059
ENCODING 12926
SWIDTH 1800 0
DWIDTH 18 0
BBX 16 16 1 -3
BITMAP
7EFC
0404
0404
0404
0408
0408
FFFF
0000
0000
07F0
180C
2002
2002
2002
180C
07F0
ENDCHAR
STARTCHAR B05D
ENCODING 13089
SWIDTH 1800 0
DWIDTH 18 0
BBX 16 15 1 -2
BITMAP
7EFC
0404
0404
0404
0408
0408
FFFF
0000
0000
3FFC
2000
3FF8
2000
2000
3FFC
ENDCHAR
STARTCHAR B07C
ENCODING 13090
SWIDTH 1800 0
DWIDTH 18 0
BBX 14 17 2 -3
BITMAP
0004
0004
7BC4
0844
0844
1844
1044
1084
2084
2084
4104
8304
0204
0404
0004
0004
0004
ENDCHAR
STARTCHAR B07D
ENCODING 13091
SWIDTH 1800 0
DWIDTH 18 0
BBX 14 17 2 -3
BITMAP
0004
0004
7BC4
0844
0844
10C4
1084
2184
4104
8204
0400
0000
3FFC
0004
0004
0004
0004
ENDCHAR
STARTCHAR B080
ENCODING 13092
SWIDTH 1800 0
DWIDTH 18 0
BBX 14 17 2 -3
BITMAP
0004
0004
7BC4
0844
0844
0884
1084
3084
2104
C204
0604
0004
2004
2000
2000
2000
3FFC
ENDCHAR
STARTCHAR B084
ENCODING 13093
SWIDTH 1800 0
DWIDTH 18 0
BBX 14 16 2 -3
BITMAP
0004
7BC4
0844
0844
1044
3084
6184
C304
0604
0000
3FFC
0004
3FFC
2000
2000
3FFC
ENDCHAR
STARTCHAR B08C
ENCODING 13094
SWIDTH 1800 0
DWIDTH 18 0
BBX 14 18 2 -4
BITMAP
0004
0004
7BC4
0844
0844
1044
1084
2084
6104
8204
0400
0000
3FFC
2004
2004
2004
3FFC
2000
ENDCHAR
STARTCHAR B08D
ENCODING 13095
SWIDTH 1800 0
DWIDTH 18 0
BBX 13 16 3 -3
BITMAP
0008
F788
1088
1088
2108
2108
4208
8608
0C08
0000
4008
4008
7FF8
4008
4008
7FF8
ENDCHAR
STARTCHAR B08F
ENCODING 13096
SWIDTH 1800 0
DWIDTH 18 0
BBX 15 17 1 -3
BITMAP
0002
0002
79E2
0822
0842
0842
1042
1082
2182
C302
0602
0040
00C0
00A0
0310
060C
1802
ENDCHAR
STARTCHAR B091
ENCODING 13097
SWIDTH 1800 0
DWIDTH 18 0
BBX 14 16 2 -3
BITMAP
0004
7BC4
0844
0844
1084
1084
2104
4304
8604
0404
0FF0
1008
2004
2004
1008
0FF0
ENDCHAR
STARTCHAR B098
ENCODING 13098
SWIDTH 1800 0
DWIDTH 18 0
BBX 16 17 1 -3
BITMAP
0008
0008
8008
8008
8008
8008
8008
8008
800F
8008
8008
BFC8
C008
0008
0008
0008
0008
ENDCHAR
STARTCHAR B099
ENCODING 13099
SWIDTH 1800 0
DWIDTH 18 0
BBX 16 17 1 -3
BITMAP
0008
0008
8008
8008
8008
8008
800F
8008
FF88
0008
0008
3FF8
0008
0008
0008
0008
0008
ENDCHAR
STARTCHAR B09A
ENCODING 13100
SWIDTH 1800 0
DWIDTH 18 0
BBX 16 17 1 -3
BITMAP
0008
0008
8008
8008
8008
800F
8008
8048
FF88
0008
0000
3EF8
0208
0208
0208
0208
0208
ENDCHAR
STARTCHAR B09C
ENCODING 13101
SWIDTH 1800 0
DWIDTH 18 0
BBX 16 17 1 -3
BITMAP
0008
0008
8008
8008
8008
8008
800F
8008
81C8
FE08
0008
0008
2000
2000
2000
2000
3FF8
ENDCHAR
STARTCHAR B09F
ENCODING 13102
SWIDTH 1800 0
DWIDTH 18 0
BBX 16 17 1 -3
BITMAP
0008
0008
8008
8008
8008
8008
800F
8048
FF88
0008
0000
3FF8
2000
2000
2000
2000
3FF8
ENDCHAR
STARTCHAR B0A0
ENCODING 13103
SWIDTH 1800 0
DWIDTH 18 0
BBX 16 16 1 -3
BITMAP
0008
8008
8008
8008
8008
800F
83C8
FC08
0008
3FF8
0008
0008
3FF8
2000
2000
3FF8
ENDCHAR
STARTCHAR B0A1
ENCODING 13104
SWIDTH 1800 0
DWIDTH 18 0
BBX 16 17 1 -3
BITMAP
0008
0008
8008
8008
8008
8008
800F
9FC8
6008
0008
3EF8
0208
0208
3E08
2008
2008
3F08
ENDCHAR
STARTCHAR B0A2
ENCODING 13105
SWIDTH 1800 0
DWIDTH 18 0
BBX 16 17 1 -3
BITMAP
0008
0008
8008
8008
8008
800F
8008
BFC8
4008
0000
3EF8
0288
0288
3E88
2088
27F8
1888
ENDCHAR
STARTCHAR B0A8
ENCODING 13106
SWIDTH 1800 0
DWIDTH 18 0
BBX 16 17 1 -3
BITMAP
0008
0008
8008
8008
8008
8008
800F
81C8
FE08
0008
0000
3FF8
2008
2008
2008
2008
3FF8
ENDCHAR
STARTCHAR B0A9
ENCODING 13107
SWIDTH 1800 0
DWIDTH 18 0
BBX 16 18 1 -4
BITMAP
0008
0008
8008
8008
8008
8008
800F
8FC8
7008
0008
2008
2008
3FF8
2008
2008
2008
3FF8
2000
ENDCHAR
STARTCHAR B0AB
ENCODING 13108
SWIDTH 1800 0
DWIDTH 18 0
BBX 16 17 1 -3
BITMAP
0008
0008
8008
8008
8008
8008
8008
800F
87C8
F808
0008
0108
0180
0380
0660
1C38
300C
ENDCHAR
STARTCHAR B0AC
ENCODING 13109
SWIDTH 1800 0
DWIDTH 18 0
BBX 16 17 1 -3
BITMAP
0008
0008
8008
8008
8008
8008
800F
8048
FF88
0008
0810
0810
0810
0C28
1668
22C4
4080
ENDCHAR
STARTCHAR B0AD
ENCODING 13110
SWIDTH 1800 0
DWIDTH 18 0
BBX 16 17 1 -3
BITMAP
0008
0008
8008
8008
8008
8008
800F
8008
FF88
0008
0008
1FE0
2010
4008
4008
2010
1FE0
ENDCHAR
STARTCHAR B0AE
ENCODING 13111
SWIDTH 1800 0
DWIDTH 18 0
BBX 16 17 1 -3
BITMAP
0008
0008
8008
8008
8008
800F
8008
FFC8
0008
0008
3FF8
0100
0100
0280
06C0
1830
2008
ENDCHAR
STARTCHAR B0AF
ENCODING 13112
SWIDTH 1800 0
DWIDTH 18 0
BBX 16 17 1 -3
BITMAP
0008
8008
8008
8008
8008
8008
800F
F008
0F88
0008
0780
0000
3FF8
0100
0380
0C40
7038
ENDCHAR
STARTCHAR B0B1
ENCODING 13113
SWIDTH 1800 0
DWIDTH 18 0
BBX 16 17 1 -3
BITMAP
0008
0008
8008
8008
8008
800F
8008
FF88
0008
0000
3FF8
2000
2000
3FF8
2000
2000
3FF8
ENDCHAR
STARTCHAR B0B3
ENCODING 13114
SWIDTH 1800 0
DWIDTH 18 0
BBX 16 17 1 -3
BITMAP
0008
0008
8008
8008
8008
800F
80C8
FF08
0008
07C0
0000
7FFC
0000
1FF0
2008
3018
1FF0
ENDCHAR
STARTCHAR B0B4
ENCODING 13115
SWIDTH 1800 0
DWIDTH 18 0
BBX 14 17 2 -3
BITMAP
0004
0084
8084
8084
8084
8084
8084
8084
80FC
8084
8084
8684
F884
0084
0084
0084
0004
ENDCHAR
STARTCHAR B0B5
ENCODING 13116
SWIDTH 1800 0
DWIDTH 18 0
BBX 14 17 2 -3
BITMAP
0004
0084
8084
8084
8084
8084
80FC
8684
F884
0084
0000
3FFC
0004
0004
0004
0004
0004
ENDCHAR
ENDFONT
